{"glyphs":{"0":{"ha":833,"x_min":82,"x_max":786,"o":"m 340 -14 q 146 61 211 -14 q 82 279 82 135 q 115 519 82 382 q 204 748 148 655 q 339 885 261 840 q 528 929 418 929 q 722 858 659 929 q 786 644 786 787 q 754 404 786 537 q 663 175 722 270 q 524 34 604 81 q 340 -14 444 -14 m 663 642 q 626 785 663 740 q 509 830 589 830 q 345 761 408 830 q 243 541 282 692 q 205 281 205 389 q 243 134 205 181 q 361 86 282 86 q 485 125 433 86 q 575 242 538 163 q 638 442 613 320 q 663 642 663 564 m 338 376 l 371 545 l 530 545 l 497 376 l 338 376 z "},"1":{"ha":833,"x_min":35,"x_max":714,"o":"m 35 0 l 54 98 l 352 98 l 487 791 q 350 698 451 737 q 157 659 248 659 l 177 760 q 376 804 279 760 q 521 915 473 848 l 633 915 l 475 98 l 714 98 l 695 0 l 35 0 z "},"2":{"ha":833,"x_min":26,"x_max":787,"o":"m 26 0 l 42 79 q 148 204 81 140 q 301 330 214 267 q 398 399 388 392 q 562 528 511 480 q 635 620 612 576 q 659 710 659 663 q 619 798 659 766 q 505 829 580 829 q 373 788 431 829 q 291 667 316 748 l 169 679 q 299 862 205 795 q 524 929 393 929 q 718 880 648 929 q 787 735 787 830 q 770 640 787 686 q 717 545 754 594 q 621 447 680 496 q 420 299 563 397 q 275 190 330 237 q 193 99 220 142 l 683 99 l 664 0 l 26 0 z "},"3":{"ha":833,"x_min":62,"x_max":787,"o":"m 347 -14 q 135 46 208 -14 q 62 220 62 106 q 63 245 62 239 l 192 257 l 191 243 q 367 87 191 87 q 489 112 437 87 q 570 185 541 137 q 600 283 600 233 q 544 378 600 343 q 394 413 488 413 l 325 413 l 346 519 l 412 519 q 534 542 477 519 q 624 608 591 566 q 657 713 657 650 q 620 798 657 768 q 505 829 582 829 q 366 787 424 829 q 285 671 308 746 l 164 680 q 297 863 201 797 q 525 929 393 929 q 720 880 652 929 q 787 740 787 830 q 719 566 787 640 q 539 470 650 492 l 538 467 q 676 409 626 457 q 726 289 726 360 q 699 175 726 235 q 622 73 671 115 q 503 9 572 31 q 347 -14 433 -14 z "},"4":{"ha":833,"x_min":41,"x_max":753,"o":"m 606 216 l 564 0 l 442 0 l 484 216 l 41 216 l 59 311 l 607 915 l 742 915 l 625 313 l 753 313 l 734 216 l 606 216 m 594 783 l 164 313 l 503 313 l 594 783 z "},"5":{"ha":833,"x_min":57,"x_max":796,"o":"m 332 -14 q 127 45 198 -14 q 57 214 57 104 l 183 228 q 355 86 194 86 q 485 120 427 86 q 576 216 543 153 q 610 338 610 279 q 563 449 610 408 q 435 490 517 490 q 341 474 386 490 q 245 421 296 459 l 125 421 l 253 915 l 796 915 l 777 817 l 347 817 l 271 528 q 480 589 363 589 q 669 528 600 589 q 739 363 739 467 q 687 176 739 267 q 542 36 635 85 q 332 -14 449 -14 z "},"6":{"ha":833,"x_min":100,"x_max":789,"o":"m 361 -14 q 166 62 233 -14 q 100 280 100 137 q 135 518 100 387 q 231 741 171 649 q 373 881 291 833 q 553 929 456 929 q 789 734 769 929 l 667 713 q 624 803 661 775 q 533 830 588 830 q 353 735 429 830 q 244 471 277 640 q 356 565 290 533 q 500 597 422 597 q 675 537 612 597 q 739 374 739 477 q 711 229 739 304 q 633 100 683 155 q 514 16 583 46 q 361 -14 445 -14 m 611 353 q 570 464 611 425 q 453 503 528 503 q 338 473 393 503 q 252 391 283 442 q 222 265 222 340 q 264 134 222 182 q 376 85 306 85 q 496 120 442 85 q 580 218 549 155 q 611 353 611 282 z "},"7":{"ha":833,"x_min":195,"x_max":831,"o":"m 333 0 l 205 0 q 363 385 241 178 q 694 817 486 591 l 195 817 l 214 915 l 831 915 l 813 821 q 484 378 600 579 q 333 0 368 178 z "},"8":{"ha":833,"x_min":62,"x_max":786,"o":"m 342 -14 q 136 41 210 -14 q 62 197 62 96 q 94 329 62 269 q 182 429 126 389 q 302 479 237 469 l 303 482 q 207 542 242 497 q 172 652 172 587 q 218 790 172 726 q 343 892 263 855 q 523 929 424 929 q 716 877 647 929 q 786 736 786 825 q 724 574 786 648 q 572 484 662 501 l 571 481 q 684 423 643 469 q 726 307 726 377 q 699 185 726 248 q 622 78 671 123 q 502 10 572 34 q 342 -14 432 -14 m 658 724 q 505 838 658 838 q 392 814 440 838 q 320 745 344 790 q 296 650 296 700 q 334 559 296 591 q 446 528 372 528 q 569 557 519 528 q 638 635 618 585 q 658 724 658 685 m 600 306 q 555 404 600 370 q 427 437 511 437 q 301 408 356 437 q 219 327 247 378 q 191 214 191 275 q 361 78 191 78 q 494 108 441 78 q 573 196 547 138 q 600 306 600 254 z "},"9":{"ha":833,"x_min":80,"x_max":777,"o":"m 317 -14 q 147 34 205 -14 q 80 186 89 81 l 201 204 q 338 85 214 85 q 518 178 441 85 q 631 441 596 271 q 519 343 592 380 q 368 306 447 306 q 198 368 260 306 q 136 540 136 431 q 164 687 136 613 q 243 816 191 762 q 366 900 294 870 q 523 929 438 929 q 777 648 777 929 q 744 408 777 539 q 648 180 710 277 q 502 35 586 84 q 317 -14 418 -14 m 654 651 q 613 782 654 734 q 500 830 572 830 q 379 795 433 830 q 294 694 325 760 q 262 560 262 629 q 303 444 262 485 q 415 402 344 402 q 534 434 476 402 q 623 519 591 467 q 654 651 654 571 z "}," ":{"ha":833,"x_min":0,"x_max":0,"o":""},"!":{"ha":833,"x_min":278,"x_max":590,"o":"m 448 269 l 348 269 l 457 914 l 590 914 l 448 269 m 278 0 l 304 136 l 436 136 l 410 0 l 278 0 z "},"\"":{"ha":833,"x_min":256,"x_max":768,"o":"m 656 573 l 559 573 l 616 1006 l 768 1006 l 656 573 m 351 573 l 256 573 l 312 1006 l 464 1006 l 351 573 z "},"#":{"ha":833,"x_min":19,"x_max":842,"o":"m 669 565 l 582 350 l 758 350 l 744 277 l 552 277 l 439 0 l 364 0 l 476 277 l 230 277 l 119 0 l 45 0 l 155 277 l 19 277 l 33 350 l 186 350 l 273 565 l 110 565 l 124 638 l 302 638 l 416 915 l 491 915 l 378 638 l 624 638 l 737 915 l 812 915 l 699 638 l 842 638 l 827 565 l 669 565 m 350 565 l 261 350 l 507 350 l 594 565 l 350 565 z "},"$":{"ha":833,"x_min":24,"x_max":823,"o":"m 376 -96 l 289 -96 l 310 14 q 24 257 25 23 l 144 282 q 328 107 144 117 l 393 439 q 307 464 360 446 q 220 504 253 481 q 166 559 186 526 q 146 642 146 593 q 168 747 146 696 q 234 834 189 797 q 343 891 279 871 q 485 913 407 911 l 502 1001 l 589 1001 l 572 913 q 756 859 697 908 q 823 695 815 809 l 701 673 q 664 781 699 744 q 554 823 629 817 l 498 534 q 666 476 619 503 q 739 412 713 450 q 765 315 765 373 q 722 165 765 234 q 595 57 680 96 q 397 14 511 18 l 376 -96 m 264 661 q 294 594 264 620 q 413 544 323 568 l 467 824 q 268 690 294 817 l 264 661 m 646 293 q 630 349 646 326 q 584 389 614 372 q 477 425 554 405 l 414 106 q 586 163 527 113 q 646 293 646 214 z "},"%":{"ha":833,"x_min":-20,"x_max":890,"o":"m 79 0 l -20 0 l 791 918 l 890 918 l 79 0 m 306 923 q 461 774 461 923 q 445 660 461 720 q 397 554 429 599 q 319 487 364 509 q 214 464 274 464 q 56 618 56 464 q 72 733 56 670 q 121 839 89 795 q 198 903 153 882 q 306 923 243 923 m 362 769 q 345 830 362 810 q 291 850 328 850 q 216 822 244 850 q 172 731 189 793 q 155 625 155 669 q 175 559 155 578 q 230 541 194 541 q 303 572 275 541 q 347 664 331 604 q 362 769 362 724 m 659 451 q 814 301 814 451 q 785 148 814 224 q 701 32 756 72 q 567 -8 646 -8 q 409 146 409 -8 q 426 260 409 198 q 474 366 442 322 q 550 430 505 409 q 659 451 595 451 m 715 296 q 696 360 715 342 q 644 378 677 378 q 569 349 597 378 q 525 259 542 321 q 509 153 509 198 q 528 87 509 106 q 583 68 547 68 q 656 100 627 68 q 700 191 684 132 q 715 296 715 250 z "},"&":{"ha":833,"x_min":-1,"x_max":751,"o":"m 654 -8 q 563 15 606 -8 q 492 79 519 38 q 239 -14 370 -14 q 60 38 121 -14 q -1 181 -1 89 q 63 376 -1 288 q 258 527 127 465 q 239 652 239 585 q 316 849 239 777 q 522 920 394 920 q 659 882 609 920 q 709 777 709 843 q 679 673 709 720 q 585 585 648 626 q 380 490 521 544 q 517 226 441 330 q 655 501 600 347 l 747 472 q 576 159 688 313 q 628 105 599 122 q 685 87 658 87 q 751 98 724 87 l 734 7 q 654 -8 699 -8 m 603 758 q 577 817 603 795 q 504 838 551 838 q 386 794 432 838 q 340 665 340 749 q 357 564 340 615 q 506 628 471 609 q 562 668 540 647 q 593 711 583 688 q 603 758 603 733 m 436 147 q 280 446 342 284 q 158 343 201 408 q 115 205 115 278 q 153 110 115 144 q 262 75 190 75 q 354 95 307 75 q 436 147 401 115 z "},"'":{"ha":833,"x_min":408,"x_max":616,"o":"m 504 573 l 408 573 l 465 1006 l 616 1006 l 504 573 z "},"(":{"ha":833,"x_min":210,"x_max":728,"o":"m 337 163 q 370 -59 337 48 q 477 -288 402 -166 l 348 -288 q 243 -66 277 -175 q 210 159 210 43 q 250 446 210 294 q 371 729 290 597 q 600 1006 452 860 l 728 1006 q 503 734 585 865 q 379 452 421 604 q 337 163 337 300 z "},")":{"ha":833,"x_min":100,"x_max":621,"o":"m 231 -288 l 100 -288 q 328 -13 245 -144 q 452 269 411 118 q 494 553 494 420 q 458 783 494 671 q 352 1006 422 894 l 482 1006 q 588 784 555 891 q 621 564 621 677 q 579 276 621 431 q 458 -11 538 120 q 231 -288 377 -142 z "},"*":{"ha":833,"x_min":250,"x_max":746,"o":"m 541 806 l 733 876 l 746 786 l 545 736 l 638 567 l 548 518 l 480 693 l 340 519 l 269 568 l 430 736 l 250 786 l 298 877 l 465 804 l 496 1006 l 588 1006 l 541 806 z "},"+":{"ha":833,"x_min":79,"x_max":753,"o":"m 466 412 l 466 122 l 366 122 l 366 412 l 79 412 l 79 511 l 366 511 l 366 802 l 466 802 l 466 511 l 753 511 l 753 412 l 466 412 z "},",":{"ha":833,"x_min":56,"x_max":438,"o":"m 56 -246 l 258 203 l 438 203 l 140 -246 l 56 -246 z "},"-":{"ha":833,"x_min":216,"x_max":617,"o":"m 216 315 l 237 423 l 617 423 l 596 315 l 216 315 z "},".":{"ha":833,"x_min":265,"x_max":464,"o":"m 265 0 l 304 203 l 464 203 l 425 0 l 265 0 z "},"/":{"ha":833,"x_min":3,"x_max":879,"o":"m 3 -14 l 758 1006 l 879 1006 l 127 -14 l 3 -14 z "},":":{"ha":833,"x_min":265,"x_max":567,"o":"m 265 0 l 304 203 l 464 203 l 425 0 l 265 0 m 368 531 l 408 734 l 567 734 l 528 531 l 368 531 z "},";":{"ha":833,"x_min":119,"x_max":567,"o":"m 368 531 l 408 734 l 567 734 l 528 531 l 368 531 m 119 -246 l 321 203 l 501 203 l 203 -246 l 119 -246 z "},"<":{"ha":833,"x_min":79,"x_max":753,"o":"m 79 387 l 79 526 l 753 810 l 753 705 l 172 457 l 753 208 l 753 104 l 79 387 z "},"=":{"ha":833,"x_min":79,"x_max":753,"o":"m 79 581 l 79 681 l 753 681 l 753 581 l 79 581 m 79 233 l 79 334 l 753 334 l 753 233 l 79 233 z "},">":{"ha":833,"x_min":79,"x_max":753,"o":"m 79 104 l 79 208 l 661 457 l 79 705 l 79 810 l 753 526 l 753 387 l 79 104 z "},"?":{"ha":833,"x_min":119,"x_max":794,"o":"m 404 242 l 285 242 q 349 369 301 313 q 480 476 396 425 q 624 589 581 537 q 667 707 667 640 q 622 797 667 766 q 494 827 576 827 q 336 778 403 827 q 242 643 269 729 l 119 651 q 265 856 161 783 q 512 929 369 929 q 720 877 646 929 q 794 731 794 825 q 776 632 794 683 q 713 533 758 581 q 594 441 668 485 q 458 342 500 386 q 404 242 416 298 m 233 0 l 259 136 l 391 136 l 365 0 l 233 0 z "},"@":{"ha":833,"x_min":7,"x_max":851,"o":"m 542 71 q 463 144 463 71 q 466 177 463 161 l 472 203 l 468 203 q 385 107 435 144 q 283 71 335 71 q 199 111 228 71 q 170 228 170 151 q 222 469 170 341 q 352 672 274 597 q 511 747 430 747 q 612 629 609 747 l 616 629 l 658 732 l 736 732 l 602 388 q 548 237 561 279 q 536 172 536 196 q 560 140 536 140 q 653 218 607 140 q 733 425 700 296 q 766 651 766 555 q 713 854 766 781 q 564 928 660 928 q 392 871 474 928 q 243 706 310 814 q 136 451 177 598 q 95 185 95 304 q 153 -34 95 45 q 317 -112 210 -112 q 441 -89 378 -112 q 588 -5 503 -66 l 625 -64 q 451 -162 530 -133 q 294 -192 373 -192 q 82 -96 157 -192 q 7 169 7 1 q 55 466 7 301 q 180 752 102 631 q 362 940 259 874 q 580 1006 465 1006 q 781 917 710 1006 q 851 669 851 828 q 806 392 851 544 q 690 156 760 241 q 542 71 620 71 m 564 589 q 546 655 564 633 q 498 677 529 677 q 394 613 447 677 q 301 434 340 548 q 261 230 261 321 q 313 142 261 142 q 387 176 349 142 q 459 272 425 210 q 529 434 494 334 q 564 589 564 535 z "},"A":{"ha":833,"x_min":-71,"x_max":762,"o":"m 630 0 l 587 259 l 205 259 l 62 0 l -71 0 l 452 915 l 600 915 l 762 0 l 630 0 m 505 817 q 449 708 474 755 q 259 360 425 661 l 573 360 l 522 699 l 505 817 z "},"B":{"ha":833,"x_min":39,"x_max":794,"o":"m 359 0 l 39 0 l 216 915 l 496 915 q 794 740 794 915 q 766 625 794 681 q 687 533 739 570 q 566 482 635 496 q 715 423 665 471 q 765 302 765 375 q 739 189 765 247 q 659 88 713 132 q 527 22 604 44 q 359 0 450 0 m 659 708 q 613 787 659 763 q 477 811 568 811 l 326 811 l 271 529 l 424 529 q 656 677 626 529 l 659 708 m 635 302 q 422 428 635 428 l 252 428 l 189 104 l 369 104 q 551 145 488 104 q 631 269 615 186 l 635 302 z "},"C":{"ha":833,"x_min":79,"x_max":821,"o":"m 214 307 q 395 92 214 92 q 530 140 465 92 q 650 283 596 189 l 749 239 q 373 -14 598 -14 q 154 67 229 -14 q 79 303 79 147 q 114 544 79 415 q 209 758 149 673 q 355 886 269 842 q 549 929 440 929 q 821 702 777 929 l 699 658 q 642 781 687 739 q 530 823 597 823 q 401 789 456 823 q 306 684 346 754 q 240 504 267 614 q 214 307 214 393 z "},"D":{"ha":833,"x_min":39,"x_max":797,"o":"m 290 0 l 39 0 l 216 915 l 427 915 q 797 604 797 915 q 760 376 797 496 q 657 172 724 256 q 498 44 591 87 q 290 0 405 0 m 665 587 q 601 756 665 704 q 408 809 537 809 l 326 809 l 189 106 l 298 106 q 451 139 385 106 q 564 238 517 172 q 638 405 611 304 q 665 587 665 505 z "},"E":{"ha":833,"x_min":39,"x_max":840,"o":"m 39 0 l 216 915 l 840 915 l 819 809 l 326 809 l 270 523 l 723 523 l 703 418 l 250 418 l 189 106 l 710 106 l 690 0 l 39 0 z "},"F":{"ha":833,"x_min":60,"x_max":842,"o":"m 347 809 l 282 474 l 741 474 l 720 367 l 261 367 l 190 0 l 60 0 l 238 915 l 842 915 l 822 809 l 347 809 z "},"G":{"ha":833,"x_min":79,"x_max":814,"o":"m 359 -14 q 152 68 224 -14 q 79 306 79 150 q 115 546 79 415 q 210 760 151 676 q 352 887 269 844 q 545 929 435 929 q 814 705 778 929 l 690 667 q 526 823 666 823 q 399 790 453 823 q 307 688 345 756 q 241 508 268 621 q 214 309 214 395 q 391 92 214 92 q 489 106 437 92 q 577 142 541 120 l 621 370 l 422 370 l 444 478 l 768 478 l 693 90 q 359 -14 520 -14 z "},"H":{"ha":833,"x_min":39,"x_max":829,"o":"m 522 0 l 604 422 l 250 422 l 168 0 l 39 0 l 216 915 l 346 915 l 271 531 l 625 531 l 700 915 l 829 915 l 652 0 l 522 0 z "},"I":{"ha":833,"x_min":66,"x_max":802,"o":"m 243 915 l 802 915 l 781 809 l 567 809 l 430 106 l 644 106 l 624 0 l 66 0 l 86 106 l 300 106 l 437 809 l 223 809 l 243 915 z "},"J":{"ha":833,"x_min":94,"x_max":775,"o":"m 323 -14 q 152 45 209 -14 q 94 231 94 104 l 94 237 l 225 258 l 225 245 q 256 131 225 170 q 345 92 288 92 q 524 282 486 92 l 626 809 l 415 809 l 435 915 l 775 915 l 653 285 q 540 66 627 146 q 323 -14 454 -14 z "},"K":{"ha":833,"x_min":39,"x_max":886,"o":"m 609 0 l 366 435 l 230 318 l 168 0 l 39 0 l 216 915 l 346 915 l 257 458 l 734 915 l 886 915 l 469 527 l 761 0 l 609 0 z "},"L":{"ha":833,"x_min":90,"x_max":695,"o":"m 90 0 l 267 915 l 397 915 l 239 106 l 695 106 l 675 0 l 90 0 z "},"M":{"ha":833,"x_min":16,"x_max":852,"o":"m 564 0 l 679 589 q 722 793 696 674 l 685 720 l 620 595 l 451 298 l 358 298 l 303 595 q 276 793 293 645 l 239 589 l 125 0 l 16 0 l 194 915 l 355 915 l 416 583 q 431 427 424 545 l 460 488 l 509 583 l 699 915 l 852 915 l 674 0 l 564 0 z "},"N":{"ha":833,"x_min":39,"x_max":829,"o":"m 496 0 l 292 766 q 269 594 282 657 l 154 0 l 39 0 l 216 915 l 367 915 l 575 143 q 599 329 583 248 l 713 915 l 829 915 l 652 0 l 496 0 z "},"O":{"ha":833,"x_min":69,"x_max":800,"o":"m 342 -14 q 137 65 205 -14 q 69 292 69 144 q 103 530 69 400 q 196 749 136 659 q 338 884 255 839 q 526 929 420 929 q 730 854 661 929 q 800 629 800 779 q 767 395 800 524 q 673 173 734 265 q 528 33 612 80 q 342 -14 444 -14 m 663 619 q 506 823 663 823 q 349 756 414 823 q 245 551 284 688 q 206 302 206 414 q 363 92 206 92 q 482 127 431 92 q 573 238 534 162 q 638 426 613 314 q 663 619 663 538 z "},"P":{"ha":833,"x_min":39,"x_max":819,"o":"m 427 349 l 236 349 l 168 0 l 39 0 l 216 915 l 528 915 q 744 860 669 915 q 819 702 819 804 q 768 526 819 610 q 628 396 718 443 q 427 349 538 349 m 686 680 q 492 811 686 811 l 326 811 l 256 451 l 428 451 q 565 481 505 451 q 655 565 624 511 q 686 680 686 619 z "},"Q":{"ha":833,"x_min":69,"x_max":800,"o":"m 434 -3 q 484 -127 446 -88 q 590 -165 522 -165 q 669 -157 627 -165 l 652 -248 q 528 -262 585 -262 q 371 -204 426 -262 q 300 -11 316 -146 q 127 79 184 1 q 69 292 69 157 q 103 530 69 400 q 196 749 136 659 q 338 884 255 839 q 526 929 420 929 q 730 854 661 929 q 800 629 800 779 q 774 423 800 539 q 699 217 747 307 q 584 72 651 127 q 434 -3 517 16 m 663 619 q 506 823 663 823 q 349 756 414 823 q 245 551 284 688 q 206 302 206 414 q 363 92 206 92 q 482 127 431 92 q 573 238 534 162 q 638 426 613 314 q 663 619 663 538 z "},"R":{"ha":833,"x_min":39,"x_max":824,"o":"m 578 0 l 406 390 l 244 390 l 168 0 l 39 0 l 216 915 l 543 915 q 754 863 685 915 q 824 719 824 812 q 789 580 824 648 q 687 465 754 511 q 534 405 620 418 l 727 0 l 578 0 m 690 696 q 510 811 690 811 l 326 811 l 264 492 l 454 492 q 583 519 529 492 q 664 595 637 546 q 690 696 690 644 z "},"S":{"ha":833,"x_min":27,"x_max":809,"o":"m 340 -14 q 27 229 30 -14 l 157 254 q 210 128 159 168 q 363 87 262 87 q 535 129 471 87 q 614 249 599 171 l 617 279 q 596 342 617 317 q 539 385 576 368 q 397 429 503 402 q 261 475 298 456 q 201 515 224 493 q 166 566 178 538 q 155 632 155 595 q 179 748 155 690 q 252 846 203 805 q 370 908 300 888 q 526 929 440 929 q 737 878 671 929 q 809 709 803 827 l 677 687 q 635 797 676 762 q 507 831 593 831 q 287 687 316 831 l 284 659 q 300 607 284 627 q 343 573 316 587 q 406 549 370 559 q 482 528 442 539 q 649 470 603 496 q 722 406 696 444 q 749 309 749 368 q 721 181 749 243 q 641 76 693 119 q 513 10 588 33 q 340 -14 437 -14 z "},"T":{"ha":833,"x_min":138,"x_max":888,"o":"m 567 809 l 410 0 l 281 0 l 438 809 l 138 809 l 158 915 l 888 915 l 867 809 l 567 809 z "},"U":{"ha":833,"x_min":75,"x_max":842,"o":"m 336 -14 q 137 39 200 -14 q 75 204 75 92 q 87 320 75 256 l 203 915 l 332 915 l 220 338 q 207 222 207 269 q 241 122 207 153 q 356 92 275 92 q 520 147 465 92 q 603 347 574 203 l 713 915 l 842 915 l 729 332 q 601 69 694 152 q 336 -14 508 -14 z "},"V":{"ha":833,"x_min":113,"x_max":932,"o":"m 412 0 l 278 0 l 113 915 l 250 915 l 348 303 q 368 114 357 243 l 398 177 l 462 303 l 796 915 l 932 915 l 412 0 z "},"W":{"ha":833,"x_min":72,"x_max":939,"o":"m 619 0 l 478 0 l 456 293 q 446 513 453 333 q 390 383 424 458 q 213 0 357 307 l 72 0 l 106 915 l 235 915 l 199 349 q 176 114 190 237 q 266 322 231 246 q 410 631 300 398 l 528 631 q 551 343 543 444 q 562 114 559 242 l 631 349 l 811 915 l 939 915 l 619 0 z "},"X":{"ha":833,"x_min":-47,"x_max":888,"o":"m 456 567 l 749 915 l 888 915 l 508 478 l 738 0 l 599 0 l 420 389 l 92 0 l -47 0 l 369 478 l 159 915 l 298 915 l 456 567 z "},"Y":{"ha":833,"x_min":131,"x_max":915,"o":"m 409 0 l 281 0 l 359 396 l 131 915 l 270 915 l 443 500 l 776 915 l 915 915 l 486 396 l 409 0 z "},"Z":{"ha":833,"x_min":-22,"x_max":858,"o":"m 712 0 l -22 0 l -3 97 l 690 809 l 185 809 l 205 915 l 858 915 l 840 821 l 146 106 l 732 106 l 712 0 z "},"[":{"ha":833,"x_min":151,"x_max":773,"o":"m 151 -288 l 402 1006 l 773 1006 l 755 912 l 506 912 l 291 -194 l 540 -194 l 522 -288 l 151 -288 z "},"\\":{"ha":833,"x_min":202,"x_max":682,"o":"m 558 -14 l 202 1006 l 323 1006 l 682 -14 l 558 -14 z "},"]":{"ha":833,"x_min":56,"x_max":678,"o":"m 56 -288 l 74 -194 l 323 -194 l 538 912 l 289 912 l 307 1006 l 678 1006 l 427 -288 l 56 -288 z "},"^":{"ha":833,"x_min":77,"x_max":729,"o":"m 625 300 l 507 844 l 180 300 l 77 300 l 453 915 l 591 915 l 729 300 l 625 300 z "},"_":{"ha":833,"x_min":-104,"x_max":749,"o":"m -104 -149 l -91 -84 l 749 -84 l 736 -149 l -104 -149 z "},"`":{"ha":833,"x_min":390,"x_max":650,"o":"m 563 814 l 390 970 l 394 990 l 528 990 l 650 828 l 647 814 l 563 814 z "},"a":{"ha":833,"x_min":50,"x_max":731,"o":"m 690 75 q 731 80 709 75 l 716 4 q 620 -7 669 -7 q 536 19 561 -7 q 511 96 511 45 l 515 140 l 511 140 q 383 22 450 58 q 229 -14 315 -14 q 94 28 138 -14 q 50 144 50 71 q 56 205 50 172 q 410 445 102 441 l 570 448 q 584 517 582 503 q 585 548 585 532 q 554 630 585 606 q 460 654 523 654 q 341 628 382 654 q 280 538 301 601 l 155 549 q 272 699 191 650 q 480 747 352 747 q 711 566 711 747 q 704 500 711 536 l 643 184 q 637 133 637 155 q 649 90 637 104 q 690 75 661 75 m 278 79 q 399 110 342 79 q 493 193 455 141 q 542 302 531 245 l 554 362 l 425 359 q 282 335 333 358 q 206 268 232 313 q 180 170 180 222 q 204 104 180 128 q 278 79 229 79 z "},"b":{"ha":833,"x_min":50,"x_max":756,"o":"m 399 -14 q 197 111 234 -14 l 196 111 q 180 43 191 81 q 168 0 170 5 l 50 0 q 63 56 54 10 q 83 151 73 101 l 250 1006 l 372 1006 l 316 720 l 293 613 l 296 613 q 549 749 384 749 q 756 516 756 749 q 740 370 756 453 q 615 82 703 178 q 399 -14 528 -14 m 628 499 q 596 617 628 581 q 497 654 564 654 q 355 601 412 654 q 265 437 298 547 q 233 238 233 327 q 269 116 233 155 q 383 77 306 77 q 516 132 465 77 q 598 300 568 187 q 628 499 628 413 z "},"c":{"ha":833,"x_min":76,"x_max":762,"o":"m 503 747 q 694 689 625 747 q 762 528 762 630 l 631 519 l 631 523 q 595 616 631 581 q 479 652 559 652 q 329 604 388 652 q 237 451 270 556 q 204 252 204 346 q 245 122 204 163 q 367 81 286 81 q 495 117 440 81 q 576 227 551 153 l 704 218 q 632 100 682 153 q 509 17 581 47 q 354 -14 437 -14 q 146 54 216 -14 q 76 250 76 121 q 104 434 76 336 q 188 603 132 531 q 323 711 244 675 q 503 747 402 747 z "},"d":{"ha":833,"x_min":76,"x_max":831,"o":"m 536 118 q 428 15 490 47 q 285 -18 367 -18 q 127 39 178 -18 q 76 211 76 96 q 92 361 76 277 q 433 745 168 745 q 565 715 515 745 q 635 620 614 686 l 636 620 l 650 701 l 709 1006 l 831 1006 l 665 151 q 640 0 644 30 l 524 0 l 524 3 q 540 118 524 32 l 536 118 m 204 229 q 236 113 204 149 q 335 77 267 77 q 478 130 421 77 q 568 296 534 184 q 601 494 601 408 q 564 615 601 576 q 449 654 528 654 q 348 627 390 654 q 276 541 306 600 q 225 389 245 483 q 204 229 204 294 z "},"e":{"ha":833,"x_min":79,"x_max":754,"o":"m 214 341 q 205 259 205 294 q 247 125 205 172 q 366 78 290 78 q 494 108 435 78 q 581 191 553 138 l 682 160 q 548 31 635 76 q 349 -14 460 -14 q 148 55 217 -14 q 79 251 79 123 q 106 433 79 335 q 187 603 133 531 q 318 711 241 674 q 492 747 395 747 q 754 490 754 747 q 740 357 754 429 l 737 341 l 214 341 m 476 657 q 322 598 386 657 q 233 435 258 539 l 629 435 l 632 484 q 476 657 632 657 z "},"f":{"ha":833,"x_min":146,"x_max":867,"o":"m 446 637 l 322 0 l 200 0 l 324 637 l 146 637 l 165 734 l 342 734 l 346 751 q 449 948 373 889 q 679 1006 526 1006 q 782 1002 726 1006 q 867 992 838 998 l 848 894 q 766 901 828 897 q 673 905 703 905 q 564 890 602 905 q 502 839 525 874 q 465 734 478 803 l 798 734 l 779 637 l 446 637 z "},"g":{"ha":833,"x_min":54,"x_max":786,"o":"m 290 -288 q 116 -241 176 -288 q 54 -106 56 -194 l 182 -90 q 216 -168 183 -140 q 312 -195 250 -195 q 522 18 481 -195 l 547 150 l 546 150 q 286 8 450 8 q 131 61 180 8 q 81 222 81 115 q 109 420 81 307 q 180 604 136 534 q 290 710 225 674 q 442 745 355 745 q 568 710 519 745 q 635 608 618 674 l 637 608 q 654 681 642 633 q 670 734 667 728 l 786 734 l 773 678 l 753 582 l 644 22 q 527 -210 614 -132 q 290 -288 440 -288 m 602 473 q 563 606 602 558 q 455 654 525 654 q 351 628 394 654 q 279 545 309 602 q 229 396 249 489 q 209 241 209 302 q 240 132 209 166 q 345 98 272 98 q 447 127 399 98 q 530 211 494 157 q 583 339 565 266 q 602 473 602 413 z "},"h":{"ha":833,"x_min":54,"x_max":744,"o":"m 250 1006 l 372 1006 l 321 742 q 289 608 314 704 l 291 608 q 398 710 336 673 q 548 747 460 747 q 744 572 744 747 q 735 489 744 533 l 640 0 l 517 0 l 609 471 q 616 538 616 511 q 587 625 616 597 q 495 653 557 653 q 346 592 411 653 q 259 425 280 530 l 176 0 l 54 0 l 250 1006 z "},"i":{"ha":833,"x_min":26,"x_max":711,"o":"m 453 96 l 711 96 l 692 0 l 26 0 l 45 96 l 331 96 l 436 637 l 220 637 l 238 734 l 576 734 l 453 96 m 469 876 l 494 1006 l 629 1006 l 604 876 l 469 876 z "},"j":{"ha":833,"x_min":-42,"x_max":691,"o":"m 147 -288 q 40 -279 94 -288 q -42 -259 -13 -271 l -24 -164 q 157 -187 73 -187 q 298 -143 243 -187 q 370 -17 354 -98 l 498 637 l 222 637 l 240 734 l 638 734 l 492 -19 q 378 -217 468 -145 q 147 -288 288 -288 m 530 876 l 555 1006 l 691 1006 l 666 876 l 530 876 z "},"k":{"ha":833,"x_min":89,"x_max":819,"o":"m 549 0 l 366 338 l 264 272 l 211 0 l 89 0 l 284 1006 l 406 1006 l 284 378 l 675 734 l 819 734 l 460 418 l 692 0 l 549 0 z "},"l":{"ha":833,"x_min":20,"x_max":705,"o":"m 447 96 l 705 96 l 686 0 l 20 0 l 39 96 l 325 96 l 483 910 l 287 910 l 305 1006 l 623 1006 l 447 96 z "},"m":{"ha":833,"x_min":0,"x_max":801,"o":"m 289 0 l 379 465 q 394 581 394 540 q 380 637 394 621 q 338 653 367 653 q 256 589 296 653 q 195 412 217 526 l 115 0 l 0 0 l 112 577 q 121 626 117 600 q 129 674 125 651 q 136 713 133 696 q 138 734 138 729 l 239 734 l 227 648 l 220 615 l 222 615 q 302 718 260 688 q 394 747 343 747 q 477 715 454 747 q 500 618 500 683 l 500 614 l 501 614 q 586 717 543 686 q 687 747 630 747 q 774 716 747 747 q 801 617 801 685 q 786 489 801 566 l 691 0 l 577 0 l 667 465 q 682 581 682 540 q 669 637 682 621 q 627 653 655 653 q 545 596 583 653 q 486 425 507 538 l 403 0 l 289 0 z "},"n":{"ha":833,"x_min":54,"x_max":745,"o":"m 517 0 l 609 471 q 616 538 616 511 q 587 625 616 597 q 495 653 557 653 q 346 592 411 653 q 259 425 280 530 l 176 0 l 54 0 l 166 577 q 175 626 171 600 q 183 674 180 651 q 190 713 187 696 q 193 734 193 729 l 308 734 q 302 688 308 730 q 289 608 296 646 l 291 608 q 400 710 337 673 q 553 747 463 747 q 745 575 745 747 q 735 489 745 536 l 640 0 l 517 0 z "},"o":{"ha":833,"x_min":76,"x_max":758,"o":"m 339 -14 q 144 53 212 -14 q 76 249 76 120 q 88 368 76 302 q 230 652 125 557 q 491 747 334 747 q 692 685 626 747 q 758 496 758 623 q 729 303 758 405 q 646 130 701 202 q 513 22 591 58 q 339 -14 435 -14 m 629 488 q 592 615 629 573 q 475 657 555 657 q 327 605 386 657 q 236 449 269 553 q 204 253 204 345 q 355 77 204 77 q 472 105 424 77 q 555 192 520 133 q 610 338 590 251 q 629 488 629 425 z "},"p":{"ha":833,"x_min":-2,"x_max":757,"o":"m 399 -14 q 199 111 232 -14 l 196 111 q 191 73 196 104 q 121 -288 185 42 l -2 -288 l 168 582 q 193 734 186 674 l 311 734 q 305 677 311 720 q 295 613 299 634 l 298 613 q 405 716 345 684 q 548 749 464 749 q 757 521 757 749 q 740 370 757 456 q 399 -14 665 -14 m 629 504 q 599 616 629 577 q 498 654 569 654 q 386 626 432 654 q 307 537 340 597 q 253 388 273 477 q 233 237 233 298 q 269 116 233 155 q 384 77 306 77 q 515 130 463 77 q 598 301 567 182 q 629 504 629 420 z "},"q":{"ha":833,"x_min":76,"x_max":784,"o":"m 432 745 q 567 714 520 745 q 633 620 613 684 l 635 620 q 653 697 644 664 q 665 734 663 730 l 784 734 q 768 670 779 720 q 581 -288 758 620 l 458 -288 q 541 123 531 85 l 539 123 q 428 16 488 49 q 285 -18 368 -18 q 127 39 178 -18 q 76 211 76 96 q 92 361 76 277 q 432 745 167 745 m 600 492 q 564 615 600 575 q 449 654 528 654 q 317 601 370 654 q 235 433 265 547 q 205 232 205 318 q 236 115 205 154 q 335 77 267 77 q 478 131 421 77 q 567 294 534 185 q 600 492 600 402 z "},"r":{"ha":833,"x_min":128,"x_max":781,"o":"m 758 623 q 617 635 686 635 q 425 553 509 635 q 317 345 342 471 l 250 0 l 128 0 l 220 475 q 237 671 237 568 l 235 734 l 351 734 q 355 647 355 700 q 351 564 355 602 l 355 564 q 443 676 404 641 q 530 729 482 711 q 643 747 578 747 q 781 736 715 747 l 758 623 z "},"s":{"ha":833,"x_min":75,"x_max":741,"o":"m 347 -14 q 144 30 208 -14 q 75 168 79 73 l 186 189 q 226 103 189 130 q 365 77 264 77 q 520 115 468 77 q 572 214 572 152 q 544 269 572 247 q 452 309 516 292 l 373 330 q 247 375 283 355 q 191 424 211 395 q 171 494 171 452 q 193 591 171 543 q 258 675 216 640 q 361 727 300 709 q 496 745 422 745 q 679 700 616 745 q 741 569 741 654 l 629 555 l 629 559 q 593 630 629 606 q 479 654 558 654 q 338 622 385 654 q 290 532 290 589 q 314 480 290 500 q 397 446 338 460 q 586 389 547 406 q 649 348 625 371 q 683 302 673 326 q 692 248 692 278 q 650 116 692 178 q 528 20 607 53 q 347 -14 450 -14 z "},"t":{"ha":833,"x_min":182,"x_max":729,"o":"m 182 637 l 200 734 l 315 734 l 392 925 l 473 925 l 436 734 l 729 734 l 711 637 l 418 637 l 332 195 l 328 165 q 354 109 328 127 q 435 90 380 90 q 640 113 525 90 l 623 20 q 389 -11 503 -11 q 248 23 295 -11 q 201 128 201 56 q 207 182 201 159 l 296 637 l 182 637 z "},"u":{"ha":833,"x_min":92,"x_max":783,"o":"m 319 734 l 229 269 q 219 185 219 220 q 248 104 219 128 q 344 81 277 81 q 495 142 433 81 q 577 309 557 203 l 660 734 l 783 734 l 671 157 q 662 108 666 134 q 653 60 657 83 q 647 21 650 37 q 644 0 644 5 l 529 0 q 536 53 529 7 q 548 125 543 98 l 546 125 q 427 18 490 50 q 284 -14 364 -14 q 138 26 185 -14 q 92 151 92 65 q 102 245 92 192 l 197 734 l 319 734 z "},"v":{"ha":833,"x_min":118,"x_max":857,"o":"m 414 0 l 269 0 l 118 734 l 255 734 l 344 256 q 357 132 350 210 l 359 96 l 377 132 q 441 255 403 186 l 721 734 l 857 734 l 414 0 z "},"w":{"ha":833,"x_min":67,"x_max":890,"o":"m 619 0 l 481 0 l 446 319 l 434 456 l 389 362 l 205 0 l 67 0 l 85 734 l 206 734 l 189 322 q 181 204 188 283 q 169 101 174 124 l 195 159 l 237 246 l 384 534 l 515 534 l 547 245 l 556 101 q 567 144 559 119 q 623 322 574 170 l 771 734 l 890 734 l 619 0 z "},"x":{"ha":833,"x_min":-7,"x_max":824,"o":"m 561 0 l 401 301 l 124 0 l -7 0 l 347 377 l 147 734 l 282 734 l 430 448 l 688 734 l 824 734 l 486 378 l 697 0 l 561 0 z "},"y":{"ha":833,"x_min":-12,"x_max":859,"o":"m 71 -288 q -12 -281 22 -288 l 6 -189 q 62 -193 31 -193 q 171 -153 116 -193 q 275 -26 226 -113 l 294 7 l 116 734 l 246 734 l 341 298 q 361 201 349 265 q 374 126 374 137 q 416 201 380 141 l 730 734 l 859 734 l 407 0 q 236 -226 312 -164 q 71 -288 159 -288 z "},"z":{"ha":833,"x_min":28,"x_max":770,"o":"m 28 0 l 47 93 l 614 640 l 180 640 l 198 734 l 770 734 l 753 641 l 184 94 l 671 94 l 653 0 l 28 0 z "},"{":{"ha":833,"x_min":144,"x_max":844,"o":"m 412 -288 q 293 -247 338 -288 q 248 -131 248 -205 q 253 -83 248 -105 l 300 155 l 303 189 q 261 277 303 245 q 144 313 220 309 l 161 406 q 308 451 251 409 q 378 562 366 492 l 425 801 q 509 951 444 895 q 664 1006 574 1006 l 844 1006 l 825 912 l 681 912 q 585 881 618 912 q 540 780 553 850 l 494 545 q 428 429 481 479 q 301 361 375 378 l 301 359 q 391 306 357 345 q 425 210 425 266 q 422 174 425 189 l 376 -62 q 370 -112 370 -90 q 393 -175 370 -156 q 466 -194 416 -194 l 610 -194 l 592 -288 l 412 -288 z "},"|":{"ha":833,"x_min":360,"x_max":473,"o":"m 360 -288 l 360 1006 l 473 1006 l 473 -288 l 360 -288 z "},"}":{"ha":833,"x_min":-14,"x_max":686,"o":"m -14 -288 l 4 -194 l 149 -194 q 244 -164 210 -194 q 291 -62 277 -134 l 337 174 q 404 293 350 243 q 529 359 457 344 l 529 361 q 439 416 472 376 q 406 510 406 457 l 409 545 l 455 780 q 460 830 460 808 q 437 893 460 875 q 363 912 413 912 l 219 912 l 237 1006 l 417 1006 q 538 965 494 1006 q 582 850 582 924 q 577 801 582 825 l 530 562 l 527 529 q 568 441 527 474 q 686 406 608 409 l 669 313 q 523 269 580 309 q 452 155 466 228 l 405 -83 q 321 -231 388 -173 q 165 -288 255 -288 l -14 -288 z "},"~":{"ha":833,"x_min":79,"x_max":791,"o":"m 287 547 q 391 532 342 547 q 487 498 441 516 q 614 468 568 468 q 791 530 703 468 l 772 429 q 681 387 722 399 q 585 375 641 375 q 492 390 538 375 q 399 422 446 405 q 258 453 318 453 q 172 439 213 453 q 79 393 130 426 l 98 490 q 287 547 183 547 z "},"Ä":{"ha":833,"x_min":-71,"x_max":762,"o":"m 630 0 l 587 259 l 205 259 l 62 0 l -71 0 l 452 915 l 600 915 l 762 0 l 630 0 m 505 817 q 449 708 474 755 q 259 360 425 661 l 573 360 l 522 699 l 505 817 m 614 980 l 638 1105 l 749 1105 l 724 980 l 614 980 m 347 980 l 371 1105 l 483 1105 l 458 980 l 347 980 z "},"Å":{"ha":833,"x_min":-71,"x_max":762,"o":"m 630 0 l 587 259 l 205 259 l 62 0 l -71 0 l 452 915 l 600 915 l 762 0 l 630 0 m 505 817 q 449 708 474 755 q 259 360 425 661 l 573 360 l 522 699 l 505 817 m 510 836 q 407 866 445 836 q 370 946 370 895 q 393 1025 370 986 q 462 1085 417 1063 q 563 1107 507 1107 q 665 1078 627 1107 q 703 998 703 1050 q 678 917 703 955 q 609 857 653 878 q 510 836 565 836 m 619 981 q 600 1016 619 1003 q 547 1028 580 1028 q 479 1009 505 1028 q 453 963 453 990 q 472 928 453 941 q 526 915 491 915 q 594 935 568 915 q 619 981 619 954 z "},"Ç":{"ha":833,"x_min":79,"x_max":821,"o":"m 214 307 q 395 92 214 92 q 530 140 465 92 q 650 283 596 189 l 749 239 q 373 -14 598 -14 q 154 67 229 -14 q 79 303 79 147 q 114 544 79 415 q 209 758 149 673 q 355 886 269 842 q 549 929 440 929 q 821 702 777 929 l 699 658 q 642 781 687 739 q 530 823 597 823 q 401 789 456 823 q 306 684 346 754 q 240 504 267 614 q 214 307 214 393 m 252 -301 q 191 -298 214 -301 l 205 -232 q 262 -236 237 -236 q 373 -178 361 -236 l 374 -165 q 294 -122 374 -122 q 255 -123 264 -122 l 323 0 l 395 0 l 356 -68 q 438 -91 411 -69 q 465 -151 465 -113 q 443 -227 465 -191 q 373 -282 420 -264 q 252 -301 326 -301 z "},"É":{"ha":833,"x_min":39,"x_max":840,"o":"m 39 0 l 216 915 l 840 915 l 819 809 l 326 809 l 270 523 l 723 523 l 703 418 l 250 418 l 189 106 l 710 106 l 690 0 l 39 0 m 453 980 l 456 994 l 642 1156 l 775 1156 l 771 1136 l 537 980 l 453 980 z "},"Ñ":{"ha":833,"x_min":39,"x_max":829,"o":"m 496 0 l 292 766 q 269 594 282 657 l 154 0 l 39 0 l 216 915 l 367 915 l 575 143 q 599 329 583 248 l 713 915 l 829 915 l 652 0 l 496 0 m 642 981 q 587 993 613 981 q 537 1021 562 1006 q 489 1049 513 1036 q 442 1061 466 1061 q 401 1045 417 1061 q 368 981 385 1029 l 292 981 q 362 1111 321 1074 q 463 1149 404 1149 q 519 1136 493 1149 q 569 1108 545 1124 q 616 1081 593 1093 q 661 1068 639 1068 q 705 1087 688 1068 q 736 1149 722 1105 l 812 1149 q 769 1050 791 1083 q 715 999 747 1017 q 642 981 684 981 z "},"Ö":{"ha":833,"x_min":69,"x_max":800,"o":"m 342 -14 q 137 65 205 -14 q 69 292 69 144 q 103 530 69 400 q 196 749 136 659 q 338 884 255 839 q 526 929 420 929 q 730 854 661 929 q 800 629 800 779 q 767 395 800 524 q 673 173 734 265 q 528 33 612 80 q 342 -14 444 -14 m 663 619 q 506 823 663 823 q 349 756 414 823 q 245 551 284 688 q 206 302 206 414 q 363 92 206 92 q 482 127 431 92 q 573 238 534 162 q 638 426 613 314 q 663 619 663 538 m 616 980 l 640 1105 l 751 1105 l 726 980 l 616 980 m 349 980 l 373 1105 l 485 1105 l 460 980 l 349 980 z "},"Ü":{"ha":833,"x_min":75,"x_max":842,"o":"m 336 -14 q 137 39 200 -14 q 75 204 75 92 q 87 320 75 256 l 203 915 l 332 915 l 220 338 q 207 222 207 269 q 241 122 207 153 q 356 92 275 92 q 520 147 465 92 q 603 347 574 203 l 713 915 l 842 915 l 729 332 q 601 69 694 152 q 336 -14 508 -14 m 614 980 l 638 1105 l 749 1105 l 724 980 l 614 980 m 347 980 l 371 1105 l 483 1105 l 458 980 l 347 980 z "},"á":{"ha":833,"x_min":50,"x_max":734,"o":"m 690 75 q 731 80 709 75 l 716 4 q 620 -7 669 -7 q 536 19 561 -7 q 511 96 511 45 l 515 140 l 511 140 q 383 22 450 58 q 229 -14 315 -14 q 94 28 138 -14 q 50 144 50 71 q 56 205 50 172 q 410 445 102 441 l 570 448 q 584 517 582 503 q 585 548 585 532 q 554 630 585 606 q 460 654 523 654 q 341 628 382 654 q 280 538 301 601 l 155 549 q 272 699 191 650 q 480 747 352 747 q 711 566 711 747 q 704 500 711 536 l 643 184 q 637 133 637 155 q 649 90 637 104 q 690 75 661 75 m 278 79 q 399 110 342 79 q 493 193 455 141 q 542 302 531 245 l 554 362 l 425 359 q 282 335 333 358 q 206 268 232 313 q 180 170 180 222 q 204 104 180 128 q 278 79 229 79 m 412 814 l 414 828 l 600 990 l 734 990 l 730 970 l 496 814 l 412 814 z "},"à":{"ha":833,"x_min":50,"x_max":731,"o":"m 690 75 q 731 80 709 75 l 716 4 q 620 -7 669 -7 q 536 19 561 -7 q 511 96 511 45 l 515 140 l 511 140 q 383 22 450 58 q 229 -14 315 -14 q 94 28 138 -14 q 50 144 50 71 q 56 205 50 172 q 410 445 102 441 l 570 448 q 584 517 582 503 q 585 548 585 532 q 554 630 585 606 q 460 654 523 654 q 341 628 382 654 q 280 538 301 601 l 155 549 q 272 699 191 650 q 480 747 352 747 q 711 566 711 747 q 704 500 711 536 l 643 184 q 637 133 637 155 q 649 90 637 104 q 690 75 661 75 m 278 79 q 399 110 342 79 q 493 193 455 141 q 542 302 531 245 l 554 362 l 425 359 q 282 335 333 358 q 206 268 232 313 q 180 170 180 222 q 204 104 180 128 q 278 79 229 79 m 486 814 l 313 970 l 317 990 l 450 990 l 572 828 l 570 814 l 486 814 z "},"â":{"ha":833,"x_min":50,"x_max":731,"o":"m 690 75 q 731 80 709 75 l 716 4 q 620 -7 669 -7 q 536 19 561 -7 q 511 96 511 45 l 515 140 l 511 140 q 383 22 450 58 q 229 -14 315 -14 q 94 28 138 -14 q 50 144 50 71 q 56 205 50 172 q 410 445 102 441 l 570 448 q 584 517 582 503 q 585 548 585 532 q 554 630 585 606 q 460 654 523 654 q 341 628 382 654 q 280 538 301 601 l 155 549 q 272 699 191 650 q 480 747 352 747 q 711 566 711 747 q 704 500 711 536 l 643 184 q 637 133 637 155 q 649 90 637 104 q 690 75 661 75 m 278 79 q 399 110 342 79 q 493 193 455 141 q 542 302 531 245 l 554 362 l 425 359 q 282 335 333 358 q 206 268 232 313 q 180 170 180 222 q 204 104 180 128 q 278 79 229 79 m 718 828 l 715 814 l 644 814 l 514 908 l 513 908 l 337 814 l 267 814 l 269 828 l 473 990 l 585 990 l 718 828 z "},"ä":{"ha":833,"x_min":50,"x_max":731,"o":"m 690 75 q 731 80 709 75 l 716 4 q 620 -7 669 -7 q 536 19 561 -7 q 511 96 511 45 l 515 140 l 511 140 q 383 22 450 58 q 229 -14 315 -14 q 94 28 138 -14 q 50 144 50 71 q 56 205 50 172 q 410 445 102 441 l 570 448 q 584 517 582 503 q 585 548 585 532 q 554 630 585 606 q 460 654 523 654 q 341 628 382 654 q 280 538 301 601 l 155 549 q 272 699 191 650 q 480 747 352 747 q 711 566 711 747 q 704 500 711 536 l 643 184 q 637 133 637 155 q 649 90 637 104 q 690 75 661 75 m 278 79 q 399 110 342 79 q 493 193 455 141 q 542 302 531 245 l 554 362 l 425 359 q 282 335 333 358 q 206 268 232 313 q 180 170 180 222 q 204 104 180 128 q 278 79 229 79 m 573 827 l 597 951 l 708 951 l 684 827 l 573 827 m 306 827 l 330 951 l 442 951 l 418 827 l 306 827 z "},"ã":{"ha":833,"x_min":50,"x_max":774,"o":"m 690 75 q 731 80 709 75 l 716 4 q 620 -7 669 -7 q 536 19 561 -7 q 511 96 511 45 l 515 140 l 511 140 q 383 22 450 58 q 229 -14 315 -14 q 94 28 138 -14 q 50 144 50 71 q 56 205 50 172 q 410 445 102 441 l 570 448 q 584 517 582 503 q 585 548 585 532 q 554 630 585 606 q 460 654 523 654 q 341 628 382 654 q 280 538 301 601 l 155 549 q 272 699 191 650 q 480 747 352 747 q 711 566 711 747 q 704 500 711 536 l 643 184 q 637 133 637 155 q 649 90 637 104 q 690 75 661 75 m 278 79 q 399 110 342 79 q 493 193 455 141 q 542 302 531 245 l 554 362 l 425 359 q 282 335 333 358 q 206 268 232 313 q 180 170 180 222 q 204 104 180 128 q 278 79 229 79 m 604 814 q 549 827 575 814 q 499 855 524 840 q 451 883 475 870 q 404 895 428 895 q 363 879 379 895 q 330 814 347 863 l 254 814 q 325 945 283 907 q 425 983 366 983 q 481 970 455 983 q 531 942 507 958 q 578 915 555 927 q 623 902 601 902 q 667 921 650 902 q 698 983 684 939 l 774 983 q 731 884 753 917 q 677 833 709 851 q 604 814 646 814 z "},"å":{"ha":833,"x_min":50,"x_max":731,"o":"m 690 75 q 731 80 709 75 l 716 4 q 620 -7 669 -7 q 536 19 561 -7 q 511 96 511 45 l 515 140 l 511 140 q 383 22 450 58 q 229 -14 315 -14 q 94 28 138 -14 q 50 144 50 71 q 56 205 50 172 q 410 445 102 441 l 570 448 q 584 517 582 503 q 585 548 585 532 q 554 630 585 606 q 460 654 523 654 q 341 628 382 654 q 280 538 301 601 l 155 549 q 272 699 191 650 q 480 747 352 747 q 711 566 711 747 q 704 500 711 536 l 643 184 q 637 133 637 155 q 649 90 637 104 q 690 75 661 75 m 278 79 q 399 110 342 79 q 493 193 455 141 q 542 302 531 245 l 554 362 l 425 359 q 282 335 333 358 q 206 268 232 313 q 180 170 180 222 q 204 104 180 128 q 278 79 229 79 m 491 779 q 388 808 426 779 q 351 888 351 838 q 374 967 351 928 q 443 1027 398 1006 q 544 1049 488 1049 q 646 1021 608 1049 q 684 940 684 992 q 659 859 684 897 q 590 800 634 821 q 491 779 546 779 m 600 924 q 581 958 600 945 q 528 970 561 970 q 460 951 486 970 q 434 905 434 932 q 453 870 434 883 q 507 857 472 857 q 575 877 549 857 q 600 924 600 897 z "},"ç":{"ha":833,"x_min":76,"x_max":762,"o":"m 503 747 q 694 689 625 747 q 762 528 762 630 l 631 519 l 631 523 q 595 616 631 581 q 479 652 559 652 q 329 604 388 652 q 237 451 270 556 q 204 252 204 346 q 245 122 204 163 q 367 81 286 81 q 495 117 440 81 q 576 227 551 153 l 704 218 q 632 100 682 153 q 509 17 581 47 q 354 -14 437 -14 q 146 54 216 -14 q 76 250 76 121 q 104 434 76 336 q 188 603 132 531 q 323 711 244 675 q 503 747 402 747 m 241 -301 q 180 -298 202 -301 l 193 -232 q 250 -236 226 -236 q 361 -178 349 -236 l 363 -165 q 282 -122 363 -122 q 243 -123 253 -122 l 311 0 l 384 0 l 345 -68 q 427 -91 399 -69 q 454 -151 454 -113 q 431 -227 454 -191 q 361 -282 408 -264 q 241 -301 314 -301 z "},"é":{"ha":833,"x_min":79,"x_max":757,"o":"m 214 341 q 205 259 205 294 q 247 125 205 172 q 366 78 290 78 q 494 108 435 78 q 581 191 553 138 l 682 160 q 548 31 635 76 q 349 -14 460 -14 q 148 55 217 -14 q 79 251 79 123 q 106 433 79 335 q 187 603 133 531 q 318 711 241 674 q 492 747 395 747 q 754 490 754 747 q 740 357 754 429 l 737 341 l 214 341 m 476 657 q 322 598 386 657 q 233 435 258 539 l 629 435 l 632 484 q 476 657 632 657 m 435 814 l 437 828 l 623 990 l 757 990 l 753 970 l 519 814 l 435 814 z "},"è":{"ha":833,"x_min":79,"x_max":754,"o":"m 214 341 q 205 259 205 294 q 247 125 205 172 q 366 78 290 78 q 494 108 435 78 q 581 191 553 138 l 682 160 q 548 31 635 76 q 349 -14 460 -14 q 148 55 217 -14 q 79 251 79 123 q 106 433 79 335 q 187 603 133 531 q 318 711 241 674 q 492 747 395 747 q 754 490 754 747 q 740 357 754 429 l 737 341 l 214 341 m 476 657 q 322 598 386 657 q 233 435 258 539 l 629 435 l 632 484 q 476 657 632 657 m 509 814 l 336 970 l 340 990 l 474 990 l 596 828 l 593 814 l 509 814 z "},"ê":{"ha":833,"x_min":79,"x_max":754,"o":"m 214 341 q 205 259 205 294 q 247 125 205 172 q 366 78 290 78 q 494 108 435 78 q 581 191 553 138 l 682 160 q 548 31 635 76 q 349 -14 460 -14 q 148 55 217 -14 q 79 251 79 123 q 106 433 79 335 q 187 603 133 531 q 318 711 241 674 q 492 747 395 747 q 754 490 754 747 q 740 357 754 429 l 737 341 l 214 341 m 476 657 q 322 598 386 657 q 233 435 258 539 l 629 435 l 632 484 q 476 657 632 657 m 735 828 l 732 814 l 661 814 l 531 908 l 530 908 l 354 814 l 283 814 l 286 828 l 490 990 l 602 990 l 735 828 z "},"ë":{"ha":833,"x_min":79,"x_max":754,"o":"m 214 341 q 205 259 205 294 q 247 125 205 172 q 366 78 290 78 q 494 108 435 78 q 581 191 553 138 l 682 160 q 548 31 635 76 q 349 -14 460 -14 q 148 55 217 -14 q 79 251 79 123 q 106 433 79 335 q 187 603 133 531 q 318 711 241 674 q 492 747 395 747 q 754 490 754 747 q 740 357 754 429 l 737 341 l 214 341 m 476 657 q 322 598 386 657 q 233 435 258 539 l 629 435 l 632 484 q 476 657 632 657 m 589 827 l 614 951 l 724 951 l 700 827 l 589 827 m 322 827 l 347 951 l 458 951 l 434 827 l 322 827 z "},"í":{"ha":833,"x_min":26,"x_max":752,"o":"m 453 96 l 711 96 l 692 0 l 26 0 l 45 96 l 331 96 l 436 637 l 220 637 l 238 734 l 576 734 l 453 96 m 430 814 l 433 828 l 618 990 l 752 990 l 748 970 l 514 814 l 430 814 z "},"ì":{"ha":833,"x_min":26,"x_max":711,"o":"m 453 96 l 711 96 l 692 0 l 26 0 l 45 96 l 331 96 l 436 637 l 220 637 l 238 734 l 576 734 l 453 96 m 517 814 l 345 970 l 349 990 l 482 990 l 604 828 l 602 814 l 517 814 z "},"î":{"ha":833,"x_min":26,"x_max":737,"o":"m 453 96 l 711 96 l 692 0 l 26 0 l 45 96 l 331 96 l 436 637 l 220 637 l 238 734 l 576 734 l 453 96 m 737 828 l 734 814 l 663 814 l 533 908 l 532 908 l 356 814 l 286 814 l 288 828 l 492 990 l 604 990 l 737 828 z "},"ï":{"ha":833,"x_min":26,"x_max":747,"o":"m 453 96 l 711 96 l 692 0 l 26 0 l 45 96 l 331 96 l 436 637 l 220 637 l 238 734 l 576 734 l 453 96 m 612 827 l 636 951 l 747 951 l 722 827 l 612 827 m 345 827 l 369 951 l 481 951 l 456 827 l 345 827 z "},"ñ":{"ha":833,"x_min":54,"x_max":786,"o":"m 517 0 l 609 471 q 616 538 616 511 q 587 625 616 597 q 495 653 557 653 q 346 592 411 653 q 259 425 280 530 l 176 0 l 54 0 l 166 577 q 175 626 171 600 q 183 674 180 651 q 190 713 187 696 q 193 734 193 729 l 308 734 q 302 688 308 730 q 289 608 296 646 l 291 608 q 400 710 337 673 q 553 747 463 747 q 745 575 745 747 q 735 489 745 536 l 640 0 l 517 0 m 616 814 q 562 827 587 814 q 511 855 536 840 q 464 883 487 870 q 416 895 440 895 q 375 879 391 895 q 342 814 359 863 l 267 814 q 337 945 295 907 q 437 983 378 983 q 493 970 467 983 q 544 942 519 958 q 590 915 568 927 q 635 902 613 902 q 680 921 663 902 q 710 983 696 939 l 786 983 q 743 884 765 917 q 690 833 721 851 q 616 814 659 814 z "},"ó":{"ha":833,"x_min":76,"x_max":758,"o":"m 339 -14 q 144 53 212 -14 q 76 249 76 120 q 88 368 76 302 q 230 652 125 557 q 491 747 334 747 q 692 685 626 747 q 758 496 758 623 q 729 303 758 405 q 646 130 701 202 q 513 22 591 58 q 339 -14 435 -14 m 629 488 q 592 615 629 573 q 475 657 555 657 q 327 605 386 657 q 236 449 269 553 q 204 253 204 345 q 355 77 204 77 q 472 105 424 77 q 555 192 520 133 q 610 338 590 251 q 629 488 629 425 m 428 814 l 431 828 l 616 990 l 750 990 l 746 970 l 512 814 l 428 814 z "},"ò":{"ha":833,"x_min":76,"x_max":758,"o":"m 339 -14 q 144 53 212 -14 q 76 249 76 120 q 88 368 76 302 q 230 652 125 557 q 491 747 334 747 q 692 685 626 747 q 758 496 758 623 q 729 303 758 405 q 646 130 701 202 q 513 22 591 58 q 339 -14 435 -14 m 629 488 q 592 615 629 573 q 475 657 555 657 q 327 605 386 657 q 236 449 269 553 q 204 253 204 345 q 355 77 204 77 q 472 105 424 77 q 555 192 520 133 q 610 338 590 251 q 629 488 629 425 m 515 814 l 342 970 l 347 990 l 480 990 l 602 828 l 600 814 l 515 814 z "},"ô":{"ha":833,"x_min":76,"x_max":758,"o":"m 339 -14 q 144 53 212 -14 q 76 249 76 120 q 88 368 76 302 q 230 652 125 557 q 491 747 334 747 q 692 685 626 747 q 758 496 758 623 q 729 303 758 405 q 646 130 701 202 q 513 22 591 58 q 339 -14 435 -14 m 629 488 q 592 615 629 573 q 475 657 555 657 q 327 605 386 657 q 236 449 269 553 q 204 253 204 345 q 355 77 204 77 q 472 105 424 77 q 555 192 520 133 q 610 338 590 251 q 629 488 629 425 m 730 828 l 728 814 l 656 814 l 526 908 l 525 908 l 349 814 l 279 814 l 281 828 l 486 990 l 597 990 l 730 828 z "},"ö":{"ha":833,"x_min":76,"x_max":758,"o":"m 339 -14 q 144 53 212 -14 q 76 249 76 120 q 88 368 76 302 q 230 652 125 557 q 491 747 334 747 q 692 685 626 747 q 758 496 758 623 q 729 303 758 405 q 646 130 701 202 q 513 22 591 58 q 339 -14 435 -14 m 629 488 q 592 615 629 573 q 475 657 555 657 q 327 605 386 657 q 236 449 269 553 q 204 253 204 345 q 355 77 204 77 q 472 105 424 77 q 555 192 520 133 q 610 338 590 251 q 629 488 629 425 m 584 827 l 608 951 l 719 951 l 694 827 l 584 827 m 317 827 l 341 951 l 453 951 l 429 827 l 317 827 z "},"õ":{"ha":833,"x_min":76,"x_max":779,"o":"m 339 -14 q 144 53 212 -14 q 76 249 76 120 q 88 368 76 302 q 230 652 125 557 q 491 747 334 747 q 692 685 626 747 q 758 496 758 623 q 729 303 758 405 q 646 130 701 202 q 513 22 591 58 q 339 -14 435 -14 m 629 488 q 592 615 629 573 q 475 657 555 657 q 327 605 386 657 q 236 449 269 553 q 204 253 204 345 q 355 77 204 77 q 472 105 424 77 q 555 192 520 133 q 610 338 590 251 q 629 488 629 425 m 609 814 q 555 827 581 814 q 505 855 529 840 q 457 883 480 870 q 410 895 433 895 q 368 879 385 895 q 335 814 352 863 l 260 814 q 330 945 288 907 q 431 983 372 983 q 487 970 460 983 q 537 942 513 958 q 584 915 561 927 q 629 902 606 902 q 673 921 656 902 q 703 983 690 939 l 779 983 q 736 884 758 917 q 683 833 714 851 q 609 814 652 814 z "},"ú":{"ha":833,"x_min":92,"x_max":783,"o":"m 319 734 l 229 269 q 219 185 219 220 q 248 104 219 128 q 344 81 277 81 q 495 142 433 81 q 577 309 557 203 l 660 734 l 783 734 l 671 157 q 662 108 666 134 q 653 60 657 83 q 647 21 650 37 q 644 0 644 5 l 529 0 q 536 53 529 7 q 548 125 543 98 l 546 125 q 427 18 490 50 q 284 -14 364 -14 q 138 26 185 -14 q 92 151 92 65 q 102 245 92 192 l 197 734 l 319 734 m 420 814 l 423 828 l 609 990 l 743 990 l 739 970 l 505 814 l 420 814 z "},"ù":{"ha":833,"x_min":92,"x_max":783,"o":"m 319 734 l 229 269 q 219 185 219 220 q 248 104 219 128 q 344 81 277 81 q 495 142 433 81 q 577 309 557 203 l 660 734 l 783 734 l 671 157 q 662 108 666 134 q 653 60 657 83 q 647 21 650 37 q 644 0 644 5 l 529 0 q 536 53 529 7 q 548 125 543 98 l 546 125 q 427 18 490 50 q 284 -14 364 -14 q 138 26 185 -14 q 92 151 92 65 q 102 245 92 192 l 197 734 l 319 734 m 499 814 l 326 970 l 330 990 l 464 990 l 586 828 l 583 814 l 499 814 z "},"û":{"ha":833,"x_min":92,"x_max":783,"o":"m 319 734 l 229 269 q 219 185 219 220 q 248 104 219 128 q 344 81 277 81 q 495 142 433 81 q 577 309 557 203 l 660 734 l 783 734 l 671 157 q 662 108 666 134 q 653 60 657 83 q 647 21 650 37 q 644 0 644 5 l 529 0 q 536 53 529 7 q 548 125 543 98 l 546 125 q 427 18 490 50 q 284 -14 364 -14 q 138 26 185 -14 q 92 151 92 65 q 102 245 92 192 l 197 734 l 319 734 m 730 828 l 728 814 l 656 814 l 526 908 l 525 908 l 349 814 l 279 814 l 281 828 l 486 990 l 597 990 l 730 828 z "},"ü":{"ha":833,"x_min":92,"x_max":783,"o":"m 319 734 l 229 269 q 219 185 219 220 q 248 104 219 128 q 344 81 277 81 q 495 142 433 81 q 577 309 557 203 l 660 734 l 783 734 l 671 157 q 662 108 666 134 q 653 60 657 83 q 647 21 650 37 q 644 0 644 5 l 529 0 q 536 53 529 7 q 548 125 543 98 l 546 125 q 427 18 490 50 q 284 -14 364 -14 q 138 26 185 -14 q 92 151 92 65 q 102 245 92 192 l 197 734 l 319 734 m 584 827 l 608 951 l 719 951 l 694 827 l 584 827 m 317 827 l 341 951 l 453 951 l 429 827 l 317 827 z "},"†":{"ha":833,"x_min":180,"x_max":788,"o":"m 524 671 l 356 -144 l 278 -144 l 427 671 l 180 659 l 202 770 l 444 758 l 474 1006 l 606 1006 l 541 758 l 788 770 l 766 659 l 524 671 z "},"°":{"ha":833,"x_min":222,"x_max":611,"o":"m 611 736 q 554 599 611 655 q 416 543 496 543 q 279 600 336 543 q 222 736 222 656 q 278 872 222 815 q 416 929 335 929 q 554 873 498 929 q 611 736 611 817 m 537 736 q 502 823 537 787 q 416 858 467 858 q 331 822 366 858 q 296 736 296 786 q 331 650 296 686 q 416 614 367 614 q 502 649 467 614 q 537 736 537 685 z "},"¢":{"ha":833,"x_min":96,"x_max":782,"o":"m 395 182 q 528 219 471 182 q 611 330 585 256 l 733 321 q 616 163 701 226 q 420 91 531 100 l 394 -41 l 307 -41 l 333 91 q 157 165 218 100 q 96 346 96 230 q 123 513 96 426 q 200 664 150 600 q 319 766 250 728 q 473 810 389 804 l 497 935 l 584 935 l 559 810 q 722 745 663 802 q 782 592 781 688 l 654 583 q 614 684 654 650 q 498 718 574 718 q 384 693 434 718 q 297 618 334 668 q 241 497 261 569 q 222 363 222 426 q 266 228 222 273 q 395 182 311 182 z "},"£":{"ha":833,"x_min":-33,"x_max":801,"o":"m 755 163 q 564 0 690 0 l -33 0 l -13 104 q 81 161 52 135 q 130 225 111 187 q 161 319 150 264 l 180 415 l 54 415 l 73 511 l 199 511 l 227 661 q 339 861 253 793 q 566 929 426 929 q 731 888 670 929 q 801 773 792 846 l 675 734 q 633 799 669 777 q 545 821 597 821 q 414 782 462 821 q 349 658 366 743 l 321 511 l 597 511 l 578 415 l 302 415 l 283 321 q 231 183 265 231 q 137 107 197 136 l 544 107 q 607 125 584 107 q 644 179 629 143 l 755 163 z "},"§":{"ha":833,"x_min":50,"x_max":799,"o":"m 553 1006 q 734 961 670 1006 q 799 830 798 916 l 687 817 l 687 820 q 648 898 687 871 q 537 925 610 925 q 393 889 445 925 q 342 798 342 852 q 379 733 342 761 q 522 680 416 706 q 654 634 610 658 q 722 578 698 610 q 747 500 747 545 q 723 406 747 454 q 655 325 699 359 q 559 280 612 292 q 644 219 616 253 q 672 136 672 184 q 648 39 672 87 q 579 -45 625 -10 q 471 -98 534 -80 q 328 -117 407 -117 q 121 -72 187 -117 q 50 68 56 -28 l 163 89 q 208 -6 165 24 q 343 -35 250 -35 q 501 5 442 -35 q 559 109 559 45 q 541 163 559 140 q 486 202 522 185 q 357 243 450 218 q 147 420 147 291 q 201 552 147 492 q 340 636 255 613 q 260 691 290 654 q 231 777 231 728 q 269 893 231 838 q 379 977 308 948 q 553 1006 450 1006 m 635 469 q 594 541 635 511 q 448 597 553 572 q 350 573 394 594 q 283 516 307 552 q 259 444 259 480 q 276 397 259 418 q 326 359 292 376 q 436 322 359 342 q 539 342 494 323 q 609 394 584 360 q 635 469 635 429 z "},"•":{"ha":833,"x_min":243,"x_max":627,"o":"m 395 272 q 287 315 330 272 q 243 425 243 358 q 276 536 243 484 q 361 618 308 587 q 469 648 414 648 q 582 605 538 648 q 627 497 627 562 q 592 386 627 439 q 504 303 558 334 q 395 272 450 272 z "},"¶":{"ha":833,"x_min":139,"x_max":839,"o":"m 736 832 l 531 -220 l 441 -220 l 646 832 l 513 832 l 308 -220 l 218 -220 l 344 430 q 192 477 245 430 q 139 609 139 524 q 178 764 139 691 q 286 876 216 837 q 444 915 355 915 l 839 915 l 823 832 l 736 832 z "},"ß":{"ha":833,"x_min":25,"x_max":783,"o":"m 473 -20 q 288 14 359 -20 l 309 125 q 393 90 343 102 q 490 78 444 78 q 602 120 560 78 q 644 222 644 161 q 623 287 644 258 q 550 352 602 317 q 479 419 503 385 q 456 496 456 453 q 460 532 456 513 q 562 672 475 610 q 632 734 610 707 q 661 795 655 762 l 663 815 q 624 885 663 859 q 519 911 585 911 q 361 857 420 911 q 281 692 303 803 l 147 0 l 25 0 l 161 696 q 286 929 191 851 q 537 1006 380 1006 q 718 962 652 1006 q 783 840 783 918 l 780 805 q 672 643 760 710 q 599 582 618 603 q 574 536 579 560 l 573 523 q 592 477 573 500 q 662 417 610 454 q 764 245 764 343 q 729 116 764 181 q 628 16 694 52 q 473 -20 562 -20 z "},"®":{"ha":833,"x_min":21,"x_max":812,"o":"m 812 516 q 764 251 812 362 q 626 83 715 140 q 416 26 536 26 q 207 84 296 26 q 70 252 118 142 q 21 516 21 363 q 69 780 21 669 q 207 948 117 890 q 416 1006 297 1006 q 626 949 536 1006 q 764 781 715 891 q 812 516 812 671 m 749 516 q 661 831 749 720 q 416 942 573 942 q 240 893 314 942 q 125 748 165 844 q 85 516 85 652 q 172 201 85 313 q 416 90 258 90 q 662 201 574 90 q 749 516 749 312 m 553 233 l 418 460 l 309 460 l 309 233 l 222 233 l 222 796 l 431 796 q 578 753 527 796 q 629 635 629 711 q 594 525 629 566 q 501 470 559 483 l 651 233 l 553 233 m 543 634 q 511 705 543 681 q 424 730 479 730 l 309 730 l 309 526 l 432 526 q 515 554 486 526 q 543 634 543 583 z "},"©":{"ha":833,"x_min":21,"x_max":812,"o":"m 270 517 q 310 355 270 414 q 422 296 350 296 q 498 321 466 296 q 555 402 531 347 l 633 378 q 546 262 597 298 q 422 226 494 226 q 245 303 308 226 q 182 517 182 380 q 243 730 182 654 q 417 805 303 805 q 623 663 564 805 l 545 641 q 495 710 528 686 q 418 734 462 734 q 308 679 346 734 q 270 517 270 625 m 812 516 q 764 251 812 362 q 626 83 715 140 q 416 26 536 26 q 207 84 296 26 q 70 252 118 142 q 21 516 21 363 q 69 780 21 669 q 207 948 117 890 q 416 1006 297 1006 q 626 949 536 1006 q 764 781 715 891 q 812 516 812 671 m 749 516 q 661 831 749 720 q 416 942 573 942 q 240 893 314 942 q 125 748 165 844 q 85 516 85 652 q 172 201 85 313 q 416 90 258 90 q 662 201 574 90 q 749 516 749 312 z "},"™":{"ha":833,"x_min":3,"x_max":830,"o":"m 759 571 l 759 918 l 755 906 l 619 571 l 559 571 q 423 918 455 834 l 423 571 l 352 571 l 352 1006 l 458 1006 l 583 690 l 591 667 l 633 774 l 727 1006 l 830 1006 l 830 571 l 759 571 m 194 943 l 194 571 l 119 571 l 119 943 l 3 943 l 3 1006 l 313 1006 l 313 943 l 194 943 z "},"´":{"ha":833,"x_min":359,"x_max":682,"o":"m 359 814 l 362 828 l 548 990 l 682 990 l 677 970 l 444 814 l 359 814 z "},"¨":{"ha":833,"x_min":317,"x_max":719,"o":"m 584 827 l 608 951 l 719 951 l 694 827 l 584 827 m 317 827 l 341 951 l 453 951 l 429 827 l 317 827 z "},"≠":{"ha":833,"x_min":79,"x_max":753,"o":"m 338 233 l 235 37 l 137 37 l 239 233 l 79 233 l 79 334 l 290 334 l 418 581 l 79 581 l 79 681 l 467 681 l 572 879 l 669 879 l 566 681 l 753 681 l 753 581 l 516 581 l 387 334 l 753 334 l 753 233 l 338 233 z "},"Æ":{"ha":833,"x_min":-71,"x_max":889,"o":"m 421 279 l 194 279 l 43 0 l -71 0 l 437 915 l 889 915 l 869 812 l 641 812 l 584 520 l 806 520 l 786 418 l 564 418 l 503 103 l 760 103 l 739 0 l 367 0 l 421 279 m 526 815 l 476 815 l 395 652 l 248 380 l 441 380 l 526 815 z "},"Ø":{"ha":833,"x_min":-30,"x_max":897,"o":"m 342 -14 q 125 80 193 -14 l 26 -26 l -30 18 l 91 146 q 69 291 69 208 q 103 530 69 400 q 196 749 136 659 q 338 884 255 839 q 526 929 420 929 q 743 838 674 929 l 842 944 l 897 900 l 778 773 q 800 629 800 712 q 767 395 800 524 q 673 173 734 266 q 528 34 612 81 q 342 -14 444 -14 m 663 616 l 662 650 l 224 185 q 363 92 260 92 q 482 127 431 92 q 573 238 534 162 q 638 426 613 314 q 663 616 663 538 m 207 302 q 208 271 207 278 l 645 734 q 506 823 610 823 q 350 757 414 823 q 246 554 285 690 q 207 302 207 418 z "},"∞":{"ha":833,"x_min":20,"x_max":810,"o":"m 810 400 q 756 213 810 288 q 619 138 702 138 q 413 329 494 138 q 321 193 375 243 q 212 142 268 142 q 73 214 127 142 q 20 404 20 286 q 74 593 20 520 q 212 667 129 667 q 414 475 336 667 q 621 663 503 663 q 759 590 707 663 q 810 400 810 518 m 603 574 q 527 531 562 574 q 459 400 492 488 q 524 270 490 313 q 604 227 559 227 q 684 275 652 227 q 716 401 716 323 q 684 524 716 474 q 603 574 652 574 m 370 404 q 306 534 340 491 q 225 578 271 578 q 146 528 177 578 q 115 403 115 479 q 146 278 115 325 q 227 231 177 231 q 370 404 306 231 z "},"±":{"ha":833,"x_min":79,"x_max":753,"o":"m 466 461 l 466 193 l 366 193 l 366 461 l 79 461 l 79 559 l 366 559 l 366 827 l 466 827 l 466 559 l 753 559 l 753 461 l 466 461 m 79 0 l 79 98 l 753 98 l 753 0 l 79 0 z "},"≤":{"ha":833,"x_min":78,"x_max":754,"o":"m 79 428 l 79 567 l 754 835 l 754 730 l 172 497 l 754 264 l 754 160 l 79 428 m 78 0 l 78 98 l 753 98 l 753 0 l 78 0 z "},"≥":{"ha":833,"x_min":79,"x_max":753,"o":"m 79 160 l 79 264 l 661 497 l 79 730 l 79 835 l 753 567 l 753 428 l 79 160 m 79 0 l 79 98 l 753 98 l 753 0 l 79 0 z "},"¥":{"ha":833,"x_min":60,"x_max":904,"o":"m 536 460 l 754 460 l 735 364 l 475 364 l 458 271 l 718 271 l 699 174 l 439 174 l 405 0 l 284 0 l 318 174 l 60 174 l 79 271 l 337 271 l 356 364 l 96 364 l 115 460 l 332 460 l 142 915 l 277 915 l 440 496 l 769 915 l 904 915 l 536 460 z "},"µ":{"ha":833,"x_min":-25,"x_max":802,"o":"m 550 0 q 551 9 550 3 q 558 58 552 16 q 570 135 564 100 l 567 135 q 311 -14 466 -14 q 217 8 256 -14 q 163 69 178 30 l 161 69 l 147 -14 l 98 -267 l -25 -267 l 169 734 l 292 734 l 208 297 q 199 224 199 250 q 345 82 199 82 q 507 148 434 82 q 598 315 579 214 l 680 734 l 802 734 l 690 158 q 682 109 686 135 q 673 61 677 83 q 667 21 669 38 q 664 0 664 5 l 550 0 z "},"∂":{"ha":833,"x_min":71,"x_max":762,"o":"m 762 636 q 730 385 762 515 q 642 165 699 256 q 505 28 585 75 q 327 -18 425 -18 q 138 50 204 -18 q 71 241 71 118 q 100 407 71 321 q 176 552 128 492 q 289 647 223 613 q 435 681 355 681 q 555 647 503 681 q 632 557 607 614 l 635 557 q 638 636 638 600 q 589 840 638 769 q 441 911 539 911 q 353 898 400 911 q 271 860 307 884 l 298 960 q 465 1002 382 1002 q 684 908 607 1002 q 762 636 762 814 m 614 461 q 555 560 600 522 q 452 599 509 599 q 328 554 383 599 q 236 419 272 509 q 200 243 200 330 q 238 119 200 165 q 343 74 275 74 q 464 124 408 74 q 559 264 519 175 q 614 461 599 353 z "},"∑":{"ha":833,"x_min":18,"x_max":814,"o":"m 18 -309 l 18 -235 l 449 309 l 29 843 l 29 915 l 768 915 l 768 812 l 195 812 l 591 311 l 184 -205 l 814 -205 l 814 -309 l 18 -309 z "},"∏":{"ha":833,"x_min":71,"x_max":761,"o":"m 636 -309 l 636 805 l 201 805 l 201 -309 l 71 -309 l 71 915 l 761 915 l 761 -309 l 636 -309 z "},"∫":{"ha":833,"x_min":159,"x_max":673,"o":"m 595 928 q 509 887 539 928 q 479 770 479 847 l 479 -68 q 420 -247 479 -184 q 250 -309 361 -309 q 159 -296 197 -309 l 159 -196 q 239 -212 200 -212 q 354 -54 354 -212 l 354 782 q 413 960 354 899 q 585 1022 472 1022 q 673 1010 644 1022 l 673 909 q 595 928 640 928 z "},"ª":{"ha":833,"x_min":180,"x_max":722,"o":"m 597 822 q 496 909 597 909 q 403 886 439 909 q 349 811 367 863 l 250 818 q 343 930 275 888 q 510 971 411 971 q 648 937 600 971 q 696 834 696 902 q 691 790 696 810 l 653 593 q 649 555 649 572 q 688 513 649 513 q 722 518 704 513 l 709 454 q 639 446 674 446 q 549 526 549 446 l 551 554 l 549 554 q 330 441 464 441 q 219 472 258 441 q 180 557 180 502 q 183 590 180 571 q 458 754 216 751 l 588 757 q 597 822 597 808 m 283 583 q 304 531 283 553 q 370 510 324 510 q 460 533 417 510 q 534 593 504 556 q 570 667 564 630 l 577 701 l 472 699 q 328 667 372 696 q 283 583 283 638 z "},"º":{"ha":833,"x_min":213,"x_max":753,"o":"m 429 441 q 269 494 325 441 q 213 640 213 546 q 253 806 213 726 q 366 928 292 886 q 534 971 439 971 q 697 922 642 971 q 753 779 753 873 q 730 649 753 714 q 665 537 707 584 q 563 466 622 491 q 429 441 504 441 m 652 776 q 524 900 652 900 q 411 868 458 900 q 340 770 365 836 q 316 641 316 705 q 441 513 316 513 q 533 532 493 513 q 598 586 573 551 q 638 676 623 621 q 652 776 652 731 z "},"Ω":{"ha":833,"x_min":40,"x_max":794,"o":"m 417 929 q 681 819 583 929 q 778 523 778 709 q 719 283 778 395 q 549 98 660 172 q 659 106 629 106 l 794 106 l 794 0 l 467 0 l 467 152 q 602 308 557 218 q 646 514 646 397 q 587 745 646 666 q 418 823 529 823 q 246 743 304 823 q 189 514 189 663 q 233 308 189 397 q 368 152 277 218 l 368 0 l 40 0 l 40 106 l 176 106 q 285 98 205 106 q 115 284 174 172 q 56 523 56 395 q 154 820 56 710 q 417 929 251 929 z "},"æ":{"ha":833,"x_min":-26,"x_max":837,"o":"m 456 341 q 441 212 441 278 q 530 78 441 78 q 617 110 581 78 q 674 191 654 142 l 762 160 q 515 -14 681 -14 q 394 23 433 -14 q 347 144 355 60 q 115 -14 251 -14 q -26 129 -26 -14 q -18 205 -26 163 q 253 445 28 441 l 366 448 q 385 572 385 538 q 368 635 385 616 q 315 654 351 654 q 236 627 264 654 q 191 538 208 600 l 79 549 q 174 699 111 650 q 332 747 237 747 q 481 653 452 747 q 666 747 556 747 q 837 530 837 747 q 817 357 837 454 l 814 341 l 456 341 m 92 156 q 150 79 92 79 q 266 144 213 79 q 338 302 319 208 l 350 362 l 267 359 q 166 332 202 357 q 111 256 130 307 q 92 156 92 205 m 639 657 q 541 598 584 657 q 475 435 498 538 l 720 435 q 728 526 728 493 q 706 626 728 594 q 639 657 684 657 z "},"ø":{"ha":833,"x_min":22,"x_max":808,"o":"m 339 -14 q 129 59 201 -14 l 65 0 l 22 46 l 92 111 q 62 252 62 168 q 92 438 62 340 q 177 607 121 536 q 312 712 233 677 q 491 747 390 747 q 705 680 635 747 l 765 735 l 808 689 l 743 628 q 771 492 771 573 q 742 303 771 404 q 657 130 713 202 q 520 22 600 58 q 339 -14 440 -14 m 642 484 q 639 532 642 505 l 218 141 q 355 77 258 77 q 479 104 428 77 q 566 190 530 132 q 622 334 602 249 q 642 484 642 420 m 191 257 q 195 206 191 230 l 616 597 q 475 657 577 657 q 355 630 406 657 q 268 545 304 602 q 211 405 231 488 q 191 257 191 321 z "},"¿":{"ha":833,"x_min":37,"x_max":713,"o":"m 428 491 l 547 491 q 483 364 530 420 q 351 257 435 308 q 207 144 250 196 q 164 27 164 93 q 210 -63 164 -33 q 338 -94 256 -94 q 495 -46 429 -94 q 589 90 562 3 l 713 82 q 566 -123 670 -50 q 319 -196 461 -196 q 112 -144 186 -196 q 37 2 37 -92 q 56 101 37 50 q 118 199 74 152 q 237 292 163 247 q 373 391 331 347 q 428 491 416 435 m 599 733 l 572 597 l 440 597 l 467 733 l 599 733 z "},"¡":{"ha":833,"x_min":243,"x_max":555,"o":"m 385 465 l 485 465 l 376 -180 l 243 -180 l 385 465 m 555 734 l 528 597 l 397 597 l 423 734 l 555 734 z "},"¬":{"ha":833,"x_min":79,"x_max":753,"o":"m 655 122 l 655 412 l 79 412 l 79 511 l 753 511 l 753 122 l 655 122 z "},"√":{"ha":833,"x_min":53,"x_max":779,"o":"m 440 -9 l 368 -9 l 176 528 l 53 528 l 53 607 l 236 607 l 400 139 l 692 1099 l 779 1099 l 440 -9 z "},"ƒ":{"ha":833,"x_min":37,"x_max":831,"o":"m 726 928 q 831 913 781 928 l 786 821 q 701 833 747 833 q 612 811 642 833 q 558 728 583 789 l 522 635 l 726 635 l 692 546 l 486 546 l 159 -288 l 37 -288 l 364 546 l 193 546 l 229 635 l 399 635 l 439 738 q 552 885 483 842 q 726 928 622 928 z "},"≈":{"ha":833,"x_min":73,"x_max":760,"o":"m 583 514 q 487 529 536 514 q 389 561 438 543 q 241 591 298 591 q 160 579 199 591 q 73 532 121 566 l 73 629 q 252 686 151 686 q 354 671 304 686 q 451 640 404 656 l 461 636 q 548 611 522 616 q 594 606 574 606 q 760 669 682 606 l 760 568 q 680 527 719 540 q 583 514 641 514 m 594 321 q 760 383 682 321 l 760 283 q 679 240 719 253 q 583 228 640 228 q 487 243 536 228 q 389 275 438 258 q 241 307 298 307 q 157 293 196 307 q 73 248 117 279 l 73 343 q 252 400 149 400 q 411 369 321 400 q 540 328 511 334 q 594 321 570 321 z "},"∆":{"ha":833,"x_min":8,"x_max":825,"o":"m 8 0 l 8 98 l 332 956 l 497 956 l 825 100 l 825 0 l 8 0 m 415 864 l 349 676 l 138 106 l 694 106 l 481 676 l 415 864 z "},"«":{"ha":833,"x_min":81,"x_max":811,"o":"m 585 96 l 404 343 l 412 386 l 690 637 l 811 637 l 807 616 l 528 364 l 711 115 l 707 96 l 585 96 m 261 96 l 81 343 l 90 386 l 367 637 l 487 637 l 483 616 l 206 364 l 387 115 l 382 96 l 261 96 z "},"»":{"ha":833,"x_min":20,"x_max":750,"o":"m 464 96 l 343 96 l 347 115 l 625 364 l 446 616 l 450 637 l 570 637 l 750 386 l 741 343 l 464 96 m 142 96 l 20 96 l 24 115 l 301 364 l 123 616 l 127 637 l 248 637 l 426 386 l 417 343 l 142 96 z "},"…":{"ha":833,"x_min":8,"x_max":712,"o":"m 565 0 l 594 149 l 712 149 l 683 0 l 565 0 m 288 0 l 317 149 l 433 149 l 404 0 l 288 0 m 8 0 l 37 149 l 156 149 l 127 0 l 8 0 z "},"À":{"ha":833,"x_min":-71,"x_max":762,"o":"m 630 0 l 587 259 l 205 259 l 62 0 l -71 0 l 452 915 l 600 915 l 762 0 l 630 0 m 505 817 q 449 708 474 755 q 259 360 425 661 l 573 360 l 522 699 l 505 817 m 532 979 l 359 1135 l 363 1155 l 496 1155 l 618 993 l 616 979 l 532 979 z "},"Ã":{"ha":833,"x_min":-71,"x_max":811,"o":"m 630 0 l 587 259 l 205 259 l 62 0 l -71 0 l 452 915 l 600 915 l 762 0 l 630 0 m 505 817 q 449 708 474 755 q 259 360 425 661 l 573 360 l 522 699 l 505 817 m 641 980 q 587 992 612 980 q 536 1020 561 1005 q 489 1048 512 1036 q 441 1061 465 1061 q 400 1045 416 1061 q 367 980 384 1029 l 292 980 q 362 1111 320 1073 q 463 1148 404 1148 q 518 1136 492 1148 q 569 1108 545 1123 q 615 1080 593 1093 q 661 1067 638 1067 q 705 1086 688 1067 q 735 1148 722 1105 l 811 1148 q 768 1049 790 1082 q 715 998 746 1017 q 641 980 684 980 z "},"Õ":{"ha":833,"x_min":69,"x_max":811,"o":"m 342 -14 q 137 65 205 -14 q 69 292 69 144 q 103 530 69 400 q 196 749 136 659 q 338 884 255 839 q 526 929 420 929 q 730 854 661 929 q 800 629 800 779 q 767 395 800 524 q 673 173 734 265 q 528 33 612 80 q 342 -14 444 -14 m 663 619 q 506 823 663 823 q 349 756 414 823 q 245 551 284 688 q 206 302 206 414 q 363 92 206 92 q 482 127 431 92 q 573 238 534 162 q 638 426 613 314 q 663 619 663 538 m 641 980 q 587 992 612 980 q 536 1020 561 1005 q 489 1048 512 1036 q 441 1061 465 1061 q 400 1045 416 1061 q 367 980 384 1029 l 292 980 q 362 1111 320 1073 q 463 1148 404 1148 q 518 1136 492 1148 q 569 1108 545 1123 q 615 1080 593 1093 q 661 1067 638 1067 q 705 1086 688 1067 q 735 1148 722 1105 l 811 1148 q 768 1049 790 1082 q 715 998 746 1017 q 641 980 684 980 z "},"Œ":{"ha":833,"x_min":12,"x_max":907,"o":"m 342 0 q 275 -3 301 -3 q 76 65 140 -3 q 12 275 12 134 q 44 520 12 382 q 132 745 77 658 q 266 876 186 833 q 455 919 345 919 q 528 915 495 919 l 907 915 l 887 812 l 617 812 l 559 513 l 808 513 l 788 412 l 539 412 l 479 103 l 777 103 l 757 0 l 342 0 m 294 95 q 363 99 342 95 l 503 816 q 436 820 478 820 q 275 753 338 820 q 174 546 212 686 q 136 296 136 406 q 176 143 136 191 q 294 95 216 95 z "},"œ":{"ha":833,"x_min":1,"x_max":834,"o":"m 478 341 q 463 208 463 267 q 541 78 463 78 q 617 110 585 78 q 669 191 650 142 l 757 160 q 524 -14 680 -14 q 370 111 401 -14 q 165 -14 290 -14 q 44 41 87 -14 q 1 208 1 96 q 27 407 1 294 q 94 594 53 519 q 192 708 136 669 q 318 747 248 747 q 475 627 445 747 q 674 747 556 747 q 834 534 834 747 q 814 357 834 456 l 812 341 l 478 341 m 389 535 q 369 628 389 599 q 309 657 349 657 q 212 597 252 657 q 143 412 172 537 q 115 207 115 287 q 193 77 115 77 q 293 141 253 77 q 361 333 334 205 q 389 535 389 462 m 650 657 q 560 598 600 657 q 498 435 520 540 l 718 435 q 726 534 726 493 q 707 628 726 598 q 650 657 688 657 z "},"–":{"ha":833,"x_min":104,"x_max":724,"o":"m 104 306 l 121 399 l 724 399 l 706 306 l 104 306 z "},"—":{"ha":833,"x_min":-18,"x_max":846,"o":"m -18 306 l -1 399 l 846 399 l 828 306 l -18 306 z "},"“":{"ha":833,"x_min":163,"x_max":836,"o":"m 538 1006 l 342 585 l 163 585 l 455 1006 l 538 1006 m 836 1006 l 640 585 l 460 585 l 753 1006 l 836 1006 z "},"”":{"ha":833,"x_min":163,"x_max":837,"o":"m 461 585 l 657 1006 l 837 1006 l 545 585 l 461 585 m 163 585 l 359 1006 l 539 1006 l 247 585 l 163 585 z "},"‘":{"ha":833,"x_min":312,"x_max":688,"o":"m 688 1006 l 492 585 l 312 585 l 604 1006 l 688 1006 z "},"’":{"ha":833,"x_min":313,"x_max":689,"o":"m 313 585 l 509 1006 l 689 1006 l 397 585 l 313 585 z "},"÷":{"ha":833,"x_min":79,"x_max":753,"o":"m 359 650 l 359 774 l 473 774 l 473 650 l 359 650 m 79 412 l 79 511 l 753 511 l 753 412 l 79 412 m 359 151 l 359 275 l 473 275 l 473 151 l 359 151 z "},"◊":{"ha":833,"x_min":78,"x_max":755,"o":"m 444 0 l 388 0 l 78 488 l 388 977 l 444 977 l 755 489 l 444 0 m 417 872 l 177 489 l 417 100 l 656 489 l 417 872 z "},"ÿ":{"ha":833,"x_min":-12,"x_max":859,"o":"m 71 -288 q -12 -281 22 -288 l 6 -189 q 62 -193 31 -193 q 171 -153 116 -193 q 275 -26 226 -113 l 294 7 l 116 734 l 246 734 l 341 298 q 361 201 349 265 q 374 126 374 137 q 416 201 380 141 l 730 734 l 859 734 l 407 0 q 236 -226 312 -164 q 71 -288 159 -288 m 587 827 l 612 951 l 722 951 l 698 827 l 587 827 m 320 827 l 345 951 l 456 951 l 432 827 l 320 827 z "},"Ÿ":{"ha":833,"x_min":131,"x_max":915,"o":"m 409 0 l 281 0 l 359 396 l 131 915 l 270 915 l 443 500 l 776 915 l 915 915 l 486 396 l 409 0 m 614 980 l 639 1105 l 749 1105 l 725 980 l 614 980 m 347 980 l 372 1105 l 484 1105 l 459 980 l 347 980 z "},"⁄":{"ha":833,"x_min":67,"x_max":800,"o":"m 147 0 l 67 0 l 722 915 l 800 915 l 147 0 z "},"€":{"ha":833,"x_min":51,"x_max":846,"o":"m 582 314 l 271 314 l 268 267 q 311 134 268 177 q 446 92 355 92 q 545 106 496 92 q 670 162 594 120 l 704 71 q 561 6 629 26 q 419 -14 493 -14 q 138 267 138 -14 l 140 312 l 51 312 l 70 410 l 151 410 q 171 514 155 455 l 90 514 l 109 610 l 197 610 q 348 849 248 769 q 604 929 448 929 q 735 911 677 929 q 846 850 793 892 l 772 755 q 593 823 691 823 q 423 774 483 823 q 327 609 363 725 l 640 609 l 621 513 l 298 513 l 287 460 l 279 410 l 601 410 l 582 314 z "},"‹":{"ha":833,"x_min":230,"x_max":635,"o":"m 410 96 l 230 343 l 239 386 l 515 637 l 635 637 l 631 616 l 355 364 l 535 115 l 531 96 l 410 96 z "},"›":{"ha":833,"x_min":195,"x_max":602,"o":"m 316 96 l 195 96 l 199 115 l 477 364 l 298 616 l 302 637 l 422 637 l 602 386 l 593 343 l 316 96 z "},"ﬁ":{"ha":833,"x_min":89,"x_max":844,"o":"m 336 645 l 211 0 l 89 0 l 214 645 l 111 645 l 128 734 l 231 734 l 248 817 q 321 962 269 919 q 463 1005 374 1005 q 548 997 513 1005 l 530 904 q 477 909 499 909 q 405 886 431 909 q 366 800 379 863 l 353 734 l 496 734 l 479 645 l 336 645 m 699 890 l 722 1006 l 844 1006 l 821 890 l 699 890 m 526 0 l 669 734 l 791 734 l 648 0 l 526 0 z "},"ﬂ":{"ha":833,"x_min":89,"x_max":844,"o":"m 336 645 l 211 0 l 89 0 l 214 645 l 111 645 l 128 734 l 231 734 l 248 817 q 321 962 269 919 q 463 1005 374 1005 q 548 997 513 1005 l 530 904 q 477 909 499 909 q 405 886 431 909 q 366 800 379 863 l 353 734 l 496 734 l 479 645 l 336 645 m 526 0 l 722 1006 l 844 1006 l 648 0 l 526 0 z "},"‡":{"ha":833,"x_min":70,"x_max":788,"o":"m 677 202 l 656 91 l 414 104 l 383 -144 l 251 -144 l 317 104 l 70 91 l 92 202 l 334 191 l 403 431 l 427 671 l 180 659 l 202 770 l 444 758 l 474 1006 l 606 1006 l 541 758 l 788 770 l 766 659 l 524 671 l 454 431 l 431 191 l 677 202 z "},"∙":{"ha":833,"x_min":321,"x_max":519,"o":"m 321 285 l 360 488 l 519 488 l 480 285 l 321 285 z "},"‚":{"ha":833,"x_min":117,"x_max":494,"o":"m 117 -246 l 314 176 l 494 176 l 201 -246 l 117 -246 z "},"„":{"ha":833,"x_min":1,"x_max":675,"o":"m 299 -247 l 496 175 l 675 175 l 382 -247 l 299 -247 m 1 -247 l 198 175 l 378 175 l 85 -247 l 1 -247 z "},"‰":{"ha":833,"x_min":-18,"x_max":810,"o":"m 81 268 l -18 268 l 462 701 l 562 701 l 81 268 m 275 957 q 399 829 399 957 q 385 729 399 785 q 344 632 371 673 q 279 572 317 592 q 193 552 241 552 q 68 684 68 552 q 92 816 68 746 q 160 921 115 886 q 275 957 204 957 m 310 821 q 297 870 310 857 q 260 884 283 884 q 204 860 224 884 q 170 782 184 836 q 157 693 157 728 q 170 643 157 657 q 210 629 184 629 q 263 655 241 629 q 297 732 285 682 q 310 821 310 783 m 343 405 q 468 277 468 405 q 454 177 468 233 q 413 80 440 121 q 347 20 385 39 q 262 0 309 0 q 136 132 136 0 q 160 264 136 194 q 228 369 184 334 q 343 405 273 405 m 379 269 q 366 318 379 304 q 328 332 352 332 q 271 307 292 332 q 238 228 250 281 q 225 142 225 174 q 239 91 225 105 q 278 77 252 77 q 332 103 311 77 q 367 180 354 130 q 379 269 379 231 m 686 405 q 810 277 810 405 q 796 177 810 233 q 755 80 782 121 q 690 20 728 40 q 604 0 652 0 q 479 132 479 0 q 503 264 479 194 q 571 369 526 334 q 686 405 615 405 m 722 269 q 708 318 722 304 q 671 332 694 332 q 614 307 635 332 q 580 228 593 281 q 568 141 568 174 q 581 91 568 105 q 621 77 595 77 q 674 102 652 77 q 709 179 696 128 q 722 269 722 230 z "},"Â":{"ha":833,"x_min":-71,"x_max":762,"o":"m 630 0 l 587 259 l 205 259 l 62 0 l -71 0 l 452 915 l 600 915 l 762 0 l 630 0 m 505 817 q 449 708 474 755 q 259 360 425 661 l 573 360 l 522 699 l 505 817 m 762 994 l 760 980 l 688 980 l 558 1074 l 557 1074 l 381 980 l 311 980 l 313 994 l 517 1156 l 629 1156 l 762 994 z "},"Ê":{"ha":833,"x_min":39,"x_max":840,"o":"m 39 0 l 216 915 l 840 915 l 819 809 l 326 809 l 270 523 l 723 523 l 703 418 l 250 418 l 189 106 l 710 106 l 690 0 l 39 0 m 762 994 l 760 980 l 688 980 l 558 1074 l 557 1074 l 381 980 l 311 980 l 313 994 l 517 1156 l 629 1156 l 762 994 z "},"Á":{"ha":833,"x_min":-71,"x_max":777,"o":"m 630 0 l 587 259 l 205 259 l 62 0 l -71 0 l 452 915 l 600 915 l 762 0 l 630 0 m 505 817 q 449 708 474 755 q 259 360 425 661 l 573 360 l 522 699 l 505 817 m 454 980 l 457 994 l 643 1156 l 777 1156 l 772 1136 l 538 980 l 454 980 z "},"Ë":{"ha":833,"x_min":39,"x_max":840,"o":"m 39 0 l 216 915 l 840 915 l 819 809 l 326 809 l 270 523 l 723 523 l 703 418 l 250 418 l 189 106 l 710 106 l 690 0 l 39 0 m 627 980 l 652 1105 l 762 1105 l 738 980 l 627 980 m 360 980 l 385 1105 l 496 1105 l 472 980 l 360 980 z "},"È":{"ha":833,"x_min":39,"x_max":840,"o":"m 39 0 l 216 915 l 840 915 l 819 809 l 326 809 l 270 523 l 723 523 l 703 418 l 250 418 l 189 106 l 710 106 l 690 0 l 39 0 m 547 980 l 374 1136 l 378 1156 l 511 1156 l 633 994 l 631 980 l 547 980 z "},"Í":{"ha":833,"x_min":66,"x_max":802,"o":"m 243 915 l 802 915 l 781 809 l 567 809 l 430 106 l 644 106 l 624 0 l 66 0 l 86 106 l 300 106 l 437 809 l 223 809 l 243 915 m 461 980 l 464 994 l 650 1156 l 783 1156 l 779 1136 l 545 980 l 461 980 z "},"Î":{"ha":833,"x_min":66,"x_max":802,"o":"m 243 915 l 802 915 l 781 809 l 567 809 l 430 106 l 644 106 l 624 0 l 66 0 l 86 106 l 300 106 l 437 809 l 223 809 l 243 915 m 762 994 l 760 980 l 688 980 l 558 1074 l 557 1074 l 381 980 l 311 980 l 313 994 l 517 1156 l 629 1156 l 762 994 z "},"Ï":{"ha":833,"x_min":66,"x_max":802,"o":"m 243 915 l 802 915 l 781 809 l 567 809 l 430 106 l 644 106 l 624 0 l 66 0 l 86 106 l 300 106 l 437 809 l 223 809 l 243 915 m 614 980 l 638 1105 l 749 1105 l 724 980 l 614 980 m 347 980 l 371 1105 l 483 1105 l 458 980 l 347 980 z "},"Ì":{"ha":833,"x_min":66,"x_max":802,"o":"m 243 915 l 802 915 l 781 809 l 567 809 l 430 106 l 644 106 l 624 0 l 66 0 l 86 106 l 300 106 l 437 809 l 223 809 l 243 915 m 540 980 l 367 1136 l 371 1156 l 505 1156 l 627 994 l 624 980 l 540 980 z "},"Ó":{"ha":833,"x_min":69,"x_max":800,"o":"m 342 -14 q 137 65 205 -14 q 69 292 69 144 q 103 530 69 400 q 196 749 136 659 q 338 884 255 839 q 526 929 420 929 q 730 854 661 929 q 800 629 800 779 q 767 395 800 524 q 673 173 734 265 q 528 33 612 80 q 342 -14 444 -14 m 663 619 q 506 823 663 823 q 349 756 414 823 q 245 551 284 688 q 206 302 206 414 q 363 92 206 92 q 482 127 431 92 q 573 238 534 162 q 638 426 613 314 q 663 619 663 538 m 458 980 l 460 994 l 646 1156 l 780 1156 l 776 1136 l 542 980 l 458 980 z "},"Ô":{"ha":833,"x_min":69,"x_max":800,"o":"m 342 -14 q 137 65 205 -14 q 69 292 69 144 q 103 530 69 400 q 196 749 136 659 q 338 884 255 839 q 526 929 420 929 q 730 854 661 929 q 800 629 800 779 q 767 395 800 524 q 673 173 734 265 q 528 33 612 80 q 342 -14 444 -14 m 663 619 q 506 823 663 823 q 349 756 414 823 q 245 551 284 688 q 206 302 206 414 q 363 92 206 92 q 482 127 431 92 q 573 238 534 162 q 638 426 613 314 q 663 619 663 538 m 762 994 l 760 980 l 688 980 l 558 1074 l 557 1074 l 381 980 l 311 980 l 313 994 l 517 1156 l 629 1156 l 762 994 z "},"Ò":{"ha":833,"x_min":69,"x_max":800,"o":"m 342 -14 q 137 65 205 -14 q 69 292 69 144 q 103 530 69 400 q 196 749 136 659 q 338 884 255 839 q 526 929 420 929 q 730 854 661 929 q 800 629 800 779 q 767 395 800 524 q 673 173 734 265 q 528 33 612 80 q 342 -14 444 -14 m 663 619 q 506 823 663 823 q 349 756 414 823 q 245 551 284 688 q 206 302 206 414 q 363 92 206 92 q 482 127 431 92 q 573 238 534 162 q 638 426 613 314 q 663 619 663 538 m 536 980 l 363 1136 l 368 1156 l 501 1156 l 623 994 l 621 980 l 536 980 z "},"Ú":{"ha":833,"x_min":75,"x_max":842,"o":"m 336 -14 q 137 39 200 -14 q 75 204 75 92 q 87 320 75 256 l 203 915 l 332 915 l 220 338 q 207 222 207 269 q 241 122 207 153 q 356 92 275 92 q 520 147 465 92 q 603 347 574 203 l 713 915 l 842 915 l 729 332 q 601 69 694 152 q 336 -14 508 -14 m 450 980 l 452 994 l 638 1156 l 772 1156 l 768 1136 l 534 980 l 450 980 z "},"Û":{"ha":833,"x_min":75,"x_max":842,"o":"m 336 -14 q 137 39 200 -14 q 75 204 75 92 q 87 320 75 256 l 203 915 l 332 915 l 220 338 q 207 222 207 269 q 241 122 207 153 q 356 92 275 92 q 520 147 465 92 q 603 347 574 203 l 713 915 l 842 915 l 729 332 q 601 69 694 152 q 336 -14 508 -14 m 762 994 l 760 980 l 688 980 l 558 1074 l 557 1074 l 381 980 l 311 980 l 313 994 l 517 1156 l 629 1156 l 762 994 z "},"Ù":{"ha":833,"x_min":75,"x_max":842,"o":"m 336 -14 q 137 39 200 -14 q 75 204 75 92 q 87 320 75 256 l 203 915 l 332 915 l 220 338 q 207 222 207 269 q 241 122 207 153 q 356 92 275 92 q 520 147 465 92 q 603 347 574 203 l 713 915 l 842 915 l 729 332 q 601 69 694 152 q 336 -14 508 -14 m 529 980 l 356 1136 l 360 1156 l 494 1156 l 616 994 l 613 980 l 529 980 z "},"ı":{"ha":833,"x_min":26,"x_max":711,"o":"m 453 96 l 711 96 l 692 0 l 26 0 l 45 96 l 331 96 l 436 637 l 220 637 l 238 734 l 576 734 l 453 96 z "},"ˆ":{"ha":833,"x_min":279,"x_max":730,"o":"m 730 828 l 728 814 l 656 814 l 526 908 l 525 908 l 349 814 l 279 814 l 281 828 l 486 990 l 597 990 l 730 828 z "},"˜":{"ha":833,"x_min":260,"x_max":779,"o":"m 609 814 q 555 827 581 814 q 505 855 529 840 q 457 883 480 870 q 410 895 433 895 q 368 879 385 895 q 335 814 352 863 l 260 814 q 330 945 288 907 q 431 983 372 983 q 487 970 460 983 q 537 942 513 958 q 584 915 561 927 q 629 902 606 902 q 673 921 656 902 q 703 983 690 939 l 779 983 q 736 884 758 917 q 683 833 714 851 q 609 814 652 814 z "},"ˉ":{"ha":833,"x_min":320,"x_max":711,"o":"m 694 838 l 320 838 l 337 924 l 711 924 l 694 838 z "},"˘":{"ha":833,"x_min":326,"x_max":750,"o":"m 503 814 q 373 861 421 814 q 326 986 326 908 l 326 990 l 412 990 q 519 900 417 900 q 611 924 577 900 q 664 990 644 947 l 750 990 q 652 861 717 907 q 503 814 587 814 z "},"˙":{"ha":833,"x_min":448,"x_max":609,"o":"m 448 876 l 473 1006 l 609 1006 l 584 876 l 448 876 z "},"˚":{"ha":833,"x_min":356,"x_max":690,"o":"m 496 779 q 394 808 431 779 q 356 888 356 838 q 380 967 356 928 q 449 1027 404 1006 q 549 1049 494 1049 q 652 1021 614 1049 q 690 940 690 992 q 665 859 690 897 q 595 800 640 821 q 496 779 551 779 m 606 924 q 586 958 606 945 q 534 970 566 970 q 466 951 492 970 q 439 905 439 932 q 458 870 439 883 q 512 857 477 857 q 580 877 555 857 q 606 924 606 897 z "},"¸":{"ha":833,"x_min":-49,"x_max":225,"o":"m 12 -301 q -49 -298 -26 -301 l -35 -232 q 22 -236 -3 -236 q 133 -178 121 -236 l 134 -165 q 54 -122 134 -122 q 15 -123 24 -122 l 83 0 l 155 0 l 116 -68 q 198 -91 171 -69 q 225 -151 225 -113 q 202 -227 225 -191 q 133 -282 180 -264 q 12 -301 85 -301 z "},"˝":{"ha":833,"x_min":106,"x_max":655,"o":"m 353 814 l 356 828 l 528 990 l 655 990 l 651 970 l 417 814 l 353 814 m 106 814 l 109 828 l 281 990 l 408 990 l 404 970 l 170 814 l 106 814 z "},"˛":{"ha":833,"x_min":193,"x_max":427,"o":"m 315 -290 q 223 -263 253 -290 q 193 -193 193 -237 q 232 -86 193 -138 q 333 0 271 -33 l 423 0 q 330 -79 367 -29 q 292 -170 292 -129 q 345 -215 292 -215 q 427 -199 382 -215 l 412 -271 q 315 -290 367 -290 z "},"ˇ":{"ha":833,"x_min":311,"x_max":762,"o":"m 562 814 l 451 814 l 311 977 l 313 990 l 384 990 l 523 897 l 524 897 l 691 990 l 762 990 l 760 977 l 562 814 z "},"Ł":{"ha":833,"x_min":34,"x_max":695,"o":"m 90 0 l 150 311 l 62 269 l 34 351 l 170 416 l 267 915 l 397 915 l 313 484 l 531 586 l 556 504 l 292 378 l 239 106 l 695 106 l 675 0 l 90 0 z "},"ł":{"ha":833,"x_min":20,"x_max":741,"o":"m 545 600 l 714 687 l 741 610 l 525 499 l 447 96 l 705 96 l 686 0 l 20 0 l 39 96 l 325 96 l 389 431 l 226 347 l 197 423 l 409 531 l 483 910 l 253 910 l 271 1006 l 623 1006 l 545 600 z "},"Š":{"ha":833,"x_min":27,"x_max":809,"o":"m 340 -14 q 27 229 30 -14 l 157 254 q 210 128 159 168 q 363 87 262 87 q 535 129 471 87 q 614 249 599 171 l 617 279 q 596 342 617 317 q 539 385 576 368 q 397 429 503 402 q 261 475 298 456 q 201 515 224 493 q 166 566 178 538 q 155 632 155 595 q 179 748 155 690 q 252 846 203 805 q 370 908 300 888 q 526 929 440 929 q 737 878 671 929 q 809 709 803 827 l 677 687 q 635 797 676 762 q 507 831 593 831 q 287 687 316 831 l 284 659 q 300 607 284 627 q 343 573 316 587 q 406 549 370 559 q 482 528 442 539 q 649 470 603 496 q 722 406 696 444 q 749 309 749 368 q 721 181 749 243 q 641 76 693 119 q 513 10 588 33 q 340 -14 437 -14 m 594 980 l 483 980 l 342 1142 l 345 1156 l 416 1156 l 555 1062 l 556 1062 l 723 1156 l 794 1156 l 791 1142 l 594 980 z "},"š":{"ha":833,"x_min":75,"x_max":766,"o":"m 347 -14 q 144 30 208 -14 q 75 168 79 73 l 186 189 q 226 103 189 130 q 365 77 264 77 q 520 115 468 77 q 572 214 572 152 q 544 269 572 247 q 452 309 516 292 l 373 330 q 247 375 283 355 q 191 424 211 395 q 171 494 171 452 q 193 591 171 543 q 258 675 216 640 q 361 727 300 709 q 496 745 422 745 q 679 700 616 745 q 741 569 741 654 l 629 555 l 629 559 q 593 630 629 606 q 479 654 558 654 q 338 622 385 654 q 290 532 290 589 q 314 480 290 500 q 397 446 338 460 q 586 389 547 406 q 649 348 625 371 q 683 302 673 326 q 692 248 692 278 q 650 116 692 178 q 528 20 607 53 q 347 -14 450 -14 m 566 814 l 454 814 l 314 977 l 317 990 l 387 990 l 526 897 l 528 897 l 694 990 l 766 990 l 763 977 l 566 814 z "},"Ž":{"ha":833,"x_min":-22,"x_max":858,"o":"m 712 0 l -22 0 l -3 97 l 690 809 l 185 809 l 205 915 l 858 915 l 840 821 l 146 106 l 732 106 l 712 0 m 601 980 l 490 980 l 349 1142 l 352 1156 l 422 1156 l 562 1062 l 563 1062 l 730 1156 l 801 1156 l 798 1142 l 601 980 z "},"ž":{"ha":833,"x_min":28,"x_max":770,"o":"m 28 0 l 47 93 l 614 640 l 180 640 l 198 734 l 770 734 l 753 641 l 184 94 l 671 94 l 653 0 l 28 0 m 563 814 l 452 814 l 311 977 l 314 990 l 385 990 l 524 897 l 525 897 l 692 990 l 763 990 l 760 977 l 563 814 z "},"¦":{"ha":833,"x_min":360,"x_max":473,"o":"m 360 458 l 360 986 l 473 986 l 473 458 l 360 458 m 360 -309 l 360 220 l 473 220 l 473 -309 l 360 -309 z "},"Ð":{"ha":833,"x_min":26,"x_max":797,"o":"m 290 0 l 39 0 l 117 405 l 26 405 l 45 506 l 137 506 l 216 915 l 427 915 q 797 604 797 915 q 760 376 797 496 q 657 172 724 256 q 498 44 591 87 q 290 0 405 0 m 443 405 l 247 405 l 189 106 l 298 106 q 451 139 385 106 q 564 238 517 172 q 638 405 611 304 q 665 587 665 505 q 601 756 665 704 q 408 809 537 809 l 326 809 l 267 506 l 463 506 l 443 405 z "},"ð":{"ha":833,"x_min":66,"x_max":778,"o":"m 473 664 q 622 624 566 664 q 514 839 589 757 l 323 761 l 300 836 l 460 899 q 317 1006 395 961 l 458 1006 q 561 937 509 981 l 755 1015 l 778 941 l 623 879 q 760 508 760 728 q 732 297 760 401 q 650 125 703 193 q 519 22 597 58 q 336 -14 441 -14 q 136 48 205 -14 q 66 230 66 111 q 96 399 66 311 q 176 544 125 486 q 300 633 227 602 q 473 664 374 664 m 622 422 q 583 537 622 500 q 458 574 544 574 q 312 533 368 574 q 226 406 256 492 q 195 236 195 319 q 235 115 195 154 q 353 77 274 77 q 470 100 421 77 q 552 170 519 123 q 604 293 585 218 q 622 422 622 368 z "},"Ý":{"ha":833,"x_min":131,"x_max":915,"o":"m 409 0 l 281 0 l 359 396 l 131 915 l 270 915 l 443 500 l 776 915 l 915 915 l 486 396 l 409 0 m 460 980 l 463 994 l 648 1156 l 782 1156 l 778 1136 l 544 980 l 460 980 z "},"ý":{"ha":833,"x_min":-12,"x_max":859,"o":"m 71 -288 q -12 -281 22 -288 l 6 -189 q 62 -193 31 -193 q 171 -153 116 -193 q 275 -26 226 -113 l 294 7 l 116 734 l 246 734 l 341 298 q 361 201 349 265 q 374 126 374 137 q 416 201 380 141 l 730 734 l 859 734 l 407 0 q 236 -226 312 -164 q 71 -288 159 -288 m 432 814 l 435 828 l 621 990 l 754 990 l 750 970 l 516 814 l 432 814 z "},"Þ":{"ha":833,"x_min":39,"x_max":786,"o":"m 392 172 l 201 172 l 168 0 l 39 0 l 216 915 l 346 915 l 315 755 l 498 755 q 711 699 637 755 q 786 536 786 642 q 736 354 786 441 q 595 220 686 268 q 392 172 505 172 m 653 513 q 606 621 653 583 q 463 659 559 659 l 296 659 l 220 268 l 393 268 q 530 299 471 268 q 621 389 588 330 q 653 513 653 448 z "},"þ":{"ha":833,"x_min":-2,"x_max":757,"o":"m 629 504 q 599 616 629 577 q 498 654 569 654 q 386 626 432 654 q 307 537 340 597 q 253 388 273 477 q 233 237 233 298 q 269 116 233 155 q 384 77 306 77 q 515 130 463 77 q 598 301 567 182 q 629 504 629 420 m 298 613 q 405 716 345 684 q 548 749 464 749 q 757 521 757 749 q 740 370 757 456 q 399 -14 665 -14 q 199 111 232 -14 l 196 111 q 191 73 196 104 q 121 -288 185 42 l -2 -288 l 250 1006 l 372 1006 l 316 720 l 293 613 l 298 613 z "},"−":{"ha":833,"x_min":79,"x_max":754,"o":"m 79 412 l 79 511 l 754 511 l 754 412 l 79 412 z "},"×":{"ha":833,"x_min":106,"x_max":726,"o":"m 106 224 l 347 464 l 108 703 l 178 772 l 416 533 l 653 771 l 724 700 l 487 464 l 726 225 l 656 154 l 417 393 l 176 153 l 106 224 z "},"¹":{"ha":833,"x_min":200,"x_max":643,"o":"m 200 382 l 214 454 l 394 454 l 475 868 q 394 812 452 835 q 275 790 336 790 l 290 864 q 411 888 355 864 q 498 956 467 911 l 581 956 l 483 454 l 643 454 l 629 382 l 200 382 z "},"²":{"ha":833,"x_min":216,"x_max":700,"o":"m 216 382 l 228 452 q 310 542 258 498 q 445 636 361 585 q 567 731 530 688 q 605 823 605 774 q 522 892 605 892 q 441 867 476 892 q 392 796 406 842 l 303 802 q 391 920 327 876 q 540 964 455 964 q 659 931 618 964 q 700 839 700 899 q 657 720 700 774 q 530 614 615 666 q 386 517 425 547 q 326 454 347 488 l 637 454 l 624 382 l 216 382 z "},"³":{"ha":833,"x_min":239,"x_max":701,"o":"m 425 374 q 239 517 239 374 l 239 528 l 333 536 l 333 533 l 332 527 q 438 444 332 444 q 535 479 501 444 q 568 566 568 513 q 456 637 568 637 l 415 637 l 429 711 l 468 711 q 568 743 531 711 q 605 825 605 775 q 522 892 605 892 q 442 868 475 892 q 396 800 409 844 l 307 808 q 391 923 330 882 q 538 964 452 964 q 657 933 614 964 q 701 846 701 902 q 662 740 701 786 q 551 677 623 693 l 551 676 q 635 640 610 670 q 661 569 661 610 q 633 471 661 518 q 552 399 604 425 q 425 374 499 374 z "},"½":{"ha":833,"x_min":42,"x_max":813,"o":"m 42 399 l 56 472 l 148 472 l 216 820 q 158 774 197 793 q 87 755 119 755 l 103 836 q 177 858 138 836 q 241 915 216 880 l 323 915 l 237 472 l 315 472 l 301 399 l 42 399 m 136 0 l 56 0 l 711 915 l 789 915 l 136 0 m 389 1 l 401 66 q 472 147 428 109 q 586 232 515 185 q 687 315 655 277 q 720 400 720 352 q 657 456 720 456 q 592 435 616 456 q 554 373 568 414 l 467 376 q 544 485 489 446 q 674 524 598 524 q 813 415 813 524 q 775 304 813 355 q 667 208 736 253 q 549 126 582 153 q 499 73 516 100 l 757 73 l 743 1 l 389 1 z "},"¼":{"ha":833,"x_min":49,"x_max":800,"o":"m 49 399 l 63 472 l 155 472 l 222 820 q 165 774 203 793 q 94 755 126 755 l 110 836 q 184 858 144 836 q 248 915 223 880 l 330 915 l 243 472 l 322 472 l 308 399 l 49 399 m 147 0 l 67 0 l 722 915 l 800 915 l 147 0 m 701 110 l 680 1 l 593 1 l 614 110 l 360 110 l 374 177 l 684 517 l 780 517 l 714 178 l 797 178 l 783 110 l 701 110 m 677 431 q 656 406 671 422 q 448 178 641 389 l 628 178 l 677 431 z "},"¾":{"ha":833,"x_min":39,"x_max":817,"o":"m 186 387 q 78 423 116 387 q 39 524 39 459 l 39 531 l 134 540 l 134 532 q 152 477 134 496 q 200 458 170 458 q 273 487 246 458 q 300 564 300 517 q 213 624 300 624 l 185 624 l 199 698 l 224 698 q 284 710 260 698 q 320 748 308 722 q 332 801 332 774 q 279 851 332 851 q 222 830 249 851 q 184 770 196 808 l 94 778 q 169 883 115 844 q 294 923 222 923 q 392 894 357 923 q 427 816 427 865 q 309 666 427 707 l 308 665 q 393 568 393 645 q 390 538 393 555 q 322 429 377 470 q 186 387 267 387 m 164 0 l 84 0 l 739 915 l 817 915 l 164 0 m 701 110 l 680 1 l 593 1 l 614 110 l 360 110 l 374 177 l 684 517 l 780 517 l 714 178 l 797 178 l 783 110 l 701 110 m 677 431 q 656 406 671 422 q 448 178 641 389 l 628 178 l 677 431 z "},"₣":{"ha":833,"x_min":-14,"x_max":852,"o":"m 357 809 l 299 508 l 758 508 l 736 401 l 278 401 l 251 263 l 516 263 l 499 176 l 234 176 l 200 0 l 71 0 l 104 176 l -14 176 l 3 263 l 121 263 l 248 915 l 852 915 l 832 809 l 357 809 z "},"Ğ":{"ha":833,"x_min":79,"x_max":814,"o":"m 359 -14 q 152 68 224 -14 q 79 306 79 150 q 115 546 79 415 q 210 760 151 676 q 352 887 269 844 q 545 929 435 929 q 814 705 778 929 l 690 667 q 526 823 666 823 q 399 790 453 823 q 307 688 345 756 q 241 508 268 621 q 214 309 214 395 q 391 92 214 92 q 489 106 437 92 q 577 142 541 120 l 621 370 l 422 370 l 444 478 l 768 478 l 693 90 q 359 -14 520 -14 m 537 981 q 408 1027 456 981 q 360 1152 360 1074 l 360 1156 l 446 1156 q 554 1066 452 1066 q 645 1090 612 1066 q 699 1156 679 1114 l 785 1156 q 686 1027 751 1074 q 537 981 621 981 z "},"ğ":{"ha":833,"x_min":54,"x_max":786,"o":"m 290 -288 q 116 -241 176 -288 q 54 -106 56 -194 l 182 -90 q 216 -168 183 -140 q 312 -195 250 -195 q 522 18 481 -195 l 547 150 l 546 150 q 286 8 450 8 q 131 61 180 8 q 81 222 81 115 q 109 420 81 307 q 180 604 136 534 q 290 710 225 674 q 442 745 355 745 q 568 710 519 745 q 635 608 618 674 l 637 608 q 654 681 642 633 q 670 734 667 728 l 786 734 l 773 678 l 753 582 l 644 22 q 527 -210 614 -132 q 290 -288 440 -288 m 602 473 q 563 606 602 558 q 455 654 525 654 q 351 628 394 654 q 279 545 309 602 q 229 396 249 489 q 209 241 209 302 q 240 132 209 166 q 345 98 272 98 q 447 127 399 98 q 530 211 494 157 q 583 339 565 266 q 602 473 602 413 m 496 814 q 367 861 415 814 q 319 986 319 908 l 319 990 l 406 990 q 513 900 411 900 q 605 924 571 900 q 658 990 638 947 l 744 990 q 646 861 711 907 q 496 814 581 814 z "},"İ":{"ha":833,"x_min":66,"x_max":802,"o":"m 243 915 l 802 915 l 781 809 l 567 809 l 430 106 l 644 106 l 624 0 l 66 0 l 86 106 l 300 106 l 437 809 l 223 809 l 243 915 m 469 981 l 494 1111 l 629 1111 l 604 981 l 469 981 z "},"Ş":{"ha":833,"x_min":27,"x_max":809,"o":"m 340 -14 q 27 229 30 -14 l 157 254 q 210 128 159 168 q 363 87 262 87 q 535 129 471 87 q 614 249 599 171 l 617 279 q 596 342 617 317 q 539 385 576 368 q 397 429 503 402 q 261 475 298 456 q 201 515 224 493 q 166 566 178 538 q 155 632 155 595 q 179 748 155 690 q 252 846 203 805 q 370 908 300 888 q 526 929 440 929 q 737 878 671 929 q 809 709 803 827 l 677 687 q 635 797 676 762 q 507 831 593 831 q 287 687 316 831 l 284 659 q 300 607 284 627 q 343 573 316 587 q 406 549 370 559 q 482 528 442 539 q 649 470 603 496 q 722 406 696 444 q 749 309 749 368 q 721 181 749 243 q 641 76 693 119 q 513 10 588 33 q 340 -14 437 -14 m 237 -301 q 176 -298 199 -301 l 190 -232 q 247 -236 222 -236 q 358 -178 346 -236 l 359 -165 q 279 -122 359 -122 q 240 -123 250 -122 l 308 0 l 380 0 l 341 -68 q 423 -91 396 -69 q 450 -151 450 -113 q 428 -227 450 -191 q 358 -282 405 -264 q 237 -301 311 -301 z "},"ş":{"ha":833,"x_min":75,"x_max":741,"o":"m 347 -14 q 144 30 208 -14 q 75 168 79 73 l 186 189 q 226 103 189 130 q 365 77 264 77 q 520 115 468 77 q 572 214 572 152 q 544 269 572 247 q 452 309 516 292 l 373 330 q 247 375 283 355 q 191 424 211 395 q 171 494 171 452 q 193 591 171 543 q 258 675 216 640 q 361 727 300 709 q 496 745 422 745 q 679 700 616 745 q 741 569 741 654 l 629 555 l 629 559 q 593 630 629 606 q 479 654 558 654 q 338 622 385 654 q 290 532 290 589 q 314 480 290 500 q 397 446 338 460 q 586 389 547 406 q 649 348 625 371 q 683 302 673 326 q 692 248 692 278 q 650 116 692 178 q 528 20 607 53 q 347 -14 450 -14 m 244 -301 q 183 -298 205 -301 l 197 -232 q 254 -236 229 -236 q 365 -178 353 -236 l 366 -165 q 286 -122 366 -122 q 247 -123 256 -122 l 315 0 l 387 0 l 348 -68 q 430 -91 403 -69 q 457 -151 457 -113 q 434 -227 457 -191 q 365 -282 412 -264 q 244 -301 317 -301 z "},"Ć":{"ha":833,"x_min":79,"x_max":821,"o":"m 214 307 q 395 92 214 92 q 530 140 465 92 q 650 283 596 189 l 749 239 q 373 -14 598 -14 q 154 67 229 -14 q 79 303 79 147 q 114 544 79 415 q 209 758 149 673 q 355 886 269 842 q 549 929 440 929 q 821 702 777 929 l 699 658 q 642 781 687 739 q 530 823 597 823 q 401 789 456 823 q 306 684 346 754 q 240 504 267 614 q 214 307 214 393 m 481 980 l 484 994 l 669 1156 l 803 1156 l 799 1136 l 565 980 l 481 980 z "},"ć":{"ha":833,"x_min":76,"x_max":762,"o":"m 503 747 q 694 689 625 747 q 762 528 762 630 l 631 519 l 631 523 q 595 616 631 581 q 479 652 559 652 q 329 604 388 652 q 237 451 270 556 q 204 252 204 346 q 245 122 204 163 q 367 81 286 81 q 495 117 440 81 q 576 227 551 153 l 704 218 q 632 100 682 153 q 509 17 581 47 q 354 -14 437 -14 q 146 54 216 -14 q 76 250 76 121 q 104 434 76 336 q 188 603 132 531 q 323 711 244 675 q 503 747 402 747 m 429 814 l 431 828 l 617 990 l 751 990 l 747 970 l 513 814 l 429 814 z "},"Č":{"ha":833,"x_min":79,"x_max":821,"o":"m 214 307 q 395 92 214 92 q 530 140 465 92 q 650 283 596 189 l 749 239 q 373 -14 598 -14 q 154 67 229 -14 q 79 303 79 147 q 114 544 79 415 q 209 758 149 673 q 355 886 269 842 q 549 929 440 929 q 821 702 777 929 l 699 658 q 642 781 687 739 q 530 823 597 823 q 401 789 456 823 q 306 684 346 754 q 240 504 267 614 q 214 307 214 393 m 606 981 l 495 981 l 355 1143 l 357 1156 l 428 1156 l 567 1063 l 568 1063 l 735 1156 l 806 1156 l 804 1143 l 606 981 z "},"č":{"ha":833,"x_min":76,"x_max":762,"o":"m 503 747 q 694 689 625 747 q 762 528 762 630 l 631 519 l 631 523 q 595 616 631 581 q 479 652 559 652 q 329 604 388 652 q 237 451 270 556 q 204 252 204 346 q 245 122 204 163 q 367 81 286 81 q 495 117 440 81 q 576 227 551 153 l 704 218 q 632 100 682 153 q 509 17 581 47 q 354 -14 437 -14 q 146 54 216 -14 q 76 250 76 121 q 104 434 76 336 q 188 603 132 531 q 323 711 244 675 q 503 747 402 747 m 559 814 l 448 814 l 308 977 l 311 990 l 381 990 l 520 897 l 522 897 l 688 990 l 760 990 l 757 977 l 559 814 z "},"đ":{"ha":833,"x_min":75,"x_max":900,"o":"m 793 811 l 665 151 q 640 0 644 30 l 524 0 l 524 3 q 540 118 524 32 l 536 118 q 428 15 490 47 q 285 -18 367 -18 q 126 38 178 -18 q 75 208 75 94 q 90 351 75 266 q 429 727 163 727 q 561 698 511 727 q 631 602 611 669 l 633 602 l 636 620 l 671 811 l 468 811 l 486 900 l 689 900 l 709 1006 l 831 1006 l 811 900 l 900 900 l 882 811 l 793 811 m 203 227 q 235 113 203 149 q 335 77 267 77 q 446 104 399 77 q 526 189 492 132 q 578 332 559 245 q 598 477 598 419 q 562 597 598 558 q 446 637 526 637 q 315 585 366 637 q 233 422 264 533 q 203 227 203 311 z "},"¯":{"ha":833,"x_min":126,"x_max":979,"o":"m 126 1032 l 139 1097 l 979 1097 l 966 1032 l 126 1032 z "},"·":{"ha":833,"x_min":321,"x_max":519,"o":"m 321 285 l 360 488 l 519 488 l 480 285 l 321 285 z "},"Ă":{"ha":833,"x_min":-71,"x_max":783,"o":"m 630 0 l 587 259 l 205 259 l 62 0 l -71 0 l 452 915 l 600 915 l 762 0 l 630 0 m 505 817 q 449 708 474 755 q 259 360 425 661 l 573 360 l 522 699 l 505 817 m 535 981 q 406 1027 454 981 q 358 1152 358 1074 l 358 1156 l 444 1156 q 552 1066 450 1066 q 643 1090 610 1066 q 696 1156 677 1114 l 783 1156 q 684 1027 749 1074 q 535 981 619 981 z "},"ă":{"ha":833,"x_min":50,"x_max":737,"o":"m 690 75 q 731 80 709 75 l 716 4 q 620 -7 669 -7 q 536 19 561 -7 q 511 96 511 45 l 515 140 l 511 140 q 383 22 450 58 q 229 -14 315 -14 q 94 28 138 -14 q 50 144 50 71 q 56 205 50 172 q 410 445 102 441 l 570 448 q 584 517 582 503 q 585 548 585 532 q 554 630 585 606 q 460 654 523 654 q 341 628 382 654 q 280 538 301 601 l 155 549 q 272 699 191 650 q 480 747 352 747 q 711 566 711 747 q 704 500 711 536 l 643 184 q 637 133 637 155 q 649 90 637 104 q 690 75 661 75 m 278 79 q 399 110 342 79 q 493 193 455 141 q 542 302 531 245 l 554 362 l 425 359 q 282 335 333 358 q 206 268 232 313 q 180 170 180 222 q 204 104 180 128 q 278 79 229 79 m 490 814 q 360 861 408 814 q 313 986 313 908 l 313 990 l 399 990 q 507 900 404 900 q 598 924 564 900 q 651 990 631 947 l 737 990 q 639 861 704 907 q 490 814 574 814 z "},"Ą":{"ha":833,"x_min":-71,"x_max":762,"o":"m 630 0 l 587 259 l 205 259 l 62 0 l -71 0 l 452 915 l 600 915 l 762 0 l 630 0 m 505 817 q 449 708 474 755 q 259 360 425 661 l 573 360 l 522 699 l 505 817 m 625 -282 q 533 -256 564 -282 q 503 -185 503 -230 q 542 -78 503 -131 q 644 7 581 -26 l 734 7 q 640 -72 677 -22 q 603 -162 603 -121 q 656 -208 603 -208 q 737 -191 693 -208 l 723 -264 q 625 -282 677 -282 z "},"ą":{"ha":833,"x_min":50,"x_max":731,"o":"m 690 75 q 731 80 709 75 l 716 4 q 620 -7 669 -7 q 536 19 561 -7 q 511 96 511 45 l 515 140 l 511 140 q 383 22 450 58 q 229 -14 315 -14 q 94 28 138 -14 q 50 144 50 71 q 56 205 50 172 q 410 445 102 441 l 570 448 q 584 517 582 503 q 585 548 585 532 q 554 630 585 606 q 460 654 523 654 q 341 628 382 654 q 280 538 301 601 l 155 549 q 272 699 191 650 q 480 747 352 747 q 711 566 711 747 q 704 500 711 536 l 643 184 q 637 133 637 155 q 649 90 637 104 q 690 75 661 75 m 278 79 q 399 110 342 79 q 493 193 455 141 q 542 302 531 245 l 554 362 l 425 359 q 282 335 333 358 q 206 268 232 313 q 180 170 180 222 q 204 104 180 128 q 278 79 229 79 m 565 -290 q 473 -263 503 -290 q 443 -193 443 -237 q 482 -86 443 -138 q 583 0 521 -33 l 673 0 q 580 -79 617 -29 q 543 -170 543 -129 q 595 -215 543 -215 q 677 -199 633 -215 l 663 -271 q 565 -290 617 -290 z "},"Ď":{"ha":833,"x_min":39,"x_max":797,"o":"m 290 0 l 39 0 l 216 915 l 427 915 q 797 604 797 915 q 760 376 797 496 q 657 172 724 256 q 498 44 591 87 q 290 0 405 0 m 665 587 q 601 756 665 704 q 408 809 537 809 l 326 809 l 189 106 l 298 106 q 451 139 385 106 q 564 238 517 172 q 638 405 611 304 q 665 587 665 505 m 574 981 l 463 981 l 323 1143 l 326 1156 l 396 1156 l 535 1063 l 536 1063 l 703 1156 l 774 1156 l 772 1143 l 574 981 z "},"ď":{"ha":833,"x_min":4,"x_max":959,"o":"m 401 118 q 303 15 355 47 q 186 -18 252 -18 q 52 41 100 -18 q 4 216 4 99 q 30 406 4 301 q 100 588 56 511 q 203 705 144 665 q 334 745 263 745 q 439 715 400 745 q 499 620 479 686 l 500 620 l 515 701 l 574 1006 l 696 1006 l 530 151 q 505 0 508 30 l 388 0 l 388 3 q 404 118 388 32 l 401 118 m 130 212 q 153 109 130 142 q 225 77 176 77 q 314 109 271 77 q 391 202 357 141 q 444 341 425 262 q 463 481 463 420 q 430 608 463 562 q 338 654 397 654 q 232 598 276 654 q 159 419 189 541 q 130 212 130 297 m 729 786 l 734 808 l 825 1006 l 959 1006 l 954 981 l 800 786 l 729 786 z "},"Đ":{"ha":833,"x_min":26,"x_max":797,"o":"m 290 0 l 39 0 l 117 405 l 26 405 l 45 506 l 137 506 l 216 915 l 427 915 q 797 604 797 915 q 760 376 797 496 q 657 172 724 256 q 498 44 591 87 q 290 0 405 0 m 443 405 l 247 405 l 189 106 l 298 106 q 451 139 385 106 q 564 238 517 172 q 638 405 611 304 q 665 587 665 505 q 601 756 665 704 q 408 809 537 809 l 326 809 l 267 506 l 463 506 l 443 405 z "},"Ę":{"ha":833,"x_min":39,"x_max":840,"o":"m 39 0 l 216 915 l 840 915 l 819 809 l 326 809 l 270 523 l 723 523 l 703 418 l 250 418 l 189 106 l 710 106 l 690 0 l 39 0 m 539 -290 q 447 -263 477 -290 q 417 -193 417 -237 q 456 -86 417 -138 q 557 0 495 -33 l 648 0 q 554 -79 591 -29 q 517 -170 517 -129 q 570 -215 517 -215 q 651 -199 607 -215 l 637 -271 q 539 -290 591 -290 z "},"ę":{"ha":833,"x_min":79,"x_max":754,"o":"m 214 341 q 205 259 205 294 q 247 125 205 172 q 366 78 290 78 q 494 108 435 78 q 581 191 553 138 l 682 160 q 548 31 635 76 q 349 -14 460 -14 q 148 55 217 -14 q 79 251 79 123 q 106 433 79 335 q 187 603 133 531 q 318 711 241 674 q 492 747 395 747 q 754 490 754 747 q 740 357 754 429 l 737 341 l 214 341 m 476 657 q 322 598 386 657 q 233 435 258 539 l 629 435 l 632 484 q 476 657 632 657 m 357 -290 q 265 -263 295 -290 q 235 -193 235 -237 q 274 -86 235 -138 q 375 0 313 -33 l 465 0 q 372 -79 409 -29 q 334 -170 334 -129 q 387 -215 334 -215 q 469 -199 425 -215 l 454 -271 q 357 -290 409 -290 z "},"Ě":{"ha":833,"x_min":39,"x_max":840,"o":"m 39 0 l 216 915 l 840 915 l 819 809 l 326 809 l 270 523 l 723 523 l 703 418 l 250 418 l 189 106 l 710 106 l 690 0 l 39 0 m 595 981 l 484 981 l 343 1143 l 346 1156 l 416 1156 l 555 1063 l 557 1063 l 724 1156 l 795 1156 l 792 1143 l 595 981 z "},"ě":{"ha":833,"x_min":79,"x_max":758,"o":"m 214 341 q 205 259 205 294 q 247 125 205 172 q 366 78 290 78 q 494 108 435 78 q 581 191 553 138 l 682 160 q 548 31 635 76 q 349 -14 460 -14 q 148 55 217 -14 q 79 251 79 123 q 106 433 79 335 q 187 603 133 531 q 318 711 241 674 q 492 747 395 747 q 754 490 754 747 q 740 357 754 429 l 737 341 l 214 341 m 476 657 q 322 598 386 657 q 233 435 258 539 l 629 435 l 632 484 q 476 657 632 657 m 557 814 l 446 814 l 306 977 l 309 990 l 379 990 l 518 897 l 519 897 l 686 990 l 758 990 l 755 977 l 557 814 z "},"Ĺ":{"ha":833,"x_min":90,"x_max":695,"o":"m 90 0 l 267 915 l 397 915 l 239 106 l 695 106 l 675 0 l 90 0 m 326 981 l 328 994 l 514 1156 l 648 1156 l 644 1137 l 410 981 l 326 981 z "},"ĺ":{"ha":833,"x_min":20,"x_max":801,"o":"m 447 96 l 705 96 l 686 0 l 20 0 l 39 96 l 325 96 l 465 819 l 269 819 l 288 915 l 606 915 l 447 96 m 479 980 l 482 994 l 667 1156 l 801 1156 l 798 1137 l 564 980 l 479 980 z "},"Ľ":{"ha":833,"x_min":90,"x_max":819,"o":"m 90 0 l 267 915 l 397 915 l 239 106 l 695 106 l 675 0 l 90 0 m 589 694 l 593 717 l 686 915 l 819 915 l 814 890 l 661 694 l 589 694 z "},"ľ":{"ha":833,"x_min":-14,"x_max":918,"o":"m 414 96 l 671 96 l 652 0 l -14 0 l 5 96 l 292 96 l 450 910 l 254 910 l 272 1006 l 590 1006 l 414 96 m 688 786 l 693 808 l 785 1006 l 918 1006 l 913 981 l 760 786 l 688 786 z "},"Ŀ":{"ha":833,"x_min":90,"x_max":695,"o":"m 90 0 l 267 915 l 397 915 l 239 106 l 695 106 l 675 0 l 90 0 m 464 412 l 489 543 l 625 543 l 600 412 l 464 412 z "},"ŀ":{"ha":833,"x_min":20,"x_max":801,"o":"m 447 96 l 705 96 l 686 0 l 20 0 l 39 96 l 325 96 l 483 910 l 287 910 l 305 1006 l 623 1006 l 447 96 m 640 412 l 665 543 l 801 543 l 776 412 l 640 412 z "},"Ń":{"ha":833,"x_min":39,"x_max":829,"o":"m 496 0 l 292 766 q 269 594 282 657 l 154 0 l 39 0 l 216 915 l 367 915 l 575 143 q 599 329 583 248 l 713 915 l 829 915 l 652 0 l 496 0 m 475 981 l 477 994 l 663 1156 l 797 1156 l 793 1137 l 559 981 l 475 981 z "},"ń":{"ha":833,"x_min":54,"x_max":774,"o":"m 517 0 l 609 471 q 616 538 616 511 q 587 625 616 597 q 495 653 557 653 q 346 592 411 653 q 259 425 280 530 l 176 0 l 54 0 l 166 577 q 175 626 171 600 q 183 674 180 651 q 190 713 187 696 q 193 734 193 729 l 308 734 q 302 688 308 730 q 289 608 296 646 l 291 608 q 400 710 337 673 q 553 747 463 747 q 745 575 745 747 q 735 489 745 536 l 640 0 l 517 0 m 452 814 l 455 828 l 641 990 l 774 990 l 770 970 l 536 814 l 452 814 z "},"Ň":{"ha":833,"x_min":39,"x_max":829,"o":"m 496 0 l 292 766 q 269 594 282 657 l 154 0 l 39 0 l 216 915 l 367 915 l 575 143 q 599 329 583 248 l 713 915 l 829 915 l 652 0 l 496 0 m 599 981 l 488 981 l 347 1143 l 350 1156 l 420 1156 l 559 1063 l 561 1063 l 728 1156 l 799 1156 l 796 1143 l 599 981 z "},"ň":{"ha":833,"x_min":54,"x_max":762,"o":"m 517 0 l 609 471 q 616 538 616 511 q 587 625 616 597 q 495 653 557 653 q 346 592 411 653 q 259 425 280 530 l 176 0 l 54 0 l 166 577 q 175 626 171 600 q 183 674 180 651 q 190 713 187 696 q 193 734 193 729 l 308 734 q 302 688 308 730 q 289 608 296 646 l 291 608 q 400 710 337 673 q 553 747 463 747 q 745 575 745 747 q 735 489 745 536 l 640 0 l 517 0 m 562 814 l 451 814 l 311 977 l 313 990 l 384 990 l 523 897 l 524 897 l 691 990 l 762 990 l 760 977 l 562 814 z "},"Ő":{"ha":833,"x_min":69,"x_max":891,"o":"m 342 -14 q 137 65 205 -14 q 69 292 69 144 q 103 530 69 400 q 196 749 136 659 q 338 884 255 839 q 526 929 420 929 q 730 854 661 929 q 800 629 800 779 q 767 395 800 524 q 673 173 734 265 q 528 33 612 80 q 342 -14 444 -14 m 663 619 q 506 823 663 823 q 349 756 414 823 q 245 551 284 688 q 206 302 206 414 q 363 92 206 92 q 482 127 431 92 q 573 238 534 162 q 638 426 613 314 q 663 619 663 538 m 589 980 l 592 994 l 764 1156 l 891 1156 l 887 1136 l 653 980 l 589 980 m 342 980 l 345 994 l 517 1156 l 644 1156 l 640 1136 l 406 980 l 342 980 z "},"ő":{"ha":833,"x_min":76,"x_max":872,"o":"m 339 -14 q 144 53 212 -14 q 76 249 76 120 q 88 368 76 302 q 230 652 125 557 q 491 747 334 747 q 692 685 626 747 q 758 496 758 623 q 729 303 758 405 q 646 130 701 202 q 513 22 591 58 q 339 -14 435 -14 m 629 488 q 592 615 629 573 q 475 657 555 657 q 327 605 386 657 q 236 449 269 553 q 204 253 204 345 q 355 77 204 77 q 472 105 424 77 q 555 192 520 133 q 610 338 590 251 q 629 488 629 425 m 570 814 l 573 828 l 745 990 l 872 990 l 868 970 l 634 814 l 570 814 m 323 814 l 326 828 l 498 990 l 625 990 l 621 970 l 387 814 l 323 814 z "},"Ŕ":{"ha":833,"x_min":39,"x_max":824,"o":"m 578 0 l 406 390 l 244 390 l 168 0 l 39 0 l 216 915 l 543 915 q 754 863 685 915 q 824 719 824 812 q 789 580 824 648 q 687 465 754 511 q 534 405 620 418 l 727 0 l 578 0 m 690 696 q 510 811 690 811 l 326 811 l 264 492 l 454 492 q 583 519 529 492 q 664 595 637 546 q 690 696 690 644 m 441 981 l 444 994 l 629 1156 l 763 1156 l 759 1137 l 525 981 l 441 981 z "},"ŕ":{"ha":833,"x_min":128,"x_max":781,"o":"m 758 623 q 617 635 686 635 q 425 553 509 635 q 317 345 342 471 l 250 0 l 128 0 l 220 475 q 237 671 237 568 l 235 734 l 351 734 q 355 647 355 700 q 351 564 355 602 l 355 564 q 443 676 404 641 q 530 729 482 711 q 643 747 578 747 q 781 736 715 747 l 758 623 m 420 814 l 422 828 l 608 990 l 742 990 l 738 970 l 504 814 l 420 814 z "},"Ř":{"ha":833,"x_min":39,"x_max":824,"o":"m 578 0 l 406 390 l 244 390 l 168 0 l 39 0 l 216 915 l 543 915 q 754 863 685 915 q 824 719 824 812 q 789 580 824 648 q 687 465 754 511 q 534 405 620 418 l 727 0 l 578 0 m 690 696 q 510 811 690 811 l 326 811 l 264 492 l 454 492 q 583 519 529 492 q 664 595 637 546 q 690 696 690 644 m 581 981 l 470 981 l 330 1143 l 332 1156 l 403 1156 l 542 1063 l 543 1063 l 710 1156 l 781 1156 l 779 1143 l 581 981 z "},"ř":{"ha":833,"x_min":128,"x_max":781,"o":"m 758 623 q 617 635 686 635 q 425 553 509 635 q 317 345 342 471 l 250 0 l 128 0 l 220 475 q 237 671 237 568 l 235 734 l 351 734 q 355 647 355 700 q 351 564 355 602 l 355 564 q 443 676 404 641 q 530 729 482 711 q 643 747 578 747 q 781 736 715 747 l 758 623 m 576 814 l 465 814 l 324 977 l 327 990 l 397 990 l 536 897 l 538 897 l 705 990 l 776 990 l 773 977 l 576 814 z "},"Ś":{"ha":833,"x_min":27,"x_max":809,"o":"m 340 -14 q 27 229 30 -14 l 157 254 q 210 128 159 168 q 363 87 262 87 q 535 129 471 87 q 614 249 599 171 l 617 279 q 596 342 617 317 q 539 385 576 368 q 397 429 503 402 q 261 475 298 456 q 201 515 224 493 q 166 566 178 538 q 155 632 155 595 q 179 748 155 690 q 252 846 203 805 q 370 908 300 888 q 526 929 440 929 q 737 878 671 929 q 809 709 803 827 l 677 687 q 635 797 676 762 q 507 831 593 831 q 287 687 316 831 l 284 659 q 300 607 284 627 q 343 573 316 587 q 406 549 370 559 q 482 528 442 539 q 649 470 603 496 q 722 406 696 444 q 749 309 749 368 q 721 181 749 243 q 641 76 693 119 q 513 10 588 33 q 340 -14 437 -14 m 473 981 l 476 994 l 662 1156 l 795 1156 l 791 1137 l 557 981 l 473 981 z "},"ś":{"ha":833,"x_min":75,"x_max":741,"o":"m 347 -14 q 144 30 208 -14 q 75 168 79 73 l 186 189 q 226 103 189 130 q 365 77 264 77 q 520 115 468 77 q 572 214 572 152 q 544 269 572 247 q 452 309 516 292 l 373 330 q 247 375 283 355 q 191 424 211 395 q 171 494 171 452 q 193 591 171 543 q 258 675 216 640 q 361 727 300 709 q 496 745 422 745 q 679 700 616 745 q 741 569 741 654 l 629 555 l 629 559 q 593 630 629 606 q 479 654 558 654 q 338 622 385 654 q 290 532 290 589 q 314 480 290 500 q 397 446 338 460 q 586 389 547 406 q 649 348 625 371 q 683 302 673 326 q 692 248 692 278 q 650 116 692 178 q 528 20 607 53 q 347 -14 450 -14 m 418 814 l 420 828 l 606 990 l 740 990 l 736 970 l 502 814 l 418 814 z "},"Ţ":{"ha":833,"x_min":138,"x_max":888,"o":"m 567 809 l 410 0 l 281 0 l 438 809 l 138 809 l 158 915 l 888 915 l 867 809 l 567 809 m 176 -287 l 180 -264 l 272 -66 l 406 -66 l 401 -92 l 247 -287 l 176 -287 z "},"ţ":{"ha":833,"x_min":182,"x_max":729,"o":"m 182 637 l 200 734 l 315 734 l 392 925 l 473 925 l 436 734 l 729 734 l 711 637 l 418 637 l 332 195 l 328 165 q 354 109 328 127 q 435 90 380 90 q 640 113 525 90 l 623 20 q 389 -11 503 -11 q 248 23 295 -11 q 201 128 201 56 q 207 182 201 159 l 296 637 l 182 637 m 199 -287 l 203 -264 l 295 -66 l 429 -66 l 424 -92 l 270 -287 l 199 -287 z "},"Ť":{"ha":833,"x_min":138,"x_max":888,"o":"m 567 809 l 410 0 l 281 0 l 438 809 l 138 809 l 158 915 l 888 915 l 867 809 l 567 809 m 595 981 l 484 981 l 343 1143 l 346 1156 l 416 1156 l 555 1063 l 557 1063 l 724 1156 l 795 1156 l 792 1143 l 595 981 z "},"ť":{"ha":833,"x_min":121,"x_max":952,"o":"m 121 637 l 140 734 l 255 734 l 332 925 l 413 925 l 376 734 l 669 734 l 650 637 l 357 637 l 271 195 l 268 165 q 294 109 268 127 q 374 90 319 90 q 580 113 465 90 l 562 20 q 329 -11 443 -11 q 188 23 235 -11 q 141 128 141 56 q 146 182 141 159 l 235 637 l 121 637 m 722 786 l 727 808 l 819 1006 l 952 1006 l 947 981 l 793 786 l 722 786 z "},"Ů":{"ha":833,"x_min":75,"x_max":842,"o":"m 336 -14 q 137 39 200 -14 q 75 204 75 92 q 87 320 75 256 l 203 915 l 332 915 l 220 338 q 207 222 207 269 q 241 122 207 153 q 356 92 275 92 q 520 147 465 92 q 603 347 574 203 l 713 915 l 842 915 l 729 332 q 601 69 694 152 q 336 -14 508 -14 m 517 886 q 415 915 452 886 q 377 996 377 945 q 401 1074 377 1036 q 470 1135 425 1113 q 570 1156 515 1156 q 673 1128 635 1156 q 711 1047 711 1099 q 686 966 711 1004 q 616 907 661 928 q 517 886 572 886 m 627 1031 q 607 1065 627 1053 q 555 1078 587 1078 q 487 1059 513 1078 q 460 1013 460 1040 q 479 977 460 990 q 533 964 498 964 q 601 984 576 964 q 627 1031 627 1004 z "},"ů":{"ha":833,"x_min":92,"x_max":783,"o":"m 319 734 l 229 269 q 219 185 219 220 q 248 104 219 128 q 344 81 277 81 q 495 142 433 81 q 577 309 557 203 l 660 734 l 783 734 l 671 157 q 662 108 666 134 q 653 60 657 83 q 647 21 650 37 q 644 0 644 5 l 529 0 q 536 53 529 7 q 548 125 543 98 l 546 125 q 427 18 490 50 q 284 -14 364 -14 q 138 26 185 -14 q 92 151 92 65 q 102 245 92 192 l 197 734 l 319 734 m 496 779 q 394 808 431 779 q 356 888 356 838 q 380 967 356 928 q 449 1027 404 1006 q 549 1049 494 1049 q 652 1021 614 1049 q 690 940 690 992 q 665 859 690 897 q 595 800 640 821 q 496 779 551 779 m 606 924 q 586 958 606 945 q 534 970 566 970 q 466 951 492 970 q 439 905 439 932 q 458 870 439 883 q 512 857 477 857 q 580 877 555 857 q 606 924 606 897 z "},"Ű":{"ha":833,"x_min":75,"x_max":899,"o":"m 336 -14 q 137 39 200 -14 q 75 204 75 92 q 87 320 75 256 l 203 915 l 332 915 l 220 338 q 207 222 207 269 q 241 122 207 153 q 356 92 275 92 q 520 147 465 92 q 603 347 574 203 l 713 915 l 842 915 l 729 332 q 601 69 694 152 q 336 -14 508 -14 m 597 981 l 600 994 l 772 1156 l 899 1156 l 895 1137 l 661 981 l 597 981 m 351 981 l 353 994 l 526 1156 l 652 1156 l 648 1137 l 414 981 l 351 981 z "},"ű":{"ha":833,"x_min":92,"x_max":871,"o":"m 319 734 l 229 269 q 219 185 219 220 q 248 104 219 128 q 344 81 277 81 q 495 142 433 81 q 577 309 557 203 l 660 734 l 783 734 l 671 157 q 662 108 666 134 q 653 60 657 83 q 647 21 650 37 q 644 0 644 5 l 529 0 q 536 53 529 7 q 548 125 543 98 l 546 125 q 427 18 490 50 q 284 -14 364 -14 q 138 26 185 -14 q 92 151 92 65 q 102 245 92 192 l 197 734 l 319 734 m 569 814 l 572 828 l 744 990 l 871 990 l 867 970 l 633 814 l 569 814 m 322 814 l 325 828 l 497 990 l 624 990 l 620 970 l 386 814 l 322 814 z "},"Ź":{"ha":833,"x_min":-22,"x_max":858,"o":"m 712 0 l -22 0 l -3 97 l 690 809 l 185 809 l 205 915 l 858 915 l 840 821 l 146 106 l 732 106 l 712 0 m 461 981 l 464 994 l 650 1156 l 783 1156 l 779 1137 l 545 981 l 461 981 z "},"ź":{"ha":833,"x_min":28,"x_max":770,"o":"m 28 0 l 47 93 l 614 640 l 180 640 l 198 734 l 770 734 l 753 641 l 184 94 l 671 94 l 653 0 l 28 0 m 417 814 l 420 828 l 606 990 l 739 990 l 735 970 l 501 814 l 417 814 z "},"Ż":{"ha":833,"x_min":-22,"x_max":858,"o":"m 712 0 l -22 0 l -3 97 l 690 809 l 185 809 l 205 915 l 858 915 l 840 821 l 146 106 l 732 106 l 712 0 m 477 981 l 503 1111 l 638 1111 l 613 981 l 477 981 z "},"ż":{"ha":833,"x_min":28,"x_max":770,"o":"m 28 0 l 47 93 l 614 640 l 180 640 l 198 734 l 770 734 l 753 641 l 184 94 l 671 94 l 653 0 l 28 0 m 446 876 l 471 1006 l 607 1006 l 582 876 l 446 876 z "},"Γ":{"ha":833,"x_min":81,"x_max":863,"o":"m 210 0 l 81 0 l 258 915 l 863 915 l 842 809 l 368 809 l 210 0 z "},"Θ":{"ha":833,"x_min":69,"x_max":800,"o":"m 342 -14 q 137 65 205 -14 q 69 292 69 144 q 103 530 69 400 q 196 749 136 659 q 338 884 255 839 q 526 929 420 929 q 730 854 661 929 q 800 629 800 779 q 767 395 800 524 q 673 173 734 265 q 528 33 612 80 q 342 -14 444 -14 m 663 619 q 506 823 663 823 q 349 756 414 823 q 245 551 284 688 q 206 302 206 414 q 363 92 206 92 q 482 127 431 92 q 573 238 534 162 q 638 426 613 314 q 663 619 663 538 m 559 513 l 538 409 l 311 409 l 332 513 l 559 513 z "},"Φ":{"ha":833,"x_min":20,"x_max":858,"o":"m 462 140 l 434 140 l 406 -7 l 283 -7 l 311 140 l 283 140 q 91 212 162 140 q 20 404 20 284 q 71 604 20 507 q 214 752 123 700 q 420 805 306 805 l 441 805 l 463 922 l 586 922 l 564 805 l 583 805 q 786 739 714 805 q 858 557 858 673 q 805 353 858 453 q 661 197 752 254 q 462 140 569 140 m 725 543 q 678 667 725 626 q 548 708 631 708 l 545 708 l 453 236 l 461 236 q 568 259 519 236 q 652 327 616 283 q 706 430 687 370 q 725 543 725 489 m 151 410 q 195 282 151 329 q 322 236 238 236 l 330 236 l 422 708 l 416 708 q 276 669 336 708 q 183 558 216 631 q 151 410 151 486 z "},"α":{"ha":833,"x_min":71,"x_max":863,"o":"m 561 161 q 283 -14 449 -14 q 122 43 174 -14 q 71 215 71 99 q 87 363 71 280 q 450 747 163 747 q 586 703 534 747 q 654 574 639 659 l 656 574 q 736 734 683 646 l 863 734 q 772 569 821 671 q 700 387 724 467 q 682 173 682 267 q 700 0 682 72 l 576 0 q 564 161 564 57 l 561 161 m 199 230 q 230 116 199 152 q 327 81 261 81 q 480 159 408 81 q 594 370 551 238 l 595 416 q 446 657 595 657 q 313 604 363 657 q 231 433 262 550 q 199 230 199 317 z "},"δ":{"ha":833,"x_min":59,"x_max":817,"o":"m 621 380 q 609 466 621 427 q 579 538 597 505 q 516 630 562 571 q 274 478 360 578 q 189 252 189 378 q 233 123 189 170 q 359 77 277 77 q 495 116 437 77 q 588 230 554 155 q 621 380 621 305 m 545 909 l 441 915 l 614 703 q 700 586 675 629 q 738 498 724 543 q 751 401 751 453 q 722 245 751 323 q 636 108 692 167 q 505 18 581 50 q 341 -14 429 -14 q 133 53 208 -14 q 59 239 59 119 q 162 512 59 394 q 465 696 264 631 l 292 918 l 309 1006 l 817 1006 l 798 909 l 545 909 z "},"ε":{"ha":833,"x_min":81,"x_max":770,"o":"m 365 77 q 508 106 438 77 q 632 186 578 135 l 690 119 q 339 -14 555 -14 q 147 30 213 -14 q 81 155 81 73 q 112 267 81 218 q 196 347 143 316 q 308 382 248 377 l 308 384 q 210 427 246 391 q 174 518 174 464 q 215 635 174 581 q 332 718 256 689 q 505 747 409 747 q 672 718 606 747 q 770 622 738 689 l 671 562 q 604 633 649 610 q 488 656 559 656 q 345 621 393 656 q 298 528 298 585 q 360 454 298 478 q 567 429 422 429 l 549 338 q 350 320 419 338 q 246 267 281 303 q 211 176 211 230 q 365 77 211 77 z "},"σ":{"ha":833,"x_min":49,"x_max":905,"o":"m 325 -14 q 118 54 186 -14 q 49 245 49 121 q 60 355 49 290 q 217 635 96 536 q 526 734 338 734 l 905 734 l 886 637 l 781 637 l 682 642 l 681 639 q 718 544 701 595 q 734 427 734 492 q 683 207 734 313 q 538 43 632 100 q 325 -14 445 -14 m 608 449 q 572 637 608 549 l 511 637 q 371 610 435 637 q 264 527 308 582 q 199 398 220 472 q 178 253 178 324 q 337 77 178 77 q 481 121 420 77 q 575 253 542 165 q 608 449 608 340 z "},"τ":{"ha":833,"x_min":149,"x_max":785,"o":"m 325 637 q 218 629 269 637 q 149 612 167 621 l 169 714 q 224 728 189 722 q 296 734 260 734 l 785 734 l 766 637 l 513 637 l 422 174 l 419 143 q 489 82 419 82 q 582 89 528 82 l 565 0 q 507 -9 548 -4 q 431 -14 467 -14 q 324 14 358 -14 q 290 100 290 42 q 296 154 290 123 l 391 637 l 325 637 z "},"φ":{"ha":833,"x_min":22,"x_max":816,"o":"m 338 -288 l 230 -288 l 284 -12 q 89 60 155 -7 q 22 252 22 127 q 68 481 22 369 q 195 663 113 594 q 383 750 277 732 l 380 658 q 282 612 326 646 q 206 523 238 578 q 155 397 174 468 q 137 260 137 326 q 300 74 137 83 l 377 467 q 472 675 404 602 q 640 749 541 749 q 770 688 724 749 q 816 515 816 628 q 788 325 816 427 q 706 149 761 223 q 572 34 651 75 q 393 -12 493 -7 l 338 -288 m 703 524 q 683 628 703 591 q 625 665 664 665 q 486 469 524 665 l 409 74 q 687 385 629 83 q 703 524 703 468 z "},"‗":{"ha":833,"x_min":-131,"x_max":749,"o":"m -104 -149 l -91 -84 l 749 -84 l 736 -149 l -104 -149 m -131 -288 l -118 -223 l 722 -223 l 709 -288 l -131 -288 z "},"‼":{"ha":833,"x_min":90,"x_max":779,"o":"m 260 269 l 159 269 l 269 914 l 401 914 l 260 269 m 90 0 l 116 136 l 248 136 l 221 0 l 90 0 m 637 269 l 537 269 l 646 914 l 779 914 l 637 269 m 467 0 l 494 136 l 625 136 l 599 0 l 467 0 z "},"ⁿ":{"ha":833,"x_min":242,"x_max":670,"o":"m 519 352 l 572 622 q 578 671 578 652 q 562 718 578 705 q 509 730 545 730 q 425 696 460 730 q 377 599 389 663 l 329 352 l 242 352 l 309 699 l 325 793 l 406 793 l 395 718 l 397 718 q 461 778 425 755 q 554 801 497 801 q 642 778 614 801 q 670 702 670 754 q 664 646 670 677 l 607 352 l 519 352 z "},"₧":{"ha":833,"x_min":-41,"x_max":804,"o":"m 196 444 l 155 444 l 68 0 l -41 0 l 137 915 l 279 915 q 464 755 464 915 q 429 602 464 677 q 334 485 395 526 q 196 444 273 444 m 618 -7 q 543 19 570 -7 q 515 93 515 44 l 515 104 l 591 115 l 591 109 q 631 56 591 56 q 682 108 672 56 l 684 122 q 636 197 684 159 q 565 313 565 253 q 583 383 565 351 q 634 433 602 416 q 712 450 666 450 q 780 425 756 450 q 804 357 804 399 q 804 343 804 347 l 728 335 l 729 346 q 721 377 729 366 q 699 389 713 389 q 652 339 662 389 l 650 327 q 663 292 650 309 q 705 252 675 275 q 770 140 770 202 q 728 38 770 82 q 618 -7 686 -7 m 353 734 q 329 799 353 781 q 265 818 306 818 l 227 818 l 174 539 l 217 539 q 289 565 259 539 q 335 641 318 591 q 353 734 353 691 m 303 375 l 316 441 l 377 441 l 436 537 l 484 537 l 465 441 l 566 441 l 553 375 l 452 375 l 402 115 l 400 97 q 438 62 400 62 q 488 66 469 62 l 475 1 q 404 -7 439 -7 q 307 73 307 -7 l 311 102 l 363 375 l 303 375 z "},"←":{"ha":833,"x_min":5,"x_max":827,"o":"m 157 201 q 237 68 195 156 l 189 68 q 5 218 102 169 l 5 243 q 189 393 102 292 l 237 393 q 157 260 195 305 l 827 260 l 827 201 l 157 201 z "},"↑":{"ha":833,"x_min":254,"x_max":579,"o":"m 387 629 q 254 549 342 591 l 254 597 q 404 781 355 684 l 429 781 q 579 597 478 684 l 579 549 q 446 629 491 591 l 446 -41 l 387 -41 l 387 629 z "},"→":{"ha":833,"x_min":5,"x_max":827,"o":"m 676 260 q 595 393 637 305 l 644 393 q 827 243 730 292 l 827 218 q 644 68 730 169 l 595 68 q 676 201 637 156 l 5 201 l 5 260 l 676 260 z "},"↓":{"ha":833,"x_min":254,"x_max":579,"o":"m 446 110 q 579 191 491 149 l 579 142 q 429 -41 478 56 l 404 -41 q 254 142 355 56 l 254 191 q 387 110 342 149 l 387 781 l 446 781 l 446 110 z "},"↔":{"ha":833,"x_min":5,"x_max":827,"o":"m 157 201 q 237 68 195 156 l 189 68 q 5 218 102 169 l 5 243 q 189 393 102 292 l 237 393 q 157 260 195 305 l 676 260 q 595 393 637 305 l 644 393 q 827 243 730 292 l 827 218 q 644 68 730 169 l 595 68 q 676 201 637 156 l 157 201 z "},"↕":{"ha":833,"x_min":254,"x_max":579,"o":"m 387 629 q 254 549 342 591 l 254 597 q 404 781 355 684 l 429 781 q 579 597 478 684 l 579 549 q 446 629 491 591 l 446 110 q 579 191 491 149 l 579 142 q 429 -41 478 56 l 404 -41 q 254 142 355 56 l 254 191 q 387 110 342 149 l 387 629 z "},"↨":{"ha":833,"x_min":254,"x_max":579,"o":"m 254 -71 l 579 -71 l 579 -125 l 254 -125 l 254 -71 m 387 629 q 254 549 342 591 l 254 597 q 404 781 355 684 l 429 781 q 579 597 478 684 l 579 549 q 446 629 491 591 l 446 110 q 579 191 491 149 l 579 142 q 429 -41 478 56 l 404 -41 q 254 142 355 56 l 254 191 q 387 110 342 149 l 387 629 z "},"∟":{"ha":833,"x_min":35,"x_max":798,"o":"m 35 829 l 99 829 l 99 64 l 798 64 l 798 0 l 35 0 l 35 829 z "},"∩":{"ha":833,"x_min":106,"x_max":727,"o":"m 106 -1 l 106 346 q 145 529 106 448 q 255 655 184 610 q 414 700 326 700 q 575 655 503 700 q 687 528 646 610 q 727 346 727 446 l 727 -1 l 657 -1 l 657 347 q 591 553 657 476 q 416 631 524 631 q 241 554 306 631 q 176 346 176 477 l 176 -1 l 106 -1 z "},"≡":{"ha":833,"x_min":79,"x_max":753,"o":"m 79 648 l 79 749 l 753 749 l 753 648 l 79 648 m 79 165 l 79 266 l 753 266 l 753 165 l 79 165 m 79 407 l 79 507 l 753 507 l 753 407 l 79 407 z "},"⌂":{"ha":833,"x_min":94,"x_max":739,"o":"m 94 0 l 94 431 l 416 734 l 739 431 l 739 0 l 94 0 m 150 58 l 683 58 l 683 405 l 416 656 l 150 405 l 150 58 z "},"⌐":{"ha":833,"x_min":78,"x_max":753,"o":"m 178 412 l 178 122 l 78 122 l 79 511 l 753 511 l 753 412 l 178 412 z "},"⌠":{"ha":833,"x_min":368,"x_max":696,"o":"m 466 -417 l 368 -417 l 368 819 q 423 1066 368 977 q 580 1156 479 1156 q 662 1132 627 1156 q 696 1069 696 1107 q 679 1026 696 1042 q 638 1009 662 1009 q 597 1021 612 1009 q 573 1048 583 1034 q 554 1075 563 1063 q 530 1087 545 1087 q 480 1036 495 1087 q 466 871 466 985 l 466 -417 z "},"⌡":{"ha":833,"x_min":138,"x_max":466,"o":"m 368 1156 l 466 1156 l 466 -79 q 410 -329 466 -240 q 254 -417 353 -417 q 172 -392 206 -417 q 138 -330 138 -368 q 155 -287 138 -303 q 195 -270 172 -270 q 236 -282 222 -270 q 261 -309 251 -294 q 280 -336 271 -323 q 304 -348 289 -348 q 353 -297 338 -348 q 368 -132 368 -245 l 368 1156 z "},"─":{"ha":833,"x_min":-7,"x_max":840,"o":"m -7 376 l -7 475 l 840 475 l 840 376 l -7 376 z "},"│":{"ha":833,"x_min":368,"x_max":466,"o":"m 368 1156 l 466 1156 l 466 -417 l 368 -417 l 368 1156 z "},"┌":{"ha":833,"x_min":368,"x_max":840,"o":"m 368 475 l 840 475 l 840 376 l 466 376 l 466 -417 l 368 -417 l 368 475 z "},"┐":{"ha":833,"x_min":-7,"x_max":466,"o":"m -7 376 l -7 475 l 466 475 l 466 -417 l 368 -417 l 368 376 l -7 376 z "},"└":{"ha":833,"x_min":368,"x_max":840,"o":"m 368 1156 l 466 1156 l 466 475 l 840 475 l 840 376 l 368 376 l 368 1156 z "},"┘":{"ha":833,"x_min":-7,"x_max":466,"o":"m -7 376 l -7 475 l 368 475 l 368 1156 l 466 1156 l 466 376 l -7 376 z "},"├":{"ha":833,"x_min":368,"x_max":840,"o":"m 368 1156 l 466 1156 l 466 475 l 840 475 l 840 376 l 466 376 l 466 -417 l 368 -417 l 368 1156 z "},"┤":{"ha":833,"x_min":-7,"x_max":466,"o":"m -7 376 l -7 475 l 368 475 l 368 1156 l 466 1156 l 466 -417 l 368 -417 l 368 376 l -7 376 z "},"┬":{"ha":833,"x_min":-7,"x_max":840,"o":"m -7 376 l -7 475 l 840 475 l 840 376 l 466 376 l 466 -417 l 368 -417 l 368 376 l -7 376 z "},"┴":{"ha":833,"x_min":-7,"x_max":840,"o":"m -7 376 l -7 475 l 368 475 l 368 1156 l 466 1156 l 466 475 l 840 475 l 840 376 l -7 376 z "},"┼":{"ha":833,"x_min":-7,"x_max":840,"o":"m -7 376 l -7 475 l 368 475 l 368 1156 l 466 1156 l 466 475 l 840 475 l 840 376 l 466 376 l 466 -417 l 368 -417 l 368 376 l -7 376 z "},"═":{"ha":833,"x_min":-7,"x_max":840,"o":"m -7 498 l -7 597 l 840 597 l 840 498 l -7 498 m -7 254 l -7 353 l 840 353 l 840 254 l -7 254 z "},"║":{"ha":833,"x_min":245,"x_max":588,"o":"m 245 1156 l 344 1156 l 344 -417 l 245 -417 l 245 1156 m 490 1156 l 588 1156 l 588 -417 l 490 -417 l 490 1156 z "},"╒":{"ha":833,"x_min":368,"x_max":840,"o":"m 368 597 l 840 597 l 840 498 l 466 498 l 466 353 l 840 353 l 840 254 l 466 254 l 466 -417 l 368 -417 l 368 597 z "},"╓":{"ha":833,"x_min":245,"x_max":840,"o":"m 840 475 l 840 376 l 588 376 l 588 -417 l 490 -417 l 490 376 l 344 376 l 344 -417 l 245 -417 l 245 475 l 840 475 z "},"╔":{"ha":833,"x_min":245,"x_max":840,"o":"m 245 597 l 840 597 l 840 498 l 344 498 l 344 -417 l 245 -417 l 245 597 m 490 353 l 840 353 l 840 254 l 588 254 l 588 -417 l 490 -417 l 490 353 z "},"╕":{"ha":833,"x_min":-7,"x_max":466,"o":"m -7 254 l -7 353 l 368 353 l 368 498 l -7 498 l -7 597 l 466 597 l 466 -417 l 368 -417 l 368 254 l -7 254 z "},"╖":{"ha":833,"x_min":-7,"x_max":588,"o":"m -7 376 l -7 475 l 588 475 l 588 -417 l 490 -417 l 490 376 l 344 376 l 344 -417 l 245 -417 l 245 376 l -7 376 z "},"╗":{"ha":833,"x_min":-7,"x_max":588,"o":"m 588 597 l 588 -417 l 490 -417 l 490 498 l -7 498 l -7 597 l 588 597 m 344 -417 l 245 -417 l 245 254 l -7 254 l -7 353 l 344 353 l 344 -417 z "},"╘":{"ha":833,"x_min":368,"x_max":840,"o":"m 368 1156 l 466 1156 l 466 597 l 840 597 l 840 498 l 466 498 l 466 353 l 840 353 l 840 254 l 368 254 l 368 1156 z "},"╙":{"ha":833,"x_min":245,"x_max":840,"o":"m 490 1156 l 588 1156 l 588 475 l 840 475 l 840 376 l 245 376 l 245 1156 l 344 1156 l 344 475 l 490 475 l 490 1156 z "},"╚":{"ha":833,"x_min":245,"x_max":840,"o":"m 245 1156 l 344 1156 l 344 353 l 840 353 l 840 254 l 245 254 l 245 1156 m 490 1156 l 588 1156 l 588 597 l 840 597 l 840 498 l 490 498 l 490 1156 z "},"╛":{"ha":833,"x_min":-7,"x_max":466,"o":"m -7 254 l -7 353 l 368 353 l 368 498 l -7 498 l -7 597 l 368 597 l 368 1156 l 466 1156 l 466 254 l -7 254 z "},"╜":{"ha":833,"x_min":-7,"x_max":588,"o":"m 588 376 l -7 376 l -7 475 l 245 475 l 245 1156 l 344 1156 l 344 475 l 490 475 l 490 1156 l 588 1156 l 588 376 z "},"╝":{"ha":833,"x_min":-7,"x_max":588,"o":"m 588 254 l -7 254 l -7 353 l 490 353 l 490 1156 l 588 1156 l 588 254 m 245 1156 l 344 1156 l 344 498 l -7 498 l -7 597 l 245 597 l 245 1156 z "},"╞":{"ha":833,"x_min":368,"x_max":840,"o":"m 368 1156 l 466 1156 l 466 597 l 840 597 l 840 498 l 466 498 l 466 353 l 840 353 l 840 254 l 466 254 l 466 -417 l 368 -417 l 368 1156 z "},"╟":{"ha":833,"x_min":245,"x_max":840,"o":"m 490 1156 l 588 1156 l 588 475 l 840 475 l 840 376 l 588 376 l 588 -417 l 490 -417 l 490 1156 m 245 1156 l 344 1156 l 344 -417 l 245 -417 l 245 1156 z "},"╠":{"ha":833,"x_min":245,"x_max":840,"o":"m 344 -417 l 245 -417 l 245 1156 l 344 1156 l 344 -417 m 490 353 l 840 353 l 840 254 l 588 254 l 588 -417 l 490 -417 l 490 353 m 490 1156 l 588 1156 l 588 597 l 840 597 l 840 498 l 490 498 l 490 1156 z "},"╡":{"ha":833,"x_min":-7,"x_max":466,"o":"m -7 254 l -7 353 l 368 353 l 368 498 l -7 498 l -7 597 l 368 597 l 368 1156 l 466 1156 l 466 -417 l 368 -417 l 368 254 l -7 254 z "},"╢":{"ha":833,"x_min":-7,"x_max":588,"o":"m -7 376 l -7 475 l 245 475 l 245 1156 l 344 1156 l 344 -417 l 245 -417 l 245 376 l -7 376 m 490 1156 l 588 1156 l 588 -417 l 490 -417 l 490 1156 z "},"╣":{"ha":833,"x_min":-7,"x_max":588,"o":"m 490 1156 l 588 1156 l 588 -417 l 490 -417 l 490 1156 m 245 1156 l 344 1156 l 344 498 l -7 498 l -7 597 l 245 597 l 245 1156 m 344 -417 l 245 -417 l 245 254 l -7 254 l -7 353 l 344 353 l 344 -417 z "},"╤":{"ha":833,"x_min":-7,"x_max":840,"o":"m -7 254 l -7 353 l 840 353 l 840 254 l 466 254 l 466 -417 l 368 -417 l 368 254 l -7 254 m -7 498 l -7 597 l 840 597 l 840 498 l -7 498 z "},"╥":{"ha":833,"x_min":-7,"x_max":840,"o":"m -7 376 l -7 475 l 840 475 l 840 376 l 588 376 l 588 -417 l 490 -417 l 490 376 l 344 376 l 344 -417 l 245 -417 l 245 376 l -7 376 z "},"╦":{"ha":833,"x_min":-7,"x_max":840,"o":"m 344 -417 l 245 -417 l 245 254 l -7 254 l -7 353 l 344 353 l 344 -417 m 490 353 l 840 353 l 840 254 l 588 254 l 588 -417 l 490 -417 l 490 353 m 840 597 l 840 498 l -7 498 l -7 597 l 840 597 z "},"╧":{"ha":833,"x_min":-7,"x_max":840,"o":"m -7 498 l -7 597 l 368 597 l 368 1156 l 466 1156 l 466 597 l 840 597 l 840 498 l -7 498 m -7 254 l -7 353 l 840 353 l 840 254 l -7 254 z "},"╨":{"ha":833,"x_min":-7,"x_max":840,"o":"m -7 376 l -7 475 l 245 475 l 245 1156 l 344 1156 l 344 475 l 490 475 l 490 1156 l 588 1156 l 588 475 l 840 475 l 840 376 l -7 376 z "},"╩":{"ha":833,"x_min":-7,"x_max":840,"o":"m 490 1156 l 588 1156 l 588 597 l 840 597 l 840 498 l 490 498 l 490 1156 m 245 1156 l 344 1156 l 344 498 l -7 498 l -7 597 l 245 597 l 245 1156 m -7 254 l -7 353 l 840 353 l 840 254 l -7 254 z "},"╪":{"ha":833,"x_min":-7,"x_max":840,"o":"m -7 254 l -7 353 l 368 353 l 368 498 l -7 498 l -7 597 l 368 597 l 368 1156 l 466 1156 l 466 597 l 840 597 l 840 498 l 466 498 l 466 353 l 840 353 l 840 254 l 466 254 l 466 -417 l 368 -417 l 368 254 l -7 254 z "},"╫":{"ha":833,"x_min":-7,"x_max":840,"o":"m 490 1156 l 588 1156 l 588 475 l 840 475 l 840 376 l 588 376 l 588 -417 l 490 -417 l 490 376 l 344 376 l 344 -417 l 245 -417 l 245 376 l -7 376 l -7 475 l 245 475 l 245 1156 l 344 1156 l 344 475 l 490 475 l 490 1156 z "},"╬":{"ha":833,"x_min":-7,"x_max":840,"o":"m 490 1156 l 588 1156 l 588 597 l 840 597 l 840 498 l 490 498 l 490 1156 m 344 -417 l 245 -417 l 245 254 l -7 254 l -7 353 l 344 353 l 344 -417 m 490 353 l 840 353 l 840 254 l 588 254 l 588 -417 l 490 -417 l 490 353 m 245 1156 l 344 1156 l 344 498 l -7 498 l -7 597 l 245 597 l 245 1156 z "},"▀":{"ha":833,"x_min":0,"x_max":833,"o":"m 833 425 l 0 425 l 0 1156 l 833 1156 l 833 425 z "},"▄":{"ha":833,"x_min":0,"x_max":833,"o":"m 833 -417 l 0 -417 l 0 425 l 833 425 l 833 -417 z "},"█":{"ha":833,"x_min":0,"x_max":833,"o":"m 833 -417 l 0 -417 l 0 1156 l 833 1156 l 833 -417 z "},"▌":{"ha":833,"x_min":0,"x_max":417,"o":"m 417 -417 l 0 -417 l 0 1156 l 417 1156 l 417 -417 z "},"▐":{"ha":833,"x_min":416,"x_max":833,"o":"m 833 -417 l 416 -417 l 416 1156 l 833 1156 l 833 -417 z "},"░":{"ha":833,"x_min":0,"x_max":764,"o":"m 0 895 l 70 895 l 70 829 l 0 829 l 0 895 m 278 895 l 348 895 l 348 829 l 278 829 l 278 895 m 556 895 l 626 895 l 626 829 l 556 829 l 556 895 m 139 763 l 208 763 l 208 698 l 139 698 l 139 763 m 417 763 l 486 763 l 486 698 l 417 698 l 417 763 m 695 763 l 764 763 l 764 698 l 695 698 l 695 763 m 0 633 l 70 633 l 70 568 l 0 568 l 0 633 m 278 633 l 348 633 l 348 568 l 278 568 l 278 633 m 556 633 l 626 633 l 626 568 l 556 568 l 556 633 m 139 500 l 208 500 l 208 435 l 139 435 l 139 500 m 417 500 l 486 500 l 486 435 l 417 435 l 417 500 m 695 500 l 764 500 l 764 435 l 695 435 l 695 500 m 0 370 l 70 370 l 70 305 l 0 305 l 0 370 m 278 370 l 348 370 l 348 305 l 278 305 l 278 370 m 556 370 l 626 370 l 626 305 l 556 305 l 556 370 m 417 238 l 486 238 l 486 173 l 417 173 l 417 238 m 695 238 l 764 238 l 764 173 l 695 173 l 695 238 m 139 238 l 208 238 l 208 173 l 139 173 l 139 238 m 556 108 l 626 108 l 626 42 l 556 42 l 556 108 m 278 108 l 348 108 l 348 42 l 278 42 l 278 108 m 0 108 l 70 108 l 70 42 l 0 42 l 0 108 m 139 -24 l 208 -24 l 208 -88 l 139 -88 l 139 -24 m 417 -24 l 486 -24 l 486 -88 l 417 -88 l 417 -24 m 695 -24 l 764 -24 l 764 -88 l 695 -88 l 695 -24 m 556 -155 l 626 -155 l 626 -220 l 556 -220 l 556 -155 m 278 -155 l 348 -155 l 348 -220 l 278 -220 l 278 -155 m 0 -155 l 70 -155 l 70 -220 l 0 -220 l 0 -155 m 139 -286 l 208 -286 l 208 -351 l 139 -351 l 139 -286 m 417 -286 l 486 -286 l 486 -351 l 417 -351 l 417 -286 m 695 -286 l 764 -286 l 764 -351 l 695 -351 l 695 -286 m 139 1025 l 208 1025 l 208 959 l 139 959 l 139 1025 m 417 1025 l 486 1025 l 486 959 l 417 959 l 417 1025 m 695 1025 l 764 1025 l 764 959 l 695 959 l 695 1025 m 0 1156 l 70 1156 l 70 1091 l 0 1091 l 0 1156 m 278 1156 l 348 1156 l 348 1091 l 278 1091 l 278 1156 m 556 1156 l 626 1156 l 626 1091 l 556 1091 l 556 1156 z "},"▒":{"ha":833,"x_min":0,"x_max":834,"o":"m 69 895 l 139 895 l 139 829 l 69 829 l 69 895 m 208 895 l 278 895 l 278 829 l 208 829 l 208 895 m 347 895 l 417 895 l 417 829 l 347 829 l 347 895 m 486 895 l 556 895 l 556 829 l 486 829 l 486 895 m 625 895 l 695 895 l 695 829 l 625 829 l 625 895 m 764 895 l 834 895 l 834 829 l 764 829 l 764 895 m 0 763 l 69 763 l 69 698 l 0 698 l 0 763 m 139 763 l 208 763 l 208 698 l 139 698 l 139 763 m 278 763 l 347 763 l 347 698 l 278 698 l 278 763 m 417 763 l 486 763 l 486 698 l 417 698 l 417 763 m 556 763 l 625 763 l 625 698 l 556 698 l 556 763 m 695 763 l 764 763 l 764 698 l 695 698 l 695 763 m 69 633 l 139 633 l 139 568 l 69 568 l 69 633 m 208 633 l 278 633 l 278 568 l 208 568 l 208 633 m 347 633 l 417 633 l 417 568 l 347 568 l 347 633 m 486 633 l 556 633 l 556 568 l 486 568 l 486 633 m 625 633 l 695 633 l 695 568 l 625 568 l 625 633 m 764 633 l 834 633 l 834 568 l 764 568 l 764 633 m 0 500 l 69 500 l 69 435 l 0 435 l 0 500 m 139 500 l 208 500 l 208 435 l 139 435 l 139 500 m 278 500 l 347 500 l 347 435 l 278 435 l 278 500 m 417 500 l 486 500 l 486 435 l 417 435 l 417 500 m 556 500 l 625 500 l 625 435 l 556 435 l 556 500 m 695 500 l 764 500 l 764 435 l 695 435 l 695 500 m 69 370 l 139 370 l 139 305 l 69 305 l 69 370 m 208 370 l 278 370 l 278 305 l 208 305 l 208 370 m 347 370 l 417 370 l 417 305 l 347 305 l 347 370 m 486 370 l 556 370 l 556 305 l 486 305 l 486 370 m 625 370 l 695 370 l 695 305 l 625 305 l 625 370 m 764 370 l 834 370 l 834 305 l 764 305 l 764 370 m 0 238 l 69 238 l 69 173 l 0 173 l 0 238 m 278 238 l 347 238 l 347 173 l 278 173 l 278 238 m 417 238 l 486 238 l 486 173 l 417 173 l 417 238 m 556 238 l 625 238 l 625 173 l 556 173 l 556 238 m 695 238 l 764 238 l 764 173 l 695 173 l 695 238 m 139 238 l 208 238 l 208 173 l 139 173 l 139 238 m 764 108 l 834 108 l 834 42 l 764 42 l 764 108 m 625 108 l 695 108 l 695 42 l 625 42 l 625 108 m 486 108 l 556 108 l 556 42 l 486 42 l 486 108 m 347 108 l 417 108 l 417 42 l 347 42 l 347 108 m 208 108 l 278 108 l 278 42 l 208 42 l 208 108 m 69 108 l 139 108 l 139 42 l 69 42 l 69 108 m 0 -24 l 69 -24 l 69 -88 l 0 -88 l 0 -24 m 139 -24 l 208 -24 l 208 -88 l 139 -88 l 139 -24 m 278 -24 l 347 -24 l 347 -88 l 278 -88 l 278 -24 m 417 -24 l 486 -24 l 486 -88 l 417 -88 l 417 -24 m 556 -24 l 625 -24 l 625 -88 l 556 -88 l 556 -24 m 695 -24 l 764 -24 l 764 -88 l 695 -88 l 695 -24 m 764 -155 l 834 -155 l 834 -220 l 764 -220 l 764 -155 m 625 -155 l 695 -155 l 695 -220 l 625 -220 l 625 -155 m 486 -155 l 556 -155 l 556 -220 l 486 -220 l 486 -155 m 347 -155 l 417 -155 l 417 -220 l 347 -220 l 347 -155 m 208 -155 l 278 -155 l 278 -220 l 208 -220 l 208 -155 m 69 -155 l 139 -155 l 139 -220 l 69 -220 l 69 -155 m 0 -286 l 69 -286 l 69 -351 l 0 -351 l 0 -286 m 139 -286 l 208 -286 l 208 -351 l 139 -351 l 139 -286 m 278 -286 l 347 -286 l 347 -351 l 278 -351 l 278 -286 m 417 -286 l 486 -286 l 486 -351 l 417 -351 l 417 -286 m 556 -286 l 625 -286 l 625 -351 l 556 -351 l 556 -286 m 695 -286 l 764 -286 l 764 -351 l 695 -351 l 695 -286 m 0 1025 l 69 1025 l 69 959 l 0 959 l 0 1025 m 139 1025 l 208 1025 l 208 959 l 139 959 l 139 1025 m 278 1025 l 347 1025 l 347 959 l 278 959 l 278 1025 m 417 1025 l 486 1025 l 486 959 l 417 959 l 417 1025 m 556 1025 l 625 1025 l 625 959 l 556 959 l 556 1025 m 695 1025 l 764 1025 l 764 959 l 695 959 l 695 1025 m 69 1156 l 139 1156 l 139 1091 l 69 1091 l 69 1156 m 208 1156 l 278 1156 l 278 1091 l 208 1091 l 208 1156 m 347 1156 l 417 1156 l 417 1091 l 347 1091 l 347 1156 m 486 1156 l 556 1156 l 556 1091 l 486 1091 l 486 1156 m 625 1156 l 695 1156 l 695 1091 l 625 1091 l 625 1156 m 764 1156 l 834 1156 l 834 1091 l 764 1091 l 764 1156 z "},"▓":{"ha":833,"x_min":0,"x_max":834,"o":"m 834 -417 l 0 -417 l 0 -220 l 69 -220 l 69 -155 l 0 -155 l 0 42 l 69 42 l 69 108 l 0 108 l 0 305 l 69 305 l 69 370 l 0 370 l 0 566 l 69 566 l 69 633 l 0 633 l 0 829 l 69 829 l 69 895 l 0 895 l 0 1091 l 69 1091 l 69 1156 l 139 1156 l 139 1091 l 208 1091 l 208 1156 l 278 1156 l 278 1091 l 347 1091 l 347 1156 l 417 1156 l 417 1091 l 486 1091 l 486 1156 l 556 1156 l 556 1091 l 625 1091 l 625 1156 l 695 1156 l 695 1091 l 764 1091 l 764 1156 l 834 1156 l 834 1025 l 764 1025 l 764 959 l 834 959 l 834 763 l 764 763 l 764 698 l 834 698 l 834 500 l 764 500 l 764 435 l 834 435 l 834 238 l 764 238 l 764 173 l 834 173 l 834 -24 l 764 -24 l 764 -88 l 834 -88 l 834 -286 l 764 -286 l 764 -351 l 834 -351 l 834 -417 m 69 763 l 69 698 l 139 698 l 139 763 l 69 763 m 208 763 l 208 698 l 278 698 l 278 763 l 208 763 m 347 763 l 347 698 l 417 698 l 417 763 l 347 763 m 486 763 l 486 698 l 556 698 l 556 763 l 486 763 m 625 633 l 556 633 l 556 566 l 625 566 l 625 633 m 486 633 l 417 633 l 417 566 l 486 566 l 486 633 m 347 633 l 278 633 l 278 566 l 347 566 l 347 633 m 208 633 l 139 633 l 139 566 l 208 566 l 208 633 m 69 500 l 69 435 l 139 435 l 139 500 l 69 500 m 208 500 l 208 435 l 278 435 l 278 500 l 208 500 m 347 500 l 347 435 l 417 435 l 417 500 l 347 500 m 486 500 l 486 435 l 556 435 l 556 500 l 486 500 m 208 370 l 139 370 l 139 305 l 208 305 l 208 370 m 278 370 l 278 305 l 347 305 l 347 370 l 278 370 m 417 370 l 417 305 l 486 305 l 486 370 l 417 370 m 556 370 l 556 305 l 625 305 l 625 370 l 556 370 m 69 238 l 69 173 l 139 173 l 139 238 l 69 238 m 347 238 l 347 173 l 417 173 l 417 238 l 347 238 m 278 173 l 278 238 l 208 238 l 208 173 l 278 173 m 486 238 l 486 173 l 556 173 l 556 238 l 486 238 m 625 42 l 625 108 l 556 108 l 556 42 l 625 42 m 486 42 l 486 108 l 417 108 l 417 42 l 486 42 m 347 42 l 347 108 l 278 108 l 278 42 l 347 42 m 208 42 l 208 108 l 139 108 l 139 42 l 208 42 m 69 -24 l 69 -88 l 139 -88 l 139 -24 l 69 -24 m 208 -24 l 208 -88 l 278 -88 l 278 -24 l 208 -24 m 347 -24 l 347 -88 l 417 -88 l 417 -24 l 347 -24 m 486 -24 l 486 -88 l 556 -88 l 556 -24 l 486 -24 m 625 -220 l 625 -155 l 556 -155 l 556 -220 l 625 -220 m 486 -220 l 486 -155 l 417 -155 l 417 -220 l 486 -220 m 347 -220 l 347 -155 l 278 -155 l 278 -220 l 347 -220 m 208 -220 l 208 -155 l 139 -155 l 139 -220 l 208 -220 m 69 -286 l 69 -351 l 139 -351 l 139 -286 l 69 -286 m 208 -286 l 208 -351 l 278 -351 l 278 -286 l 208 -286 m 347 -286 l 347 -351 l 417 -351 l 417 -286 l 347 -286 m 486 -286 l 486 -351 l 556 -351 l 556 -286 l 486 -286 m 625 895 l 556 895 l 556 829 l 625 829 l 625 895 m 486 895 l 417 895 l 417 829 l 486 829 l 486 895 m 347 895 l 278 895 l 278 829 l 347 829 l 347 895 m 208 895 l 139 895 l 139 829 l 208 829 l 208 895 m 556 1025 l 486 1025 l 486 959 l 556 959 l 556 1025 m 417 1025 l 347 1025 l 347 959 l 417 959 l 417 1025 m 278 1025 l 208 1025 l 208 959 l 278 959 l 278 1025 m 139 1025 l 69 1025 l 69 959 l 139 959 l 139 1025 m 625 763 l 625 698 l 695 698 l 695 763 l 625 763 m 764 633 l 695 633 l 695 566 l 764 566 l 764 633 m 625 500 l 625 435 l 695 435 l 695 500 l 625 500 m 695 370 l 695 305 l 764 305 l 764 370 l 695 370 m 625 238 l 625 173 l 695 173 l 695 238 l 625 238 m 764 42 l 764 108 l 695 108 l 695 42 l 764 42 m 625 -24 l 625 -88 l 695 -88 l 695 -24 l 625 -24 m 764 -220 l 764 -155 l 695 -155 l 695 -220 l 764 -220 m 625 -286 l 625 -351 l 695 -351 l 695 -286 l 625 -286 m 764 895 l 695 895 l 695 829 l 764 829 l 764 895 m 695 1025 l 625 1025 l 625 959 l 695 959 l 695 1025 z "},"■":{"ha":833,"x_min":81,"x_max":753,"o":"m 81 751 l 753 751 l 753 79 l 81 79 l 81 751 z "},"▬":{"ha":833,"x_min":5,"x_max":828,"o":"m 5 370 l 828 370 l 828 47 l 5 47 l 5 370 z "},"▲":{"ha":833,"x_min":10,"x_max":823,"o":"m 10 34 l 417 812 l 823 34 l 10 34 z "},"►":{"ha":833,"x_min":35,"x_max":832,"o":"m 35 811 l 832 397 l 35 -18 l 35 811 z "},"▼":{"ha":833,"x_min":10,"x_max":823,"o":"m 823 760 l 417 -18 l 10 760 l 823 760 z "},"◄":{"ha":833,"x_min":1,"x_max":798,"o":"m 798 811 l 798 -18 l 1 397 l 798 811 z "},"○":{"ha":833,"x_min":111,"x_max":723,"o":"m 111 415 q 151 569 111 498 q 263 681 192 640 q 416 722 334 722 q 570 681 498 722 q 682 569 641 640 q 723 415 723 497 q 682 262 723 333 q 570 151 641 191 q 416 110 499 110 q 262 151 333 110 q 151 262 192 191 q 111 415 111 332 m 169 415 q 202 291 169 349 q 292 201 235 234 q 416 168 349 168 q 539 201 482 168 q 631 291 597 233 q 665 415 665 349 q 631 539 665 481 q 540 631 598 597 q 416 664 482 664 q 293 631 350 664 q 202 540 235 597 q 169 415 169 483 z "},"◘":{"ha":833,"x_min":25,"x_max":808,"o":"m 25 0 l 25 783 l 808 783 l 808 0 l 25 0 m 117 391 q 157 242 117 311 q 266 133 197 173 q 415 93 334 93 q 565 133 495 93 q 674 242 634 173 q 714 391 714 312 q 674 541 714 471 q 565 650 634 610 q 415 690 496 690 q 266 650 335 690 q 156 541 196 610 q 117 391 117 471 z "},"◙":{"ha":833,"x_min":25,"x_max":808,"o":"m 25 0 l 25 783 l 808 783 l 808 0 l 25 0 m 169 391 q 202 515 169 457 q 293 606 235 572 q 416 639 351 639 q 540 606 482 639 q 631 515 597 572 q 664 391 664 457 q 631 268 664 326 q 540 177 597 210 q 416 144 482 144 q 293 177 351 144 q 202 268 235 210 q 169 391 169 326 m 117 391 q 157 242 117 311 q 266 133 197 173 q 415 93 334 93 q 565 133 495 93 q 674 242 634 173 q 714 391 714 312 q 674 541 714 471 q 565 650 634 610 q 415 690 496 690 q 266 650 335 690 q 156 541 196 610 q 117 391 117 471 z "},"☺":{"ha":833,"x_min":18,"x_max":814,"o":"m 18 399 q 72 599 18 507 q 217 744 125 691 q 416 798 309 798 q 615 744 524 798 q 761 599 707 691 q 814 399 814 507 q 761 200 814 292 q 616 55 708 108 q 416 1 524 1 q 217 55 309 1 q 72 200 125 108 q 18 399 18 292 m 61 399 q 109 222 61 304 q 238 92 156 140 q 416 44 321 44 q 594 92 511 44 q 724 222 676 140 q 771 399 771 305 q 724 576 771 494 q 594 706 676 659 q 416 754 512 754 q 239 707 321 754 q 109 576 157 659 q 61 399 61 494 m 221 503 q 235 536 221 522 q 269 551 249 551 q 302 536 288 551 q 317 503 317 522 q 302 469 317 483 q 269 455 288 455 q 235 469 249 455 q 221 503 221 483 m 516 503 q 530 536 516 522 q 564 551 544 551 q 597 536 583 551 q 612 503 612 522 q 597 469 612 483 q 564 455 583 455 q 530 469 544 455 q 516 503 516 483 m 239 300 q 321 227 279 247 q 416 208 363 208 q 513 228 471 208 q 593 300 555 248 l 633 267 q 416 146 557 146 q 329 160 368 146 q 261 197 290 174 q 200 267 231 220 l 239 300 z "},"☻":{"ha":833,"x_min":18,"x_max":814,"o":"m 18 399 q 72 599 18 507 q 217 744 125 691 q 416 798 309 798 q 615 744 524 798 q 761 599 707 691 q 814 399 814 507 q 761 200 814 292 q 616 55 708 108 q 416 1 524 1 q 217 55 309 1 q 72 200 125 108 q 18 399 18 292 m 221 503 q 235 469 221 483 q 269 455 249 455 q 302 469 288 455 q 317 503 317 483 q 302 536 317 522 q 269 551 288 551 q 235 536 249 551 q 221 503 221 522 m 516 503 q 530 469 516 483 q 564 455 544 455 q 597 469 583 455 q 612 503 612 483 q 597 536 612 522 q 564 551 583 551 q 530 536 544 551 q 516 503 516 522 m 200 267 q 260 197 231 220 q 328 160 290 174 q 416 146 367 146 q 633 267 557 146 l 593 300 q 512 227 554 247 q 416 208 469 208 q 320 228 363 208 q 239 300 278 248 l 200 267 z "},"☼":{"ha":833,"x_min":18,"x_max":815,"o":"m 152 615 l 263 503 q 392 557 322 550 l 392 715 l 441 715 l 441 557 q 569 503 510 551 l 681 615 l 715 581 l 604 469 q 657 340 651 410 l 815 340 l 815 292 l 657 292 q 604 163 650 222 l 715 52 l 681 17 l 569 128 q 441 75 510 81 l 441 -83 l 392 -83 l 392 75 q 263 128 322 81 l 152 17 l 117 52 l 229 163 q 175 292 182 222 l 18 292 l 18 340 l 175 340 q 229 469 181 410 l 117 581 l 152 615 m 223 316 q 279 179 223 236 q 416 123 335 123 q 554 179 498 123 q 610 316 610 236 q 553 453 610 396 q 416 509 496 509 q 280 453 336 509 q 223 316 223 396 z "},"♀":{"ha":833,"x_min":214,"x_max":618,"o":"m 233 255 l 392 255 l 392 392 q 264 459 315 401 q 214 593 214 517 q 274 735 214 676 q 416 795 333 795 q 559 735 500 795 q 618 593 618 676 q 568 460 618 517 q 441 392 518 402 l 441 255 l 600 255 l 600 206 l 441 206 l 441 47 l 392 47 l 392 206 l 233 206 l 233 255 m 263 593 q 308 484 263 529 q 416 439 353 439 q 525 485 481 439 q 570 593 570 530 q 525 701 570 656 q 416 746 480 746 q 309 702 355 746 q 263 593 263 658 z "},"♂":{"ha":833,"x_min":111,"x_max":697,"o":"m 111 279 q 171 422 111 363 q 313 481 230 481 q 437 438 382 481 l 612 612 l 458 626 l 457 663 l 682 663 l 697 648 l 697 423 l 660 425 l 646 578 l 472 404 q 515 279 515 349 q 456 137 515 196 q 313 77 397 77 q 171 137 230 77 q 111 279 111 196 m 160 279 q 205 171 160 216 q 313 126 250 126 q 422 172 378 126 q 467 279 467 217 q 422 388 467 342 q 313 433 377 433 q 206 389 252 433 q 160 279 160 345 z "},"♠":{"ha":833,"x_min":69,"x_max":764,"o":"m 434 810 q 482 680 434 752 q 604 549 530 608 q 728 429 692 480 q 764 324 764 378 q 718 207 764 251 q 604 163 671 163 q 519 182 564 163 q 449 231 474 201 q 508 89 449 140 q 666 38 568 38 l 666 0 l 167 0 l 167 38 q 325 89 265 38 q 384 231 384 140 q 313 182 358 201 q 229 163 269 163 q 115 207 161 163 q 69 324 69 251 q 103 426 69 376 q 229 549 136 475 q 351 680 302 607 q 399 810 399 753 l 434 810 z "},"♣":{"ha":833,"x_min":66,"x_max":767,"o":"m 416 810 q 516 790 474 810 q 581 732 558 769 q 604 652 604 695 q 582 561 604 606 q 524 492 559 516 l 562 494 q 710 447 653 494 q 767 324 767 401 q 721 207 767 251 q 608 163 675 163 q 520 183 566 163 q 449 231 474 203 q 508 89 449 140 q 666 38 568 38 l 666 0 l 167 0 l 167 38 q 325 89 265 38 q 384 231 384 140 q 314 183 359 203 q 225 163 268 163 q 112 207 157 163 q 66 324 66 251 q 123 448 66 401 q 271 494 180 494 l 309 492 q 251 561 274 516 q 229 652 229 606 q 252 732 229 695 q 317 790 275 769 q 416 810 359 810 z "},"♥":{"ha":833,"x_min":69,"x_max":764,"o":"m 399 -1 q 358 116 399 45 q 229 294 318 187 q 69 597 69 488 q 92 683 69 644 q 153 743 115 722 q 235 765 192 765 q 345 721 296 765 q 414 609 394 676 l 418 609 q 488 721 439 677 q 597 765 538 765 q 680 743 641 765 q 741 683 718 722 q 764 597 764 644 q 604 294 764 488 q 501 159 531 204 q 452 73 471 113 q 434 -1 434 33 l 399 -1 z "},"♦":{"ha":833,"x_min":90,"x_max":743,"o":"m 90 405 l 90 407 q 412 812 258 600 l 420 812 q 743 407 574 600 l 743 405 q 420 -1 574 212 l 412 -1 q 90 405 258 212 z "},"♪":{"ha":833,"x_min":191,"x_max":635,"o":"m 534 184 q 572 249 558 210 q 586 332 586 288 q 549 459 586 403 q 450 535 511 515 l 450 130 q 404 50 450 83 q 300 16 358 16 q 222 39 253 16 q 191 100 191 62 q 238 178 191 144 q 340 212 284 212 q 408 197 380 212 l 408 764 l 434 764 q 524 602 442 685 q 609 485 583 541 q 635 360 635 429 q 617 265 635 311 q 566 184 598 219 l 534 184 z "},"♫":{"ha":833,"x_min":76,"x_max":735,"o":"m 585 30 q 507 53 538 30 q 476 114 476 76 q 523 192 476 158 q 625 226 569 226 q 693 210 665 226 l 693 505 l 335 450 l 335 82 q 289 2 335 36 q 184 -31 243 -31 q 107 -8 138 -31 q 76 53 76 15 q 122 131 76 97 q 225 165 169 165 q 293 149 264 165 l 293 715 l 735 783 l 735 143 q 689 63 735 97 q 585 30 643 30 m 335 545 l 693 600 l 693 682 l 335 627 l 335 545 z "},"Ĳ":{"ha":833,"x_min":-5,"x_max":891,"o":"m 173 915 l 302 915 l 125 0 l -5 0 l 173 915 m 467 92 q 579 140 538 92 q 640 282 621 189 l 742 809 l 558 809 l 578 915 l 891 915 l 769 285 q 658 64 742 142 q 446 -14 574 -14 q 282 44 334 -14 q 231 231 231 101 l 231 237 l 361 258 l 361 243 q 386 130 361 168 q 467 92 412 92 z "},"ĳ":{"ha":833,"x_min":89,"x_max":844,"o":"m 232 734 l 353 734 l 211 0 l 89 0 l 232 734 m 245 876 l 271 1006 l 406 1006 l 381 876 l 245 876 m 669 734 l 791 734 l 645 -19 q 530 -217 621 -145 q 300 -288 440 -288 q 193 -279 246 -288 q 111 -259 140 -271 l 129 -164 q 309 -187 226 -187 q 451 -143 395 -187 q 523 -17 507 -98 l 669 734 m 683 876 l 708 1006 l 844 1006 l 819 876 l 683 876 z "},"ŉ":{"ha":833,"x_min":67,"x_max":816,"o":"m 589 0 l 680 471 q 688 538 688 511 q 658 625 688 597 q 566 653 629 653 q 417 592 482 653 q 330 425 351 530 l 248 0 l 125 0 l 237 577 q 247 626 242 600 q 255 674 251 651 q 261 713 258 696 q 264 734 264 729 l 379 734 q 373 688 379 730 q 360 608 368 646 l 362 608 q 471 710 408 673 q 624 747 534 747 q 816 575 816 747 q 806 489 816 536 l 711 0 l 589 0 m 67 695 l 71 718 l 163 916 l 297 916 l 292 890 l 138 695 l 67 695 z "},"′":{"ha":833,"x_min":408,"x_max":616,"o":"m 504 573 l 408 573 l 465 1006 l 616 1006 l 504 573 z "},"″":{"ha":833,"x_min":256,"x_max":768,"o":"m 656 573 l 559 573 l 616 1006 l 768 1006 l 656 573 m 351 573 l 256 573 l 312 1006 l 464 1006 l 351 573 z "},"℅":{"ha":833,"x_min":41,"x_max":829,"o":"m 578 -8 q 476 36 511 -8 q 441 163 441 80 q 471 350 441 247 q 556 506 502 453 q 690 559 610 559 q 829 391 829 559 q 810 249 829 329 q 758 111 792 169 q 679 22 724 52 q 578 -8 633 -8 m 730 399 q 676 484 730 484 q 608 443 635 484 q 559 306 581 401 q 538 155 538 210 q 593 66 538 66 q 662 113 633 66 q 711 250 691 160 q 730 399 730 340 m 142 538 q 197 431 142 431 q 290 546 254 431 l 385 540 q 304 405 358 456 q 184 354 251 354 q 77 401 113 354 q 41 532 41 448 q 73 718 41 618 q 161 870 104 817 q 294 922 217 922 q 388 880 355 922 q 421 754 421 838 l 421 747 l 323 739 q 323 764 323 758 q 277 846 323 846 q 210 804 239 846 q 161 682 181 762 q 142 538 142 602 m 147 0 l 67 0 l 722 915 l 800 915 l 147 0 z "},"ℓ":{"ha":833,"x_min":177,"x_max":696,"o":"m 420 53 q 489 88 455 53 q 548 197 522 123 l 595 197 q 378 -14 525 -14 q 280 23 315 -14 q 244 133 244 60 q 246 165 244 149 q 274 318 248 182 q 177 279 239 301 l 186 328 q 284 368 239 347 l 361 766 q 434 917 380 865 q 573 969 489 969 q 664 931 631 969 q 696 827 696 894 q 656 655 696 748 q 548 486 616 562 q 396 368 479 410 l 364 202 q 358 146 358 171 q 377 75 358 98 q 420 53 395 53 m 633 817 q 617 891 633 864 q 572 918 600 918 q 513 882 537 918 q 473 766 490 847 l 407 422 q 519 524 467 457 q 602 673 571 591 q 633 817 633 755 z "},"□":{"ha":833,"x_min":1,"x_max":832,"o":"m 1 831 l 832 831 l 832 0 l 1 0 l 1 831 m 53 779 l 53 52 l 781 52 l 781 779 l 53 779 z "},"▪":{"ha":833,"x_min":244,"x_max":589,"o":"m 589 260 l 244 260 l 244 604 l 589 604 l 589 260 z "},"▫":{"ha":833,"x_min":244,"x_max":589,"o":"m 589 260 l 244 260 l 244 604 l 589 604 l 589 260 m 537 311 l 537 551 l 296 551 l 296 311 l 537 311 z "},"●":{"ha":833,"x_min":118,"x_max":715,"o":"m 416 690 q 565 651 491 690 q 677 538 638 612 q 715 392 715 464 q 628 180 715 268 q 416 93 541 93 q 205 181 293 93 q 118 392 118 269 q 156 537 118 465 q 266 650 193 610 q 416 690 339 690 z "},"◦":{"ha":833,"x_min":248,"x_max":585,"o":"m 585 432 q 533 312 585 359 q 416 264 482 264 q 332 286 370 264 q 271 347 294 308 q 248 432 248 385 q 298 551 248 502 q 416 600 348 600 q 534 550 486 600 q 585 432 585 502 m 533 432 q 498 514 533 479 q 416 549 464 549 q 334 514 369 549 q 300 432 300 479 q 333 350 300 384 q 416 315 366 315 q 501 351 469 315 q 533 432 533 387 z "},"Ā":{"ha":833,"x_min":-71,"x_max":762,"o":"m 630 0 l 587 259 l 205 259 l 62 0 l -71 0 l 452 915 l 600 915 l 762 0 l 630 0 m 505 817 q 449 708 474 755 q 259 360 425 661 l 573 360 l 522 699 l 505 817 m 730 1019 l 357 1019 l 374 1105 l 747 1105 l 730 1019 z "},"ā":{"ha":833,"x_min":50,"x_max":731,"o":"m 690 75 q 731 80 709 75 l 716 4 q 620 -7 669 -7 q 536 19 561 -7 q 511 96 511 45 l 515 140 l 511 140 q 383 22 450 58 q 229 -14 315 -14 q 94 28 138 -14 q 50 144 50 71 q 56 205 50 172 q 410 445 102 441 l 570 448 q 584 517 582 503 q 585 548 585 532 q 554 630 585 606 q 460 654 523 654 q 341 628 382 654 q 280 538 301 601 l 155 549 q 272 699 191 650 q 480 747 352 747 q 711 566 711 747 q 704 500 711 536 l 643 184 q 637 133 637 155 q 649 90 637 104 q 690 75 661 75 m 278 79 q 399 110 342 79 q 493 193 455 141 q 542 302 531 245 l 554 362 l 425 359 q 282 335 333 358 q 206 268 232 313 q 180 170 180 222 q 204 104 180 128 q 278 79 229 79 m 669 838 l 295 838 l 312 924 l 686 924 l 669 838 z "},"Ĉ":{"ha":833,"x_min":79,"x_max":821,"o":"m 214 307 q 395 92 214 92 q 530 140 465 92 q 650 283 596 189 l 749 239 q 373 -14 598 -14 q 154 67 229 -14 q 79 303 79 147 q 114 544 79 415 q 209 758 149 673 q 355 886 269 842 q 549 929 440 929 q 821 702 777 929 l 699 658 q 642 781 687 739 q 530 823 597 823 q 401 789 456 823 q 306 684 346 754 q 240 504 267 614 q 214 307 214 393 m 777 994 l 774 981 l 703 981 l 572 1074 l 571 1074 l 395 981 l 325 981 l 328 994 l 532 1156 l 643 1156 l 777 994 z "},"ĉ":{"ha":833,"x_min":76,"x_max":762,"o":"m 503 747 q 694 689 625 747 q 762 528 762 630 l 631 519 l 631 523 q 595 616 631 581 q 479 652 559 652 q 329 604 388 652 q 237 451 270 556 q 204 252 204 346 q 245 122 204 163 q 367 81 286 81 q 495 117 440 81 q 576 227 551 153 l 704 218 q 632 100 682 153 q 509 17 581 47 q 354 -14 437 -14 q 146 54 216 -14 q 76 250 76 121 q 104 434 76 336 q 188 603 132 531 q 323 711 244 675 q 503 747 402 747 m 730 828 l 728 814 l 656 814 l 526 908 l 525 908 l 349 814 l 279 814 l 281 828 l 486 990 l 597 990 l 730 828 z "},"Ċ":{"ha":833,"x_min":79,"x_max":821,"o":"m 214 307 q 395 92 214 92 q 530 140 465 92 q 650 283 596 189 l 749 239 q 373 -14 598 -14 q 154 67 229 -14 q 79 303 79 147 q 114 544 79 415 q 209 758 149 673 q 355 886 269 842 q 549 929 440 929 q 821 702 777 929 l 699 658 q 642 781 687 739 q 530 823 597 823 q 401 789 456 823 q 306 684 346 754 q 240 504 267 614 q 214 307 214 393 m 489 981 l 514 1111 l 650 1111 l 625 981 l 489 981 z "},"ċ":{"ha":833,"x_min":76,"x_max":762,"o":"m 503 747 q 694 689 625 747 q 762 528 762 630 l 631 519 l 631 523 q 595 616 631 581 q 479 652 559 652 q 329 604 388 652 q 237 451 270 556 q 204 252 204 346 q 245 122 204 163 q 367 81 286 81 q 495 117 440 81 q 576 227 551 153 l 704 218 q 632 100 682 153 q 509 17 581 47 q 354 -14 437 -14 q 146 54 216 -14 q 76 250 76 121 q 104 434 76 336 q 188 603 132 531 q 323 711 244 675 q 503 747 402 747 m 462 876 l 487 1006 l 623 1006 l 597 876 l 462 876 z "},"Ē":{"ha":833,"x_min":39,"x_max":840,"o":"m 39 0 l 216 915 l 840 915 l 819 809 l 326 809 l 270 523 l 723 523 l 703 418 l 250 418 l 189 106 l 710 106 l 690 0 l 39 0 m 741 1019 l 368 1019 l 385 1105 l 758 1105 l 741 1019 z "},"ē":{"ha":833,"x_min":79,"x_max":754,"o":"m 214 341 q 205 259 205 294 q 247 125 205 172 q 366 78 290 78 q 494 108 435 78 q 581 191 553 138 l 682 160 q 548 31 635 76 q 349 -14 460 -14 q 148 55 217 -14 q 79 251 79 123 q 106 433 79 335 q 187 603 133 531 q 318 711 241 674 q 492 747 395 747 q 754 490 754 747 q 740 357 754 429 l 737 341 l 214 341 m 476 657 q 322 598 386 657 q 233 435 258 539 l 629 435 l 632 484 q 476 657 632 657 m 695 838 l 321 838 l 338 924 l 712 924 l 695 838 z "},"Ĕ":{"ha":833,"x_min":39,"x_max":840,"o":"m 39 0 l 216 915 l 840 915 l 819 809 l 326 809 l 270 523 l 723 523 l 703 418 l 250 418 l 189 106 l 710 106 l 690 0 l 39 0 m 535 981 q 406 1027 454 981 q 358 1152 358 1074 l 358 1156 l 444 1156 q 552 1066 450 1066 q 643 1090 610 1066 q 696 1156 677 1114 l 783 1156 q 684 1027 749 1074 q 535 981 619 981 z "},"ĕ":{"ha":833,"x_min":79,"x_max":754,"o":"m 214 341 q 205 259 205 294 q 247 125 205 172 q 366 78 290 78 q 494 108 435 78 q 581 191 553 138 l 682 160 q 548 31 635 76 q 349 -14 460 -14 q 148 55 217 -14 q 79 251 79 123 q 106 433 79 335 q 187 603 133 531 q 318 711 241 674 q 492 747 395 747 q 754 490 754 747 q 740 357 754 429 l 737 341 l 214 341 m 476 657 q 322 598 386 657 q 233 435 258 539 l 629 435 l 632 484 q 476 657 632 657 m 505 814 q 376 861 424 814 q 328 986 328 908 l 328 990 l 414 990 q 522 900 420 900 q 613 924 580 900 q 667 990 647 947 l 753 990 q 654 861 720 907 q 505 814 589 814 z "},"Ė":{"ha":833,"x_min":39,"x_max":840,"o":"m 39 0 l 216 915 l 840 915 l 819 809 l 326 809 l 270 523 l 723 523 l 703 418 l 250 418 l 189 106 l 710 106 l 690 0 l 39 0 m 469 981 l 494 1111 l 629 1111 l 604 981 l 469 981 z "},"ė":{"ha":833,"x_min":79,"x_max":754,"o":"m 214 341 q 205 259 205 294 q 247 125 205 172 q 366 78 290 78 q 494 108 435 78 q 581 191 553 138 l 682 160 q 548 31 635 76 q 349 -14 460 -14 q 148 55 217 -14 q 79 251 79 123 q 106 433 79 335 q 187 603 133 531 q 318 711 241 674 q 492 747 395 747 q 754 490 754 747 q 740 357 754 429 l 737 341 l 214 341 m 476 657 q 322 598 386 657 q 233 435 258 539 l 629 435 l 632 484 q 476 657 632 657 m 450 880 l 475 1010 l 611 1010 l 586 880 l 450 880 z "},"Ĝ":{"ha":833,"x_min":79,"x_max":814,"o":"m 359 -14 q 152 68 224 -14 q 79 306 79 150 q 115 546 79 415 q 210 760 151 676 q 352 887 269 844 q 545 929 435 929 q 814 705 778 929 l 690 667 q 526 823 666 823 q 399 790 453 823 q 307 688 345 756 q 241 508 268 621 q 214 309 214 395 q 391 92 214 92 q 489 106 437 92 q 577 142 541 120 l 621 370 l 422 370 l 444 478 l 768 478 l 693 90 q 359 -14 520 -14 m 763 994 l 760 981 l 689 981 l 559 1074 l 557 1074 l 382 981 l 311 981 l 314 994 l 518 1156 l 629 1156 l 763 994 z "},"ĝ":{"ha":833,"x_min":54,"x_max":786,"o":"m 290 -288 q 116 -241 176 -288 q 54 -106 56 -194 l 182 -90 q 216 -168 183 -140 q 312 -195 250 -195 q 522 18 481 -195 l 547 150 l 546 150 q 286 8 450 8 q 131 61 180 8 q 81 222 81 115 q 109 420 81 307 q 180 604 136 534 q 290 710 225 674 q 442 745 355 745 q 568 710 519 745 q 635 608 618 674 l 637 608 q 654 681 642 633 q 670 734 667 728 l 786 734 l 773 678 l 753 582 l 644 22 q 527 -210 614 -132 q 290 -288 440 -288 m 602 473 q 563 606 602 558 q 455 654 525 654 q 351 628 394 654 q 279 545 309 602 q 229 396 249 489 q 209 241 209 302 q 240 132 209 166 q 345 98 272 98 q 447 127 399 98 q 530 211 494 157 q 583 339 565 266 q 602 473 602 413 m 724 828 l 722 814 l 650 814 l 520 908 l 519 908 l 343 814 l 273 814 l 275 828 l 479 990 l 591 990 l 724 828 z "},"Ġ":{"ha":833,"x_min":79,"x_max":814,"o":"m 359 -14 q 152 68 224 -14 q 79 306 79 150 q 115 546 79 415 q 210 760 151 676 q 352 887 269 844 q 545 929 435 929 q 814 705 778 929 l 690 667 q 526 823 666 823 q 399 790 453 823 q 307 688 345 756 q 241 508 268 621 q 214 309 214 395 q 391 92 214 92 q 489 106 437 92 q 577 142 541 120 l 621 370 l 422 370 l 444 478 l 768 478 l 693 90 q 359 -14 520 -14 m 475 981 l 500 1111 l 636 1111 l 611 981 l 475 981 z "},"ġ":{"ha":833,"x_min":54,"x_max":786,"o":"m 290 -288 q 116 -241 176 -288 q 54 -106 56 -194 l 182 -90 q 216 -168 183 -140 q 312 -195 250 -195 q 522 18 481 -195 l 547 150 l 546 150 q 286 8 450 8 q 131 61 180 8 q 81 222 81 115 q 109 420 81 307 q 180 604 136 534 q 290 710 225 674 q 442 745 355 745 q 568 710 519 745 q 635 608 618 674 l 637 608 q 654 681 642 633 q 670 734 667 728 l 786 734 l 773 678 l 753 582 l 644 22 q 527 -210 614 -132 q 290 -288 440 -288 m 602 473 q 563 606 602 558 q 455 654 525 654 q 351 628 394 654 q 279 545 309 602 q 229 396 249 489 q 209 241 209 302 q 240 132 209 166 q 345 98 272 98 q 447 127 399 98 q 530 211 494 157 q 583 339 565 266 q 602 473 602 413 m 442 876 l 467 1006 l 603 1006 l 578 876 l 442 876 z "},"Ģ":{"ha":833,"x_min":79,"x_max":814,"o":"m 359 -14 q 152 68 224 -14 q 79 306 79 150 q 115 546 79 415 q 210 760 151 676 q 352 887 269 844 q 545 929 435 929 q 814 705 778 929 l 690 667 q 526 823 666 823 q 399 790 453 823 q 307 688 345 756 q 241 508 268 621 q 214 309 214 395 q 391 92 214 92 q 489 106 437 92 q 577 142 541 120 l 621 370 l 422 370 l 444 478 l 768 478 l 693 90 q 359 -14 520 -14 m 195 -287 l 199 -264 l 292 -66 l 425 -66 l 420 -92 l 267 -287 l 195 -287 z "},"ģ":{"ha":833,"x_min":54,"x_max":786,"o":"m 290 -288 q 116 -241 176 -288 q 54 -106 56 -194 l 182 -90 q 216 -168 183 -140 q 312 -195 250 -195 q 522 18 481 -195 l 547 150 l 546 150 q 286 8 450 8 q 131 61 180 8 q 81 222 81 115 q 109 420 81 307 q 180 604 136 534 q 290 710 225 674 q 442 745 355 745 q 568 710 519 745 q 635 608 618 674 l 637 608 q 654 681 642 633 q 670 734 667 728 l 786 734 l 773 678 l 753 582 l 644 22 q 527 -210 614 -132 q 290 -288 440 -288 m 602 473 q 563 606 602 558 q 455 654 525 654 q 351 628 394 654 q 279 545 309 602 q 229 396 249 489 q 209 241 209 302 q 240 132 209 166 q 345 98 272 98 q 447 127 399 98 q 530 211 494 157 q 583 339 565 266 q 602 473 602 413 m 640 1042 l 635 1019 l 543 821 l 410 821 l 415 846 l 569 1042 l 640 1042 z "},"Ĥ":{"ha":833,"x_min":39,"x_max":829,"o":"m 522 0 l 604 422 l 250 422 l 168 0 l 39 0 l 216 915 l 346 915 l 271 531 l 625 531 l 700 915 l 829 915 l 652 0 l 522 0 m 762 994 l 760 981 l 688 981 l 558 1074 l 557 1074 l 381 981 l 311 981 l 313 994 l 517 1156 l 629 1156 l 762 994 z "},"ĥ":{"ha":833,"x_min":54,"x_max":763,"o":"m 232 915 l 355 915 q 315 711 330 786 q 281 568 300 635 l 283 568 q 541 707 380 707 q 736 532 736 707 q 727 448 736 492 l 640 0 l 517 0 l 601 431 q 608 498 608 467 q 579 585 608 557 q 488 612 550 612 q 337 551 403 612 q 251 385 272 489 l 176 0 l 54 0 l 232 915 m 763 994 l 760 980 l 689 980 l 559 1074 l 557 1074 l 382 980 l 311 980 l 314 994 l 517 1156 l 629 1156 l 763 994 z "},"Ħ":{"ha":833,"x_min":39,"x_max":912,"o":"m 191 782 l 216 915 l 346 915 l 320 782 l 674 782 l 700 915 l 829 915 l 804 782 l 912 782 l 892 682 l 784 682 l 652 0 l 522 0 l 604 422 l 250 422 l 168 0 l 39 0 l 171 682 l 62 682 l 82 782 l 191 782 m 625 531 l 654 682 l 300 682 l 271 531 l 625 531 z "},"ħ":{"ha":833,"x_min":54,"x_max":740,"o":"m 250 1006 l 372 1006 l 352 900 l 555 900 l 537 811 l 334 811 q 320 736 326 766 q 286 588 315 707 l 288 588 q 544 727 384 727 q 740 551 740 727 q 731 469 740 513 l 640 0 l 517 0 l 605 451 q 612 517 612 490 q 583 605 612 577 q 491 633 553 633 q 341 571 407 633 q 255 405 276 510 l 176 0 l 54 0 l 212 811 l 122 811 l 140 900 l 229 900 l 250 1006 z "},"Ĩ":{"ha":833,"x_min":66,"x_max":812,"o":"m 243 915 l 802 915 l 781 809 l 567 809 l 430 106 l 644 106 l 624 0 l 66 0 l 86 106 l 300 106 l 437 809 l 223 809 l 243 915 m 642 981 q 588 993 614 981 q 538 1021 562 1006 q 490 1049 513 1036 q 443 1061 467 1061 q 401 1045 418 1061 q 368 981 385 1029 l 293 981 q 363 1111 321 1074 q 464 1149 405 1149 q 520 1136 494 1149 q 570 1108 546 1124 q 617 1081 594 1093 q 662 1068 640 1068 q 706 1087 689 1068 q 736 1149 723 1105 l 812 1149 q 769 1050 791 1083 q 716 999 747 1017 q 642 981 685 981 z "},"ĩ":{"ha":833,"x_min":26,"x_max":779,"o":"m 453 96 l 711 96 l 692 0 l 26 0 l 45 96 l 331 96 l 436 637 l 220 637 l 238 734 l 576 734 l 453 96 m 609 814 q 555 827 581 814 q 505 855 529 840 q 457 883 480 870 q 410 895 433 895 q 368 879 385 895 q 335 814 352 863 l 260 814 q 330 945 288 907 q 431 983 372 983 q 487 970 460 983 q 537 942 513 958 q 584 915 561 927 q 629 902 606 902 q 673 921 656 902 q 703 983 690 939 l 779 983 q 736 884 758 917 q 683 833 714 851 q 609 814 652 814 z "},"Ī":{"ha":833,"x_min":66,"x_max":802,"o":"m 243 915 l 802 915 l 781 809 l 567 809 l 430 106 l 644 106 l 624 0 l 66 0 l 86 106 l 300 106 l 437 809 l 223 809 l 243 915 m 730 1019 l 357 1019 l 374 1105 l 747 1105 l 730 1019 z "},"ī":{"ha":833,"x_min":26,"x_max":716,"o":"m 453 96 l 711 96 l 692 0 l 26 0 l 45 96 l 331 96 l 436 637 l 220 637 l 238 734 l 576 734 l 453 96 m 699 838 l 326 838 l 342 924 l 716 924 l 699 838 z "},"Ĭ":{"ha":833,"x_min":66,"x_max":802,"o":"m 243 915 l 802 915 l 781 809 l 567 809 l 430 106 l 644 106 l 624 0 l 66 0 l 86 106 l 300 106 l 437 809 l 223 809 l 243 915 m 534 980 q 405 1027 453 980 q 357 1152 357 1074 l 357 1156 l 444 1156 q 551 1065 449 1065 q 643 1089 609 1065 q 696 1156 676 1113 l 782 1156 q 684 1026 749 1073 q 534 980 618 980 z "},"ĭ":{"ha":833,"x_min":26,"x_max":764,"o":"m 453 96 l 711 96 l 692 0 l 26 0 l 45 96 l 331 96 l 436 637 l 220 637 l 238 734 l 576 734 l 453 96 m 516 814 q 387 861 435 814 q 339 986 339 908 l 339 990 l 425 990 q 533 900 431 900 q 624 924 591 900 q 677 990 658 947 l 764 990 q 665 861 730 907 q 516 814 600 814 z "},"Į":{"ha":833,"x_min":66,"x_max":802,"o":"m 243 915 l 802 915 l 781 809 l 567 809 l 430 106 l 644 106 l 624 0 l 66 0 l 86 106 l 300 106 l 437 809 l 223 809 l 243 915 m 323 -290 q 232 -263 262 -290 q 201 -193 201 -237 q 240 -86 201 -138 q 342 0 279 -33 l 432 0 q 338 -79 376 -29 q 301 -170 301 -129 q 354 -215 301 -215 q 435 -199 391 -215 l 421 -271 q 323 -290 376 -290 z "},"į":{"ha":833,"x_min":26,"x_max":711,"o":"m 453 96 l 711 96 l 692 0 l 26 0 l 45 96 l 331 96 l 436 637 l 220 637 l 238 734 l 576 734 l 453 96 m 469 876 l 494 1006 l 629 1006 l 604 876 l 469 876 m 353 -290 q 261 -263 291 -290 q 231 -193 231 -237 q 270 -86 231 -138 q 371 0 309 -33 l 461 0 q 368 -79 405 -29 q 330 -170 330 -129 q 383 -215 330 -215 q 465 -199 420 -215 l 450 -271 q 353 -290 405 -290 z "},"Ĵ":{"ha":833,"x_min":94,"x_max":844,"o":"m 323 -14 q 152 45 209 -14 q 94 231 94 104 l 94 237 l 225 258 l 225 245 q 256 131 225 170 q 345 92 288 92 q 524 282 486 92 l 626 809 l 415 809 l 435 915 l 775 915 l 653 285 q 540 66 627 146 q 323 -14 454 -14 m 844 994 l 842 981 l 770 981 l 640 1074 l 639 1074 l 463 981 l 393 981 l 395 994 l 600 1156 l 711 1156 l 844 994 z "},"ĵ":{"ha":833,"x_min":-42,"x_max":801,"o":"m 147 -288 q 40 -279 94 -288 q -42 -259 -13 -271 l -24 -164 q 157 -187 73 -187 q 298 -143 243 -187 q 370 -17 354 -98 l 498 637 l 222 637 l 240 734 l 638 734 l 492 -19 q 378 -217 468 -145 q 147 -288 288 -288 m 801 828 l 798 814 l 727 814 l 597 908 l 595 908 l 420 814 l 349 814 l 352 828 l 556 990 l 667 990 l 801 828 z "},"Ķ":{"ha":833,"x_min":39,"x_max":886,"o":"m 609 0 l 366 435 l 230 318 l 168 0 l 39 0 l 216 915 l 346 915 l 257 458 l 734 915 l 886 915 l 469 527 l 761 0 l 609 0 m 195 -287 l 199 -264 l 292 -66 l 425 -66 l 420 -92 l 267 -287 l 195 -287 z "},"ķ":{"ha":833,"x_min":89,"x_max":819,"o":"m 549 0 l 366 338 l 264 272 l 211 0 l 89 0 l 284 1006 l 406 1006 l 284 378 l 675 734 l 819 734 l 460 418 l 692 0 l 549 0 m 195 -287 l 199 -264 l 292 -66 l 425 -66 l 420 -92 l 267 -287 l 195 -287 z "},"ĸ":{"ha":833,"x_min":89,"x_max":819,"o":"m 549 0 l 366 335 l 263 269 l 211 0 l 89 0 l 231 734 l 353 734 l 283 369 l 675 734 l 819 734 l 460 418 l 692 0 l 549 0 z "},"Ļ":{"ha":833,"x_min":90,"x_max":695,"o":"m 90 0 l 267 915 l 397 915 l 239 106 l 695 106 l 675 0 l 90 0 m 202 -287 l 206 -264 l 298 -66 l 432 -66 l 427 -92 l 273 -287 l 202 -287 z "},"ļ":{"ha":833,"x_min":20,"x_max":705,"o":"m 447 96 l 705 96 l 686 0 l 20 0 l 39 96 l 325 96 l 483 910 l 287 910 l 305 1006 l 623 1006 l 447 96 m 195 -287 l 199 -264 l 292 -66 l 425 -66 l 420 -92 l 267 -287 l 195 -287 z "},"Ņ":{"ha":833,"x_min":39,"x_max":829,"o":"m 496 0 l 292 766 q 269 594 282 657 l 154 0 l 39 0 l 216 915 l 367 915 l 575 143 q 599 329 583 248 l 713 915 l 829 915 l 652 0 l 496 0 m 174 -287 l 178 -264 l 271 -66 l 404 -66 l 399 -92 l 245 -287 l 174 -287 z "},"ņ":{"ha":833,"x_min":54,"x_max":745,"o":"m 517 0 l 609 471 q 616 538 616 511 q 587 625 616 597 q 495 653 557 653 q 346 592 411 653 q 259 425 280 530 l 176 0 l 54 0 l 166 577 q 175 626 171 600 q 183 674 180 651 q 190 713 187 696 q 193 734 193 729 l 308 734 q 302 688 308 730 q 289 608 296 646 l 291 608 q 400 710 337 673 q 553 747 463 747 q 745 575 745 747 q 735 489 745 536 l 640 0 l 517 0 m 177 -287 l 181 -264 l 273 -66 l 407 -66 l 402 -92 l 248 -287 l 177 -287 z "},"Ŋ":{"ha":833,"x_min":54,"x_max":820,"o":"m 448 -14 q 371 -3 403 -14 q 318 28 340 7 q 275 90 296 48 l 377 157 q 420 103 399 117 q 472 90 441 90 q 564 155 526 90 q 630 370 602 220 l 685 653 q 692 715 692 687 q 660 805 692 774 q 557 835 628 835 q 389 773 463 835 q 294 607 315 712 l 176 0 l 54 0 l 202 759 l 219 856 l 228 916 l 343 916 q 337 870 343 911 q 324 790 332 828 l 326 790 q 615 929 426 929 q 820 752 820 929 q 811 671 820 714 l 752 368 q 640 75 713 163 q 448 -14 568 -14 z "},"ŋ":{"ha":833,"x_min":54,"x_max":745,"o":"m 495 653 q 346 592 411 653 q 259 425 280 530 l 176 0 l 54 0 l 166 577 q 175 626 171 600 q 183 674 180 651 q 190 713 187 696 q 193 734 193 729 l 308 734 q 302 688 308 730 q 289 608 296 646 l 291 608 q 400 710 337 673 q 553 747 463 747 q 745 575 745 747 q 735 489 745 536 l 623 -91 q 553 -241 603 -194 q 420 -288 503 -288 q 336 -282 369 -288 l 354 -188 l 395 -192 q 466 -167 443 -192 q 503 -73 490 -142 l 609 471 q 616 538 616 511 q 587 625 616 597 q 495 653 557 653 z "},"Ō":{"ha":833,"x_min":69,"x_max":800,"o":"m 342 -14 q 137 65 205 -14 q 69 292 69 144 q 103 530 69 400 q 196 749 136 659 q 338 884 255 839 q 526 929 420 929 q 730 854 661 929 q 800 629 800 779 q 767 395 800 524 q 673 173 734 265 q 528 33 612 80 q 342 -14 444 -14 m 663 619 q 506 823 663 823 q 349 756 414 823 q 245 551 284 688 q 206 302 206 414 q 363 92 206 92 q 482 127 431 92 q 573 238 534 162 q 638 426 613 314 q 663 619 663 538 m 730 1019 l 357 1019 l 374 1105 l 747 1105 l 730 1019 z "},"ō":{"ha":833,"x_min":76,"x_max":758,"o":"m 339 -14 q 144 53 212 -14 q 76 249 76 120 q 88 368 76 302 q 230 652 125 557 q 491 747 334 747 q 692 685 626 747 q 758 496 758 623 q 729 303 758 405 q 646 130 701 202 q 513 22 591 58 q 339 -14 435 -14 m 629 488 q 592 615 629 573 q 475 657 555 657 q 327 605 386 657 q 236 449 269 553 q 204 253 204 345 q 355 77 204 77 q 472 105 424 77 q 555 192 520 133 q 610 338 590 251 q 629 488 629 425 m 695 838 l 321 838 l 338 924 l 712 924 l 695 838 z "},"Ŏ":{"ha":833,"x_min":69,"x_max":800,"o":"m 342 -14 q 137 65 205 -14 q 69 292 69 144 q 103 530 69 400 q 196 749 136 659 q 338 884 255 839 q 526 929 420 929 q 730 854 661 929 q 800 629 800 779 q 767 395 800 524 q 673 173 734 265 q 528 33 612 80 q 342 -14 444 -14 m 663 619 q 506 823 663 823 q 349 756 414 823 q 245 551 284 688 q 206 302 206 414 q 363 92 206 92 q 482 127 431 92 q 573 238 534 162 q 638 426 613 314 q 663 619 663 538 m 535 981 q 406 1027 454 981 q 358 1152 358 1074 l 358 1156 l 444 1156 q 552 1066 450 1066 q 643 1090 610 1066 q 696 1156 677 1114 l 783 1156 q 684 1027 749 1074 q 535 981 619 981 z "},"ŏ":{"ha":833,"x_min":76,"x_max":758,"o":"m 339 -14 q 144 53 212 -14 q 76 249 76 120 q 88 368 76 302 q 230 652 125 557 q 491 747 334 747 q 692 685 626 747 q 758 496 758 623 q 729 303 758 405 q 646 130 701 202 q 513 22 591 58 q 339 -14 435 -14 m 629 488 q 592 615 629 573 q 475 657 555 657 q 327 605 386 657 q 236 449 269 553 q 204 253 204 345 q 355 77 204 77 q 472 105 424 77 q 555 192 520 133 q 610 338 590 251 q 629 488 629 425 m 503 814 q 373 861 421 814 q 326 986 326 908 l 326 990 l 412 990 q 519 900 417 900 q 611 924 577 900 q 664 990 644 947 l 750 990 q 652 861 717 907 q 503 814 587 814 z "},"Ŗ":{"ha":833,"x_min":39,"x_max":824,"o":"m 578 0 l 406 390 l 244 390 l 168 0 l 39 0 l 216 915 l 543 915 q 754 863 685 915 q 824 719 824 812 q 789 580 824 648 q 687 465 754 511 q 534 405 620 418 l 727 0 l 578 0 m 690 696 q 510 811 690 811 l 326 811 l 264 492 l 454 492 q 583 519 529 492 q 664 595 637 546 q 690 696 690 644 m 193 -287 l 197 -264 l 290 -66 l 423 -66 l 418 -92 l 264 -287 l 193 -287 z "},"ŗ":{"ha":833,"x_min":11,"x_max":781,"o":"m 758 623 q 617 635 686 635 q 425 553 509 635 q 317 345 342 471 l 250 0 l 128 0 l 220 475 q 237 671 237 568 l 235 734 l 351 734 q 355 647 355 700 q 351 564 355 602 l 355 564 q 443 676 404 641 q 530 729 482 711 q 643 747 578 747 q 781 736 715 747 l 758 623 m 11 -287 l 15 -264 l 107 -66 l 241 -66 l 236 -92 l 82 -287 l 11 -287 z "},"Ŝ":{"ha":833,"x_min":27,"x_max":809,"o":"m 340 -14 q 27 229 30 -14 l 157 254 q 210 128 159 168 q 363 87 262 87 q 535 129 471 87 q 614 249 599 171 l 617 279 q 596 342 617 317 q 539 385 576 368 q 397 429 503 402 q 261 475 298 456 q 201 515 224 493 q 166 566 178 538 q 155 632 155 595 q 179 748 155 690 q 252 846 203 805 q 370 908 300 888 q 526 929 440 929 q 737 878 671 929 q 809 709 803 827 l 677 687 q 635 797 676 762 q 507 831 593 831 q 287 687 316 831 l 284 659 q 300 607 284 627 q 343 573 316 587 q 406 549 370 559 q 482 528 442 539 q 649 470 603 496 q 722 406 696 444 q 749 309 749 368 q 721 181 749 243 q 641 76 693 119 q 513 10 588 33 q 340 -14 437 -14 m 766 994 l 763 981 l 692 981 l 562 1074 l 560 1074 l 385 981 l 314 981 l 317 994 l 521 1156 l 632 1156 l 766 994 z "},"ŝ":{"ha":833,"x_min":75,"x_max":741,"o":"m 347 -14 q 144 30 208 -14 q 75 168 79 73 l 186 189 q 226 103 189 130 q 365 77 264 77 q 520 115 468 77 q 572 214 572 152 q 544 269 572 247 q 452 309 516 292 l 373 330 q 247 375 283 355 q 191 424 211 395 q 171 494 171 452 q 193 591 171 543 q 258 675 216 640 q 361 727 300 709 q 496 745 422 745 q 679 700 616 745 q 741 569 741 654 l 629 555 l 629 559 q 593 630 629 606 q 479 654 558 654 q 338 622 385 654 q 290 532 290 589 q 314 480 290 500 q 397 446 338 460 q 586 389 547 406 q 649 348 625 371 q 683 302 673 326 q 692 248 692 278 q 650 116 692 178 q 528 20 607 53 q 347 -14 450 -14 m 741 828 l 738 814 l 667 814 l 536 908 l 535 908 l 359 814 l 289 814 l 292 828 l 496 990 l 607 990 l 741 828 z "},"Ŧ":{"ha":833,"x_min":138,"x_max":888,"o":"m 567 809 l 511 522 l 673 522 l 654 420 l 492 420 l 410 0 l 281 0 l 363 420 l 200 420 l 219 522 l 382 522 l 438 809 l 138 809 l 158 915 l 888 915 l 867 809 l 567 809 z "},"ŧ":{"ha":833,"x_min":132,"x_max":736,"o":"m 679 439 l 661 349 l 368 349 l 338 195 l 335 165 q 361 109 335 127 q 441 90 387 90 q 647 113 532 90 l 629 20 q 396 -11 510 -11 q 255 23 302 -11 q 208 128 208 56 q 209 153 208 140 q 246 349 210 165 l 132 349 l 150 439 l 264 439 l 302 637 l 189 637 l 207 734 l 322 734 l 399 925 l 480 925 l 443 734 l 736 734 l 718 637 l 425 637 l 386 439 l 679 439 z "},"Ũ":{"ha":833,"x_min":75,"x_max":842,"o":"m 336 -14 q 137 39 200 -14 q 75 204 75 92 q 87 320 75 256 l 203 915 l 332 915 l 220 338 q 207 222 207 269 q 241 122 207 153 q 356 92 275 92 q 520 147 465 92 q 603 347 574 203 l 713 915 l 842 915 l 729 332 q 601 69 694 152 q 336 -14 508 -14 m 642 981 q 588 993 614 981 q 538 1021 562 1006 q 490 1049 513 1036 q 443 1061 467 1061 q 401 1045 418 1061 q 368 981 385 1029 l 293 981 q 363 1111 321 1074 q 464 1149 405 1149 q 520 1136 494 1149 q 570 1108 546 1124 q 617 1081 594 1093 q 662 1068 640 1068 q 706 1087 689 1068 q 736 1149 723 1105 l 812 1149 q 769 1050 791 1083 q 716 999 747 1017 q 642 981 685 981 z "},"ũ":{"ha":833,"x_min":92,"x_max":783,"o":"m 319 734 l 229 269 q 219 185 219 220 q 248 104 219 128 q 344 81 277 81 q 495 142 433 81 q 577 309 557 203 l 660 734 l 783 734 l 671 157 q 662 108 666 134 q 653 60 657 83 q 647 21 650 37 q 644 0 644 5 l 529 0 q 536 53 529 7 q 548 125 543 98 l 546 125 q 427 18 490 50 q 284 -14 364 -14 q 138 26 185 -14 q 92 151 92 65 q 102 245 92 192 l 197 734 l 319 734 m 610 814 q 555 827 581 814 q 505 855 530 840 q 457 883 481 870 q 410 895 434 895 q 369 879 385 895 q 336 814 353 863 l 260 814 q 331 945 289 907 q 431 983 372 983 q 487 970 461 983 q 537 942 513 958 q 584 915 562 927 q 629 902 607 902 q 673 921 656 902 q 704 983 690 939 l 780 983 q 737 884 759 917 q 684 833 715 851 q 610 814 652 814 z "},"Ū":{"ha":833,"x_min":75,"x_max":842,"o":"m 336 -14 q 137 39 200 -14 q 75 204 75 92 q 87 320 75 256 l 203 915 l 332 915 l 220 338 q 207 222 207 269 q 241 122 207 153 q 356 92 275 92 q 520 147 465 92 q 603 347 574 203 l 713 915 l 842 915 l 729 332 q 601 69 694 152 q 336 -14 508 -14 m 730 1019 l 357 1019 l 374 1105 l 747 1105 l 730 1019 z "},"ū":{"ha":833,"x_min":92,"x_max":783,"o":"m 319 734 l 229 269 q 219 185 219 220 q 248 104 219 128 q 344 81 277 81 q 495 142 433 81 q 577 309 557 203 l 660 734 l 783 734 l 671 157 q 662 108 666 134 q 653 60 657 83 q 647 21 650 37 q 644 0 644 5 l 529 0 q 536 53 529 7 q 548 125 543 98 l 546 125 q 427 18 490 50 q 284 -14 364 -14 q 138 26 185 -14 q 92 151 92 65 q 102 245 92 192 l 197 734 l 319 734 m 695 838 l 321 838 l 338 924 l 712 924 l 695 838 z "},"Ŭ":{"ha":833,"x_min":75,"x_max":842,"o":"m 336 -14 q 137 39 200 -14 q 75 204 75 92 q 87 320 75 256 l 203 915 l 332 915 l 220 338 q 207 222 207 269 q 241 122 207 153 q 356 92 275 92 q 520 147 465 92 q 603 347 574 203 l 713 915 l 842 915 l 729 332 q 601 69 694 152 q 336 -14 508 -14 m 535 981 q 406 1027 454 981 q 358 1152 358 1074 l 358 1156 l 444 1156 q 552 1066 450 1066 q 643 1090 610 1066 q 696 1156 677 1114 l 783 1156 q 684 1027 749 1074 q 535 981 619 981 z "},"ŭ":{"ha":833,"x_min":92,"x_max":783,"o":"m 319 734 l 229 269 q 219 185 219 220 q 248 104 219 128 q 344 81 277 81 q 495 142 433 81 q 577 309 557 203 l 660 734 l 783 734 l 671 157 q 662 108 666 134 q 653 60 657 83 q 647 21 650 37 q 644 0 644 5 l 529 0 q 536 53 529 7 q 548 125 543 98 l 546 125 q 427 18 490 50 q 284 -14 364 -14 q 138 26 185 -14 q 92 151 92 65 q 102 245 92 192 l 197 734 l 319 734 m 503 814 q 373 861 421 814 q 326 986 326 908 l 326 990 l 412 990 q 519 900 417 900 q 611 924 577 900 q 664 990 644 947 l 750 990 q 652 861 717 907 q 503 814 587 814 z "},"Ų":{"ha":833,"x_min":75,"x_max":842,"o":"m 336 -14 q 137 39 200 -14 q 75 204 75 92 q 87 320 75 256 l 203 915 l 332 915 l 220 338 q 207 222 207 269 q 241 122 207 153 q 356 92 275 92 q 520 147 465 92 q 603 347 574 203 l 713 915 l 842 915 l 729 332 q 601 69 694 152 q 336 -14 508 -14 m 355 -290 q 263 -263 293 -290 q 233 -193 233 -237 q 272 -86 233 -138 q 373 0 311 -33 l 463 0 q 370 -79 407 -29 q 332 -170 332 -129 q 385 -215 332 -215 q 467 -199 422 -215 l 452 -271 q 355 -290 407 -290 z "},"ų":{"ha":833,"x_min":92,"x_max":783,"o":"m 319 734 l 229 269 q 219 185 219 220 q 248 104 219 128 q 344 81 277 81 q 495 142 433 81 q 577 309 557 203 l 660 734 l 783 734 l 671 157 q 662 108 666 134 q 653 60 657 83 q 647 21 650 37 q 644 0 644 5 l 529 0 q 536 53 529 7 q 548 125 543 98 l 546 125 q 427 18 490 50 q 284 -14 364 -14 q 138 26 185 -14 q 92 151 92 65 q 102 245 92 192 l 197 734 l 319 734 m 511 -290 q 419 -263 449 -290 q 389 -193 389 -237 q 428 -86 389 -138 q 529 0 467 -33 l 619 0 q 526 -79 563 -29 q 488 -170 488 -129 q 541 -215 488 -215 q 623 -199 578 -215 l 608 -271 q 511 -290 563 -290 z "},"Ŵ":{"ha":833,"x_min":72,"x_max":939,"o":"m 619 0 l 478 0 l 456 293 q 446 513 453 333 q 390 383 424 458 q 213 0 357 307 l 72 0 l 106 915 l 235 915 l 199 349 q 176 114 190 237 q 266 322 231 246 q 410 631 300 398 l 528 631 q 551 343 543 444 q 562 114 559 242 l 631 349 l 811 915 l 939 915 l 619 0 m 760 994 l 757 981 l 686 981 l 555 1074 l 554 1074 l 378 981 l 308 981 l 311 994 l 515 1156 l 626 1156 l 760 994 z "},"ŵ":{"ha":833,"x_min":67,"x_max":890,"o":"m 619 0 l 481 0 l 446 319 l 434 456 l 389 362 l 205 0 l 67 0 l 85 734 l 206 734 l 189 322 q 181 204 188 283 q 169 101 174 124 l 195 159 l 237 246 l 384 534 l 515 534 l 547 245 l 556 101 q 567 144 559 119 q 623 322 574 170 l 771 734 l 890 734 l 619 0 m 728 828 l 725 814 l 654 814 l 524 908 l 522 908 l 347 814 l 276 814 l 279 828 l 483 990 l 594 990 l 728 828 z "},"Ŷ":{"ha":833,"x_min":131,"x_max":915,"o":"m 409 0 l 281 0 l 359 396 l 131 915 l 270 915 l 443 500 l 776 915 l 915 915 l 486 396 l 409 0 m 760 994 l 757 981 l 686 981 l 555 1074 l 554 1074 l 378 981 l 308 981 l 311 994 l 515 1156 l 626 1156 l 760 994 z "},"ŷ":{"ha":833,"x_min":-12,"x_max":859,"o":"m 71 -288 q -12 -281 22 -288 l 6 -189 q 62 -193 31 -193 q 171 -153 116 -193 q 275 -26 226 -113 l 294 7 l 116 734 l 246 734 l 341 298 q 361 201 349 265 q 374 126 374 137 q 416 201 380 141 l 730 734 l 859 734 l 407 0 q 236 -226 312 -164 q 71 -288 159 -288 m 728 828 l 725 814 l 654 814 l 524 908 l 522 908 l 347 814 l 276 814 l 279 828 l 483 990 l 594 990 l 728 828 z "},"ſ":{"ha":833,"x_min":200,"x_max":867,"o":"m 322 0 l 200 0 l 346 751 q 449 948 373 889 q 679 1006 526 1006 q 782 1002 726 1006 q 867 992 838 998 l 848 894 q 766 901 828 897 q 673 905 703 905 q 528 869 572 905 q 466 741 484 832 l 322 0 z "},"Ǻ":{"ha":833,"x_min":-71,"x_max":797,"o":"m 589 713 l 762 0 l 630 0 l 579 219 l 197 219 l 62 0 l -71 0 l 382 710 q 338 796 338 740 q 363 876 338 838 q 432 935 387 913 q 531 956 476 956 q 634 927 597 956 q 671 848 671 897 q 650 772 671 808 q 589 713 629 736 m 486 686 l 474 686 q 399 550 429 600 l 260 323 l 559 323 l 511 550 q 486 686 507 571 m 475 980 l 478 994 l 663 1156 l 797 1156 l 793 1137 l 559 980 l 475 980 m 587 831 q 568 865 587 852 q 516 878 549 878 q 448 859 475 878 q 421 812 421 840 q 441 777 421 790 q 494 764 460 764 q 562 783 536 764 q 587 831 587 802 z "},"ǻ":{"ha":833,"x_min":50,"x_max":785,"o":"m 575 736 q 711 566 711 703 q 704 500 711 536 l 643 184 q 637 133 637 155 q 649 90 637 104 q 690 75 661 75 q 731 80 709 75 l 716 4 q 620 -7 669 -7 q 536 19 561 -7 q 511 96 511 45 l 515 140 l 511 140 q 383 22 450 58 q 229 -14 315 -14 q 94 28 138 -14 q 50 144 50 71 q 56 205 50 172 q 410 445 102 441 l 570 448 q 584 517 582 503 q 585 548 585 532 q 554 630 585 606 q 460 654 523 654 q 341 628 382 654 q 280 538 301 601 l 155 549 q 384 739 210 707 q 337 826 337 770 q 361 905 337 866 q 430 965 385 943 q 530 987 475 987 q 633 958 595 987 q 671 878 671 930 q 645 797 671 836 q 575 736 620 758 m 278 79 q 399 110 342 79 q 493 193 455 141 q 542 302 531 245 l 554 362 l 425 359 q 282 335 333 358 q 206 268 232 313 q 180 170 180 222 q 204 104 180 128 q 278 79 229 79 m 471 1015 l 473 1028 l 652 1156 l 785 1156 l 782 1137 l 555 1015 l 471 1015 m 587 861 q 567 896 587 883 q 515 908 547 908 q 447 889 473 908 q 420 843 420 870 q 439 808 420 821 q 493 795 458 795 q 561 814 536 795 q 587 861 587 834 z "},"Ǽ":{"ha":833,"x_min":-71,"x_max":889,"o":"m 421 279 l 194 279 l 43 0 l -71 0 l 437 915 l 889 915 l 869 812 l 641 812 l 584 520 l 806 520 l 786 418 l 564 418 l 503 103 l 760 103 l 739 0 l 367 0 l 421 279 m 526 815 l 476 815 l 395 652 l 248 380 l 441 380 l 526 815 m 558 981 l 561 994 l 747 1156 l 880 1156 l 876 1137 l 642 981 l 558 981 z "},"ǽ":{"ha":833,"x_min":-26,"x_max":837,"o":"m 456 341 q 441 212 441 278 q 530 78 441 78 q 617 110 581 78 q 674 191 654 142 l 762 160 q 515 -14 681 -14 q 394 23 433 -14 q 347 144 355 60 q 115 -14 251 -14 q -26 129 -26 -14 q -18 205 -26 163 q 253 445 28 441 l 366 448 q 385 572 385 538 q 368 635 385 616 q 315 654 351 654 q 236 627 264 654 q 191 538 208 600 l 79 549 q 174 699 111 650 q 332 747 237 747 q 481 653 452 747 q 666 747 556 747 q 837 530 837 747 q 817 357 837 454 l 814 341 l 456 341 m 92 156 q 150 79 92 79 q 266 144 213 79 q 338 302 319 208 l 350 362 l 267 359 q 166 332 202 357 q 111 256 130 307 q 92 156 92 205 m 639 657 q 541 598 584 657 q 475 435 498 538 l 720 435 q 728 526 728 493 q 706 626 728 594 q 639 657 684 657 m 420 814 l 423 828 l 609 990 l 743 990 l 739 970 l 505 814 l 420 814 z "},"Ǿ":{"ha":833,"x_min":-30,"x_max":897,"o":"m 342 -14 q 125 80 193 -14 l 26 -26 l -30 18 l 91 146 q 69 291 69 208 q 103 530 69 400 q 196 749 136 659 q 338 884 255 839 q 526 929 420 929 q 743 838 674 929 l 842 944 l 897 900 l 778 773 q 800 629 800 712 q 767 395 800 524 q 673 173 734 266 q 528 34 612 81 q 342 -14 444 -14 m 663 616 l 662 650 l 224 185 q 363 92 260 92 q 482 127 431 92 q 573 238 534 162 q 638 426 613 314 q 663 616 663 538 m 207 302 q 208 271 207 278 l 645 734 q 506 823 610 823 q 350 757 414 823 q 246 554 285 690 q 207 302 207 418 m 460 981 l 463 994 l 648 1156 l 782 1156 l 778 1137 l 544 981 l 460 981 z "},"ǿ":{"ha":833,"x_min":22,"x_max":808,"o":"m 339 -14 q 129 59 201 -14 l 65 0 l 22 46 l 92 111 q 62 252 62 168 q 92 438 62 340 q 177 607 121 536 q 312 712 233 677 q 491 747 390 747 q 705 680 635 747 l 765 735 l 808 689 l 743 628 q 771 492 771 573 q 742 303 771 404 q 657 130 713 202 q 520 22 600 58 q 339 -14 440 -14 m 642 484 q 639 532 642 505 l 218 141 q 355 77 258 77 q 479 104 428 77 q 566 190 530 132 q 622 334 602 249 q 642 484 642 420 m 191 257 q 195 206 191 230 l 616 597 q 475 657 577 657 q 355 630 406 657 q 268 545 304 602 q 211 405 231 488 q 191 257 191 321 m 427 814 l 430 828 l 616 990 l 749 990 l 745 970 l 511 814 l 427 814 z "},"·":{"ha":833,"x_min":321,"x_max":519,"o":"m 321 285 l 360 488 l 519 488 l 480 285 l 321 285 z "},"Ẁ":{"ha":833,"x_min":72,"x_max":939,"o":"m 619 0 l 478 0 l 456 293 q 446 513 453 333 q 390 383 424 458 q 213 0 357 307 l 72 0 l 106 915 l 235 915 l 199 349 q 176 114 190 237 q 266 322 231 246 q 410 631 300 398 l 528 631 q 551 343 543 444 q 562 114 559 242 l 631 349 l 811 915 l 939 915 l 619 0 m 555 981 l 382 1137 l 387 1156 l 520 1156 l 642 994 l 640 981 l 555 981 z "},"ẁ":{"ha":833,"x_min":67,"x_max":890,"o":"m 619 0 l 481 0 l 446 319 l 434 456 l 389 362 l 205 0 l 67 0 l 85 734 l 206 734 l 189 322 q 181 204 188 283 q 169 101 174 124 l 195 159 l 237 246 l 384 534 l 515 534 l 547 245 l 556 101 q 567 144 559 119 q 623 322 574 170 l 771 734 l 890 734 l 619 0 m 481 814 l 309 970 l 313 990 l 446 990 l 568 828 l 566 814 l 481 814 z "},"Ẃ":{"ha":833,"x_min":72,"x_max":939,"o":"m 619 0 l 478 0 l 456 293 q 446 513 453 333 q 390 383 424 458 q 213 0 357 307 l 72 0 l 106 915 l 235 915 l 199 349 q 176 114 190 237 q 266 322 231 246 q 410 631 300 398 l 528 631 q 551 343 543 444 q 562 114 559 242 l 631 349 l 811 915 l 939 915 l 619 0 m 462 981 l 465 994 l 650 1156 l 784 1156 l 780 1137 l 546 981 l 462 981 z "},"ẃ":{"ha":833,"x_min":67,"x_max":890,"o":"m 619 0 l 481 0 l 446 319 l 434 456 l 389 362 l 205 0 l 67 0 l 85 734 l 206 734 l 189 322 q 181 204 188 283 q 169 101 174 124 l 195 159 l 237 246 l 384 534 l 515 534 l 547 245 l 556 101 q 567 144 559 119 q 623 322 574 170 l 771 734 l 890 734 l 619 0 m 423 814 l 426 828 l 612 990 l 745 990 l 741 970 l 507 814 l 423 814 z "},"Ẅ":{"ha":833,"x_min":72,"x_max":939,"o":"m 619 0 l 478 0 l 456 293 q 446 513 453 333 q 390 383 424 458 q 213 0 357 307 l 72 0 l 106 915 l 235 915 l 199 349 q 176 114 190 237 q 266 322 231 246 q 410 631 300 398 l 528 631 q 551 343 543 444 q 562 114 559 242 l 631 349 l 811 915 l 939 915 l 619 0 m 614 981 l 639 1105 l 749 1105 l 725 981 l 614 981 m 347 981 l 372 1105 l 484 1105 l 459 981 l 347 981 z "},"ẅ":{"ha":833,"x_min":67,"x_max":890,"o":"m 619 0 l 481 0 l 446 319 l 434 456 l 389 362 l 205 0 l 67 0 l 85 734 l 206 734 l 189 322 q 181 204 188 283 q 169 101 174 124 l 195 159 l 237 246 l 384 534 l 515 534 l 547 245 l 556 101 q 567 144 559 119 q 623 322 574 170 l 771 734 l 890 734 l 619 0 m 585 827 l 609 951 l 720 951 l 695 827 l 585 827 m 317 827 l 342 951 l 454 951 l 429 827 l 317 827 z "},"Ỳ":{"ha":833,"x_min":131,"x_max":915,"o":"m 409 0 l 281 0 l 359 396 l 131 915 l 270 915 l 443 500 l 776 915 l 915 915 l 486 396 l 409 0 m 548 981 l 375 1137 l 379 1156 l 513 1156 l 635 994 l 632 981 l 548 981 z "},"ỳ":{"ha":833,"x_min":-12,"x_max":859,"o":"m 71 -288 q -12 -281 22 -288 l 6 -189 q 62 -193 31 -193 q 171 -153 116 -193 q 275 -26 226 -113 l 294 7 l 116 734 l 246 734 l 341 298 q 361 201 349 265 q 374 126 374 137 q 416 201 380 141 l 730 734 l 859 734 l 407 0 q 236 -226 312 -164 q 71 -288 159 -288 m 523 814 l 350 970 l 354 990 l 488 990 l 610 828 l 607 814 l 523 814 z "},"‛":{"ha":833,"x_min":394,"x_max":607,"o":"m 524 585 l 394 1006 l 574 1006 l 607 585 l 524 585 z "},"‾":{"ha":833,"x_min":117,"x_max":969,"o":"m 117 985 l 130 1050 l 969 1050 l 956 985 l 117 985 z "},"₤":{"ha":833,"x_min":-9,"x_max":791,"o":"m 733 211 q 633 55 703 111 q 464 0 563 0 l -9 0 l 11 104 q 120 182 87 140 q 167 297 153 224 l 170 314 l 44 314 l 63 410 l 189 410 l 209 513 l 83 513 l 102 609 l 228 609 l 237 661 q 347 861 263 793 q 562 929 430 929 q 722 888 662 929 q 791 773 782 847 l 665 734 q 628 803 660 777 q 546 829 595 829 q 423 790 469 829 q 361 666 377 751 l 350 609 l 627 609 l 608 513 l 331 513 l 311 410 l 588 410 l 569 314 l 292 314 l 292 309 q 137 104 263 163 l 465 104 q 563 134 522 104 q 625 223 604 164 l 733 211 z "},"℮":{"ha":833,"x_min":64,"x_max":783,"o":"m 425 -23 q 236 26 317 -23 q 110 164 155 75 q 64 360 64 254 q 110 559 64 473 q 239 694 155 646 q 425 743 323 743 q 610 695 528 743 q 738 559 692 647 q 783 360 783 472 l 222 360 l 222 119 q 312 58 256 82 q 425 35 367 35 q 577 71 514 35 q 692 193 640 108 l 741 165 q 600 18 675 60 q 425 -23 526 -23 m 627 418 l 627 606 q 537 664 592 642 q 423 686 482 686 q 222 606 302 686 l 222 418 l 627 418 z "},"⅛":{"ha":833,"x_min":31,"x_max":820,"o":"m 31 399 l 45 472 l 137 472 l 205 820 q 147 774 186 793 q 77 755 109 755 l 92 836 q 166 858 127 836 q 230 915 205 880 l 312 915 l 226 472 l 304 472 l 290 399 l 31 399 m 133 0 l 53 0 l 707 915 l 785 915 l 133 0 m 728 412 q 716 445 728 433 q 673 457 705 457 q 611 427 630 457 q 591 359 591 397 q 645 306 591 306 q 692 320 673 306 q 720 362 711 334 q 728 412 728 391 m 697 180 q 631 237 697 237 q 576 223 598 237 q 544 178 555 209 q 532 121 532 148 q 599 61 532 61 q 654 76 632 61 q 686 124 675 90 q 697 180 697 157 m 585 -7 q 474 23 509 -7 q 440 106 440 54 q 453 177 440 140 q 491 236 465 213 q 550 270 516 260 l 551 272 q 502 356 502 298 q 554 478 502 431 q 687 525 606 525 q 785 498 749 525 q 820 420 820 471 q 796 333 820 373 q 725 273 772 292 l 725 271 q 773 239 758 260 q 788 184 788 218 q 764 86 788 133 q 694 16 740 39 q 585 -7 648 -7 z "},"⅜":{"ha":833,"x_min":38,"x_max":820,"o":"m 185 387 q 76 423 115 387 q 38 524 38 459 l 38 531 l 132 540 l 132 532 q 150 477 132 496 q 199 458 168 458 q 272 487 245 458 q 299 564 299 517 q 212 624 299 624 l 184 624 l 198 698 l 223 698 q 283 710 259 698 q 319 748 307 722 q 331 801 331 774 q 278 851 331 851 q 221 830 248 851 q 183 770 195 808 l 93 778 q 167 883 114 844 q 292 923 220 923 q 390 894 355 923 q 425 816 425 865 q 307 666 425 707 l 307 665 q 392 568 392 645 q 389 538 392 555 q 321 429 376 470 q 185 387 266 387 m 144 0 l 64 0 l 719 915 l 797 915 l 144 0 m 728 412 q 716 445 728 433 q 673 457 705 457 q 611 427 630 457 q 591 359 591 397 q 645 306 591 306 q 692 320 673 306 q 720 362 711 334 q 728 412 728 391 m 697 180 q 631 237 697 237 q 576 223 598 237 q 544 178 555 209 q 532 121 532 148 q 599 61 532 61 q 654 76 632 61 q 686 124 675 90 q 697 180 697 157 m 585 -7 q 474 23 509 -7 q 440 106 440 54 q 453 177 440 140 q 491 236 465 213 q 550 270 516 260 l 551 272 q 502 356 502 298 q 554 478 502 431 q 687 525 606 525 q 785 498 749 525 q 820 420 820 471 q 796 333 820 373 q 725 273 772 292 l 725 271 q 773 239 758 260 q 788 184 788 218 q 764 86 788 133 q 694 16 740 39 q 585 -7 648 -7 z "},"⅝":{"ha":833,"x_min":56,"x_max":820,"o":"m 203 395 q 56 522 56 395 l 56 524 l 148 534 q 164 482 148 498 q 215 466 181 466 q 313 566 294 466 l 317 597 q 253 659 317 659 q 207 648 226 659 q 170 618 188 638 l 82 618 l 162 915 l 451 915 l 436 838 l 220 838 l 179 692 q 278 732 223 732 q 376 702 342 732 q 410 613 410 671 q 405 566 410 590 q 336 439 389 484 q 203 395 283 395 m 153 0 l 73 0 l 727 915 l 805 915 l 153 0 m 728 412 q 716 445 728 433 q 673 457 705 457 q 611 427 630 457 q 591 359 591 397 q 645 306 591 306 q 692 320 673 306 q 720 362 711 334 q 728 412 728 391 m 697 180 q 631 237 697 237 q 576 223 598 237 q 544 178 555 209 q 532 121 532 148 q 599 61 532 61 q 654 76 632 61 q 686 124 675 90 q 697 180 697 157 m 585 -7 q 474 23 509 -7 q 440 106 440 54 q 453 177 440 140 q 491 236 465 213 q 550 270 516 260 l 551 272 q 502 356 502 298 q 554 478 502 431 q 687 525 606 525 q 785 498 749 525 q 820 420 820 471 q 796 333 820 373 q 725 273 772 292 l 725 271 q 773 239 758 260 q 788 184 788 218 q 764 86 788 133 q 694 16 740 39 q 585 -7 648 -7 z "},"⅞":{"ha":833,"x_min":16,"x_max":798,"o":"m 220 399 l 130 399 q 209 606 151 508 q 395 838 267 704 l 130 838 l 145 915 l 497 915 l 484 846 q 339 674 385 739 q 265 546 292 610 q 220 399 237 483 m 96 0 l 16 0 l 671 915 l 749 915 l 96 0 m 707 412 q 695 445 707 433 q 652 457 683 457 q 589 427 608 457 q 570 359 570 397 q 623 306 570 306 q 670 320 652 306 q 698 362 689 334 q 707 412 707 391 m 675 180 q 609 237 675 237 q 555 223 576 237 q 522 178 533 209 q 511 121 511 148 q 577 61 511 61 q 632 76 610 61 q 665 124 654 90 q 675 180 675 157 m 563 -7 q 453 23 487 -7 q 418 106 418 54 q 431 177 418 140 q 469 236 444 213 q 528 270 494 260 l 529 272 q 480 356 480 298 q 532 478 480 431 q 665 525 584 525 q 763 498 728 525 q 798 420 798 471 q 774 333 798 373 q 703 273 750 292 l 703 271 q 751 239 736 260 q 766 184 766 218 q 742 86 766 133 q 672 16 718 39 q 563 -7 627 -7 z "},"΄":{"ha":833,"x_min":409,"x_max":640,"o":"m 409 814 l 414 837 l 506 1035 l 640 1035 l 634 1010 l 480 814 l 409 814 z "},"΅":{"ha":833,"x_min":300,"x_max":736,"o":"m 440 814 l 445 837 l 530 1086 l 663 1086 l 659 1061 l 511 814 l 440 814 m 615 827 l 640 951 l 736 951 l 712 827 l 615 827 m 300 827 l 325 951 l 423 951 l 399 827 l 300 827 z "},"Ά":{"ha":833,"x_min":-71,"x_max":762,"o":"m 630 0 l 587 259 l 205 259 l 62 0 l -71 0 l 452 915 l 600 915 l 762 0 l 630 0 m 505 817 q 449 708 474 755 q 259 360 425 661 l 573 360 l 522 699 l 505 817 m 64 695 l 69 718 l 161 916 l 295 916 l 290 890 l 136 695 l 64 695 z "},"Έ":{"ha":833,"x_min":31,"x_max":905,"o":"m 104 0 l 282 915 l 905 915 l 885 809 l 391 809 l 336 523 l 789 523 l 768 418 l 315 418 l 254 106 l 776 106 l 755 0 l 104 0 m 31 695 l 35 718 l 127 916 l 261 916 l 256 890 l 102 695 l 31 695 z "},"Ή":{"ha":833,"x_min":64,"x_max":872,"o":"m 568 0 l 650 422 l 363 422 l 281 0 l 151 0 l 329 915 l 458 915 l 384 531 l 671 531 l 746 915 l 872 915 l 694 0 l 568 0 m 64 694 l 68 717 l 160 915 l 294 915 l 289 890 l 135 694 l 64 694 z "},"Ί":{"ha":833,"x_min":64,"x_max":888,"o":"m 330 915 l 888 915 l 867 809 l 653 809 l 516 106 l 730 106 l 710 0 l 152 0 l 172 106 l 387 106 l 524 809 l 309 809 l 330 915 m 64 695 l 69 718 l 161 916 l 295 916 l 290 890 l 136 695 l 64 695 z "},"Ό":{"ha":833,"x_min":31,"x_max":848,"o":"m 389 -14 q 184 65 252 -14 q 117 292 117 144 q 150 530 117 400 q 243 749 184 659 q 385 884 302 839 q 574 929 468 929 q 778 854 708 929 q 848 629 848 779 q 814 395 848 524 q 720 173 781 265 q 575 33 659 80 q 389 -14 491 -14 m 711 619 q 553 823 711 823 q 396 756 461 823 q 293 551 332 688 q 254 302 254 414 q 410 92 254 92 q 530 127 478 92 q 621 238 581 162 q 686 426 661 314 q 711 619 711 538 m 31 695 l 35 718 l 127 916 l 261 916 l 256 890 l 102 695 l 31 695 z "},"Ύ":{"ha":833,"x_min":64,"x_max":920,"o":"m 502 0 l 374 0 l 452 396 l 312 915 l 448 915 l 537 507 l 783 915 l 920 915 l 579 396 l 502 0 m 64 694 l 68 717 l 160 915 l 294 915 l 289 890 l 135 694 l 64 694 z "},"Ώ":{"ha":833,"x_min":15,"x_max":825,"o":"m 552 929 q 753 850 680 929 q 825 634 825 771 q 805 482 825 562 q 744 330 784 402 q 647 200 704 258 q 516 98 589 142 q 613 106 583 106 l 749 106 l 728 0 l 414 0 l 444 152 q 581 277 527 205 q 664 447 635 349 q 692 628 692 546 q 652 771 692 720 q 532 823 613 823 q 386 767 449 823 q 287 603 323 711 q 250 395 250 495 q 359 152 250 243 l 329 0 l 15 0 l 35 106 l 171 106 q 265 98 203 106 q 121 409 121 209 q 152 600 121 503 q 243 772 183 696 q 382 888 302 848 q 552 929 461 929 m 30 694 l 34 717 l 126 915 l 260 915 l 255 890 l 101 694 l 30 694 z "},"ΐ":{"ha":833,"x_min":154,"x_max":728,"o":"m 408 180 q 430 112 408 134 q 497 91 452 91 q 654 163 571 91 l 702 81 q 476 -14 598 -14 q 329 27 374 -14 q 283 150 283 68 q 292 237 283 187 l 370 637 l 154 637 l 172 734 l 511 734 l 414 235 q 408 180 408 204 m 431 814 l 436 837 l 521 1086 l 654 1086 l 650 1061 l 503 814 l 431 814 m 606 827 l 631 951 l 728 951 l 703 827 l 606 827 m 292 827 l 316 951 l 414 951 l 390 827 l 292 827 z "},"Α":{"ha":833,"x_min":-71,"x_max":762,"o":"m 630 0 l 587 259 l 205 259 l 62 0 l -71 0 l 452 915 l 600 915 l 762 0 l 630 0 m 505 817 q 449 708 474 755 q 259 360 425 661 l 573 360 l 522 699 l 505 817 z "},"Β":{"ha":833,"x_min":39,"x_max":794,"o":"m 359 0 l 39 0 l 216 915 l 496 915 q 794 740 794 915 q 766 625 794 681 q 687 533 739 570 q 566 482 635 496 q 715 423 665 471 q 765 302 765 375 q 739 189 765 247 q 659 88 713 132 q 527 22 604 44 q 359 0 450 0 m 659 708 q 613 787 659 763 q 477 811 568 811 l 326 811 l 271 529 l 424 529 q 656 677 626 529 l 659 708 m 635 302 q 422 428 635 428 l 252 428 l 189 104 l 369 104 q 551 145 488 104 q 631 269 615 186 l 635 302 z "},"Δ":{"ha":833,"x_min":-63,"x_max":773,"o":"m -63 0 l -44 98 l 438 915 l 604 915 l 773 100 l 753 0 l -63 0 m 504 823 q 401 635 456 727 l 87 106 l 644 106 l 534 635 q 507 802 518 713 l 504 823 z "},"Ε":{"ha":833,"x_min":39,"x_max":840,"o":"m 39 0 l 216 915 l 840 915 l 819 809 l 326 809 l 270 523 l 723 523 l 703 418 l 250 418 l 189 106 l 710 106 l 690 0 l 39 0 z "},"Ζ":{"ha":833,"x_min":-22,"x_max":858,"o":"m 712 0 l -22 0 l -3 97 l 690 809 l 185 809 l 205 915 l 858 915 l 840 821 l 146 106 l 732 106 l 712 0 z "},"Η":{"ha":833,"x_min":39,"x_max":829,"o":"m 522 0 l 604 422 l 250 422 l 168 0 l 39 0 l 216 915 l 346 915 l 271 531 l 625 531 l 700 915 l 829 915 l 652 0 l 522 0 z "},"Ι":{"ha":833,"x_min":66,"x_max":802,"o":"m 243 915 l 802 915 l 781 809 l 567 809 l 430 106 l 644 106 l 624 0 l 66 0 l 86 106 l 300 106 l 437 809 l 223 809 l 243 915 z "},"Κ":{"ha":833,"x_min":39,"x_max":886,"o":"m 609 0 l 366 435 l 230 318 l 168 0 l 39 0 l 216 915 l 346 915 l 257 458 l 734 915 l 886 915 l 469 527 l 761 0 l 609 0 z "},"Λ":{"ha":833,"x_min":-64,"x_max":755,"o":"m 755 0 l 618 0 l 522 612 q 502 801 514 662 q 408 612 467 724 l 72 0 l -64 0 l 456 915 l 590 915 l 755 0 z "},"Μ":{"ha":833,"x_min":16,"x_max":852,"o":"m 564 0 l 679 589 q 722 793 696 674 l 685 720 l 620 595 l 451 298 l 358 298 l 303 595 q 276 793 293 645 l 239 589 l 125 0 l 16 0 l 194 915 l 355 915 l 416 583 q 431 427 424 545 l 460 488 l 509 583 l 699 915 l 852 915 l 674 0 l 564 0 z "},"Ν":{"ha":833,"x_min":39,"x_max":829,"o":"m 496 0 l 292 766 q 269 594 282 657 l 154 0 l 39 0 l 216 915 l 367 915 l 575 143 q 599 329 583 248 l 713 915 l 829 915 l 652 0 l 496 0 z "},"Ξ":{"ha":833,"x_min":20,"x_max":835,"o":"m 191 809 l 212 915 l 835 915 l 814 809 l 191 809 m 20 0 l 41 106 l 691 106 l 671 0 l 20 0 m 674 523 l 654 418 l 200 418 l 220 523 l 674 523 z "},"Ο":{"ha":833,"x_min":69,"x_max":800,"o":"m 342 -14 q 137 65 205 -14 q 69 292 69 144 q 103 530 69 400 q 196 749 136 659 q 338 884 255 839 q 526 929 420 929 q 730 854 661 929 q 800 629 800 779 q 767 395 800 524 q 673 173 734 265 q 528 33 612 80 q 342 -14 444 -14 m 663 619 q 506 823 663 823 q 349 756 414 823 q 245 551 284 688 q 206 302 206 414 q 363 92 206 92 q 482 127 431 92 q 573 238 534 162 q 638 426 613 314 q 663 619 663 538 z "},"Π":{"ha":833,"x_min":39,"x_max":829,"o":"m 39 0 l 217 915 l 829 915 l 652 0 l 522 0 l 680 809 l 326 809 l 169 0 l 39 0 z "},"Ρ":{"ha":833,"x_min":39,"x_max":819,"o":"m 427 349 l 236 349 l 168 0 l 39 0 l 216 915 l 528 915 q 744 860 669 915 q 819 702 819 804 q 768 526 819 610 q 628 396 718 443 q 427 349 538 349 m 686 680 q 492 811 686 811 l 326 811 l 256 451 l 428 451 q 565 481 505 451 q 655 565 624 511 q 686 680 686 619 z "},"Σ":{"ha":833,"x_min":2,"x_max":869,"o":"m 2 0 l 23 110 l 460 482 l 170 806 l 191 915 l 869 915 l 848 809 l 317 809 l 572 528 l 556 444 l 158 106 l 753 106 l 732 0 l 2 0 z "},"Τ":{"ha":833,"x_min":138,"x_max":888,"o":"m 567 809 l 410 0 l 281 0 l 438 809 l 138 809 l 158 915 l 888 915 l 867 809 l 567 809 z "},"Υ":{"ha":833,"x_min":131,"x_max":915,"o":"m 409 0 l 281 0 l 359 396 l 131 915 l 270 915 l 443 500 l 776 915 l 915 915 l 486 396 l 409 0 z "},"Χ":{"ha":833,"x_min":-47,"x_max":888,"o":"m 456 567 l 749 915 l 888 915 l 508 478 l 738 0 l 599 0 l 420 389 l 92 0 l -47 0 l 369 478 l 159 915 l 298 915 l 456 567 z "},"Ψ":{"ha":833,"x_min":72,"x_max":907,"o":"m 293 0 l 345 269 l 306 269 q 133 333 193 269 q 72 517 72 397 q 83 621 72 567 l 140 915 l 249 915 l 191 618 q 182 530 182 571 q 219 405 182 449 q 329 361 256 361 l 363 361 l 471 915 l 576 915 l 469 361 l 503 361 q 655 430 593 361 q 740 618 717 498 l 798 915 l 907 915 l 850 621 q 723 365 819 460 q 490 269 628 269 l 450 269 l 398 0 l 293 0 z "},"Ω":{"ha":833,"x_min":-31,"x_max":819,"o":"m 526 929 q 742 851 664 929 q 819 633 819 773 q 732 328 819 471 q 497 98 646 185 q 608 106 576 106 l 743 106 l 723 0 l 395 0 l 425 152 q 570 281 511 207 q 657 447 628 355 q 686 626 686 540 q 643 771 686 719 q 507 823 600 823 q 349 770 415 823 q 244 614 282 718 q 207 413 207 510 q 326 152 207 254 l 296 0 l -31 0 l -11 106 l 125 106 q 233 98 155 106 q 116 241 155 157 q 77 423 77 324 q 110 609 77 513 q 203 779 142 706 q 347 890 264 852 q 526 929 429 929 z "},"Ϊ":{"ha":833,"x_min":66,"x_max":802,"o":"m 243 915 l 802 915 l 781 809 l 567 809 l 430 106 l 644 106 l 624 0 l 66 0 l 86 106 l 300 106 l 437 809 l 223 809 l 243 915 m 621 1008 l 645 1133 l 755 1133 l 731 1008 l 621 1008 m 353 1008 l 378 1133 l 490 1133 l 465 1008 l 353 1008 z "},"Ϋ":{"ha":833,"x_min":131,"x_max":915,"o":"m 409 0 l 281 0 l 359 396 l 131 915 l 270 915 l 443 500 l 776 915 l 915 915 l 486 396 l 409 0 m 631 1008 l 656 1133 l 766 1133 l 742 1008 l 631 1008 m 364 1008 l 389 1133 l 500 1133 l 476 1008 l 364 1008 z "},"ά":{"ha":833,"x_min":71,"x_max":863,"o":"m 561 161 q 283 -14 449 -14 q 122 43 174 -14 q 71 215 71 99 q 87 363 71 280 q 450 747 163 747 q 586 703 534 747 q 654 574 639 659 l 656 574 q 736 734 683 646 l 863 734 q 772 569 821 671 q 700 387 724 467 q 682 173 682 267 q 700 0 682 72 l 576 0 q 564 161 564 57 l 561 161 m 199 230 q 230 116 199 152 q 327 81 261 81 q 480 159 408 81 q 594 370 551 238 l 595 416 q 446 657 595 657 q 313 604 363 657 q 231 433 262 550 q 199 230 199 317 m 450 814 l 454 837 l 547 1035 l 680 1035 l 675 1010 l 521 814 l 450 814 z "},"έ":{"ha":833,"x_min":81,"x_max":770,"o":"m 365 77 q 508 106 438 77 q 632 186 578 135 l 690 119 q 339 -14 555 -14 q 147 30 213 -14 q 81 155 81 73 q 112 267 81 218 q 196 347 143 316 q 308 382 248 377 l 308 384 q 210 427 246 391 q 174 518 174 464 q 215 635 174 581 q 332 718 256 689 q 505 747 409 747 q 672 718 606 747 q 770 622 738 689 l 671 562 q 604 633 649 610 q 488 656 559 656 q 345 621 393 656 q 298 528 298 585 q 360 454 298 478 q 567 429 422 429 l 549 338 q 350 320 419 338 q 246 267 281 303 q 211 176 211 230 q 365 77 211 77 m 463 814 l 468 837 l 560 1035 l 694 1035 l 688 1010 l 534 814 l 463 814 z "},"ή":{"ha":833,"x_min":54,"x_max":745,"o":"m 461 -288 l 609 471 q 616 538 616 511 q 587 625 616 597 q 495 653 557 653 q 346 592 411 653 q 259 425 280 530 l 176 0 l 54 0 l 166 577 q 175 626 171 600 q 183 674 180 651 q 190 713 187 696 q 193 734 193 729 l 308 734 q 302 688 308 730 q 289 608 296 646 l 291 608 q 400 710 337 673 q 553 747 463 747 q 745 575 745 747 q 735 489 745 536 l 584 -288 l 461 -288 m 463 814 l 468 837 l 560 1035 l 694 1035 l 688 1010 l 534 814 l 463 814 z "},"ί":{"ha":833,"x_min":154,"x_max":702,"o":"m 408 180 q 430 112 408 134 q 497 91 452 91 q 654 163 571 91 l 702 81 q 476 -14 598 -14 q 329 27 374 -14 q 283 150 283 68 q 292 237 283 187 l 370 637 l 154 637 l 172 734 l 511 734 l 414 235 q 408 180 408 204 m 429 814 l 434 837 l 526 1035 l 660 1035 l 654 1010 l 500 814 l 429 814 z "},"ΰ":{"ha":833,"x_min":85,"x_max":759,"o":"m 338 -14 q 149 35 214 -14 q 85 192 85 84 q 94 284 85 239 l 182 734 l 304 734 l 216 280 q 210 219 210 247 q 361 81 210 81 q 509 135 451 81 q 599 304 566 190 q 632 539 632 418 q 609 734 632 659 l 736 734 q 759 542 759 654 q 707 255 759 388 q 561 55 654 123 q 338 -14 467 -14 m 430 814 l 435 837 l 519 1086 l 653 1086 l 648 1061 l 501 814 l 430 814 m 605 827 l 629 951 l 726 951 l 702 827 l 605 827 m 290 827 l 315 951 l 413 951 l 389 827 l 290 827 z "},"β":{"ha":833,"x_min":-11,"x_max":784,"o":"m 380 -14 q 177 50 256 -14 l 173 50 q 151 -87 164 -21 l 111 -288 l -11 -288 l 181 696 q 304 932 212 857 q 549 1006 395 1006 q 725 959 666 1006 q 784 825 784 912 q 761 708 784 766 q 694 607 739 649 q 583 539 650 564 q 709 469 665 522 q 753 338 753 416 q 707 163 753 248 q 577 32 662 77 q 380 -14 493 -14 m 664 802 q 630 883 664 854 q 532 911 595 911 q 378 858 432 911 q 302 692 323 806 l 195 139 q 283 94 231 111 q 393 77 336 77 q 519 107 465 77 q 604 197 573 138 q 634 317 634 256 q 573 436 634 395 q 396 477 511 477 l 414 573 q 551 610 495 579 q 636 696 608 642 q 664 802 664 751 z "},"γ":{"ha":833,"x_min":107,"x_max":863,"o":"m 244 734 l 342 288 q 360 189 350 252 q 370 116 370 126 q 402 174 374 126 q 730 734 429 222 l 863 734 l 431 36 q 298 -288 355 -102 l 168 -288 q 286 7 211 -154 l 107 734 l 244 734 z "},"ζ":{"ha":833,"x_min":96,"x_max":848,"o":"m 231 232 q 265 162 231 190 q 369 119 300 135 l 443 101 q 580 57 543 75 q 640 12 617 39 q 663 -54 663 -15 q 636 -148 663 -95 q 572 -246 610 -200 l 494 -208 q 535 -151 519 -180 q 551 -102 551 -121 q 509 -49 551 -72 q 359 -4 467 -26 q 202 44 252 19 q 125 106 153 68 q 96 199 96 144 q 240 500 96 327 q 705 910 385 673 l 706 914 q 599 910 657 910 l 286 910 l 304 1006 l 848 1006 l 830 913 q 484 621 610 744 q 294 397 357 498 q 231 232 231 296 z "},"η":{"ha":833,"x_min":54,"x_max":745,"o":"m 461 -288 l 609 471 q 616 538 616 511 q 587 625 616 597 q 495 653 557 653 q 346 592 411 653 q 259 425 280 530 l 176 0 l 54 0 l 166 577 q 175 626 171 600 q 183 674 180 651 q 190 713 187 696 q 193 734 193 729 l 308 734 q 302 688 308 730 q 289 608 296 646 l 291 608 q 400 710 337 673 q 553 747 463 747 q 745 575 745 747 q 735 489 745 536 l 584 -288 l 461 -288 z "},"θ":{"ha":833,"x_min":104,"x_max":781,"o":"m 340 -14 q 165 60 227 -14 q 104 287 104 134 q 127 497 104 378 q 542 1006 227 1006 q 723 935 665 1006 q 781 722 781 864 q 747 454 781 608 q 657 196 713 299 q 520 40 601 94 q 340 -14 440 -14 m 356 77 q 515 168 452 77 q 620 456 577 259 l 249 456 q 230 271 230 344 q 356 77 230 77 m 527 918 q 369 828 431 918 q 266 545 308 739 l 637 545 q 656 734 656 656 q 625 874 656 830 q 527 918 594 918 z "},"ι":{"ha":833,"x_min":154,"x_max":702,"o":"m 408 180 q 430 112 408 134 q 497 91 452 91 q 654 163 571 91 l 702 81 q 476 -14 598 -14 q 329 27 374 -14 q 283 150 283 68 q 292 237 283 187 l 370 637 l 154 637 l 172 734 l 511 734 l 414 235 q 408 180 408 204 z "}}}
